SplineFontDB: 3.2
FontName: Beyond
FullName: Beyond
FamilyName: Beyond
Weight: Standard
Copyright: Copyright (c) 2023, Karl Granli, Beyond Code AS
UComments: "2023-7-18: Created with FontForge (http://fontforge.org)"
Version: 001.000
ItalicAngle: 0
UnderlinePosition: -275
UnderlineWidth: 225
Ascent: 725
Descent: 275
InvalidEm: 0
LayerCount: 2
Layer: 0 0 "Back" 1
Layer: 1 0 "Fore" 0
XUID: [1021 988 -204709491 1551539]
StyleMap: 0x0000
FSType: 0
OS2Version: 0
OS2_WeightWidthSlopeOnly: 0
OS2_UseTypoMetrics: 1
CreationTime: 1689690114
ModificationTime: 1727870984
OS2TypoAscent: 0
OS2TypoAOffset: 1
OS2TypoDescent: 0
OS2TypoDOffset: 1
OS2TypoLinegap: 90
OS2WinAscent: 0
OS2WinAOffset: 1
OS2WinDescent: 0
OS2WinDOffset: 1
HheadAscent: 0
HheadAOffset: 1
HheadDescent: 0
HheadDOffset: 1
Lookup: 258 0 0 "'kern' Horizontal Kerning in Latin lookup 0" { "'kern' Horizontal Kerning in Latin lookup 0-1" [150,15,6] } ['kern' ('DFLT' <'dflt' > 'latn' <'dflt' > ) ]
MarkAttachClasses: 1
DEI: 91125
Encoding: ISO8859-1
UnicodeInterp: none
NameList: AGL For New Fonts
DisplaySize: -48
AntiAlias: 1
FitToEm: 0
WinInfo: 0 30 14
BeginPrivate: 0
EndPrivate
BeginChars: 258 125

StartChar: g
Encoding: 103 103 0
Width: 550
Flags: MW
HStem: -225 75<241.552 352.952> 0 75<197.446 352.42> 375 75<197.446 352.554>
VStem: 50 75<147.446 302.554> 425 75<-77.9519 57 147.15 302.257>
LayerCount: 2
Fore
SplineSet
275 0 m 0
 151 0 50 101 50 225 c 0
 50 349 151 450 275 450 c 0
 399 450 500 349 500 225 c 2
 500 0 l 2
 500 -30 494 -59 483 -86 c 0
 472 -113 455 -138 434 -159 c 0
 413 -180 388 -197 361 -208 c 0
 334 -219 305 -225 275 -225 c 0
 254 -225 238 -208 238 -188 c 0
 238 -167 254 -150 275 -150 c 0
 295 -150 314 -146 332 -139 c 0
 351 -131 367 -120 381 -106 c 0
 395 -92 406 -76 414 -57 c 0
 421 -39 425 -20 425 0 c 2
 425 57 l 1
 385 22 333 0 275 0 c 0
125 225 m 0
 125 142 192 75 275 75 c 0
 358 75 425 142 425 225 c 0
 425 308 358 375 275 375 c 0
 192 375 125 308 125 225 c 0
EndSplineSet
Validated: 1
EndChar

StartChar: A
Encoding: 65 65 1
Width: 550
Flags: W
HStem: 0 21G<77.5 98 452 472.5> 0 21G<77.5 98 452 472.5> 225 75<197.58 352.42> 600 75<197.446 352.554>
VStem: 50 75<3.74496 282 372.15 527.257> 425 75<3.74496 282 372.15 527.257>
LayerCount: 2
Fore
SplineSet
275 225 m 0xbc
 217 225 165 247 125 282 c 1
 125 38 l 2
 125 17 108 0 88 0 c 0
 67 0 50 17 50 38 c 2
 50 450 l 2
 50 574 151 675 275 675 c 0
 399 675 500 574 500 450 c 2
 500 38 l 2
 500 17 483 0 462 0 c 0
 442 0 425 17 425 38 c 2
 425 282 l 1
 385 247 333 225 275 225 c 0xbc
275 300 m 0
 358 300 425 367 425 450 c 0
 425 533 358 600 275 600 c 0
 192 600 125 533 125 450 c 0
 125 367 192 300 275 300 c 0
EndSplineSet
Validated: 8388609
EndChar

StartChar: B
Encoding: 66 66 2
Width: 550
Flags: W
HStem: 0 75<197.446 352.554> 375 75<197.58 322.491> 600 75<165.373 292.522>
VStem: 50 75<147.743 302.85 393 559.75> 333 75<446.425 558.427> 425 75<147.446 302.281>
LayerCount: 2
Fore
SplineSet
50 498 m 2
 50 498 50 498 50 499 c 0
 50 526 57 554 70 579 c 0
 83 604 103 626 126 643 c 0
 150 659 177 670 205 673 c 0
 213 674 222 675 230 675 c 0
 250 675 271 671 290 664 c 0
 317 655 341 638 360 617 c 0
 380 596 394 571 401 543 c 0
 405 528 408 512 408 496 c 0
 408 483 406 471 403 458 c 0
 400 444 396 431 390 419 c 1
 456 379 500 307 500 225 c 0
 500 101 399 0 275 0 c 0
 151 0 50 101 50 225 c 2
 50 498 l 2
125 498 m 0
 125 393 l 1
 165 428 217 450 275 450 c 0
 290 450 305 448 319 446 c 1
 324 455 328 464 330 474 c 0
 332 481 333 488 333 495 c 0
 333 505 331 514 329 523 c 0
 325 539 316 554 305 567 c 0
 294 579 280 588 264 594 c 0
 252 598 240 600 228 600 c 0
 224 600 219 600 215 599 c 0
 199 597 183 591 169 581 c 0
 156 572 144 559 137 544 c 0
 129 530 125 514 125 498 c 0
125 225 m 0
 125 142 192 75 275 75 c 0
 358 75 425 142 425 225 c 0
 425 308 358 375 275 375 c 0
 192 375 125 308 125 225 c 0
EndSplineSet
Validated: 8388613
EndChar

StartChar: C
Encoding: 67 67 3
Width: 540
Flags: W
HStem: -0 75<196.995 352.202> 600 75<196.995 352.202>
VStem: 50 75<148.938 526.062> 417 74<136.264 201.255 473.745 538.736>
LayerCount: 2
Fore
SplineSet
50 451 m 1
 50 504 69 556 104 596 c 0
 139 637 187 664 240 672 c 0
 252 674 264 675 276 675 c 0
 317 675 358 664 393 642 c 0
 438 614 472 571 489 520 c 0
 490 516 491 512 491 508 c 0
 491 487 474 470 453 470 c 0
 436 470 422 481 417 497 c 0
 406 531 384 559 353 578 c 0
 330 593 303 600 277 600 c 0
 268 600 260 599 252 598 c 0
 216 593 184 575 161 547 c 0
 138 521 125 487 125 451 c 2
 125 224 l 2
 125 188 138 154 161 128 c 0
 184 100 216 82 252 77 c 0
 260 76 268 75 277 75 c 0
 303 75 330 82 353 97 c 0
 384 116 406 144 417 178 c 0
 422 194 436 205 453 205 c 0
 474 205 491 188 491 167 c 0
 491 163 490 159 489 155 c 0
 472 104 438 61 393 33 c 0
 358 11 317 -0 276 -0 c 0
 264 -0 252 1 240 3 c 0
 187 11 139 38 104 79 c 0
 69 119 50 171 50 224 c 1
 50 451 l 1
EndSplineSet
Validated: 5
EndChar

StartChar: f
Encoding: 102 102 4
Width: 412
Flags: W
HStem: 0 21G<127.145 147.855> 0 21G<127.145 147.855> 375 75<53.6979 100.001 175 221.302> 600 75<247.922 358.802>
VStem: 100 75<3.69786 375 450 527.078>
LayerCount: 2
Fore
SplineSet
100.000976562 450 m 1xb8
 100.000976562 479.546875 105.8203125 508.8046875 117.126953125 536.103515625 c 0
 128.43359375 563.40234375 145.0078125 588.206054688 165.901367188 609.098632812 c 0
 186.793945312 629.9921875 211.59765625 646.565429688 238.896484375 657.873046875 c 0
 266.1953125 669.1796875 295.453125 675 325 675 c 0
 345.7109375 675 362.5 658.2109375 362.5 637.5 c 0
 362.5 616.7890625 345.7109375 600 325 600 c 0
 315.285916921 600 293.231427594 599.207857882 267.594726562 588.588867188 c 0
 249.39453125 581.049804688 232.858398438 570.000976562 218.928710938 556.071289062 c 0
 204.999023438 542.141601562 193.950195312 525.60546875 186.411132812 507.405273438 c 0
 178.873046875 489.205078125 174.9921875 469.69921875 174.9921875 450 c 1
 175 450 187.5 450 187.5 450 c 2
 208.2109375 450 225 433.209960938 225 412.5 c 0
 225 391.7890625 208.2109375 375 187.5 375 c 2
 175 375 l 1
 175 37.5 l 2
 175 16.7890625 158.2109375 0 137.5 0 c 0
 116.7890625 0 100 16.7890625 100 37.5 c 2
 100.000976562 375 l 1
 87.5 375 l 2
 66.7890625 375 50 391.7890625 50 412.5 c 0
 50 433.209960938 66.7890625 450 87.5 450 c 2
 100.000976562 450 l 1xb8
EndSplineSet
Validated: 8912897
EndChar

StartChar: D
Encoding: 68 68 5
Width: 550
Flags: W
HStem: 0 75<125 266.601> 600 75<125 266.601>
VStem: 50 75<75 600> 424.987 75.0127<233.115 441.885>
LayerCount: 2
Fore
SplineSet
87.5 675 m 2
 162.5 675 l 1
 163.75 674.998046875 l 2
 207.646484375 674.834960938 251.092773438 666.110351562 291.65625 649.309570312 c 0
 332.602539062 632.348632812 369.809570312 607.48828125 401.147460938 576.1484375 c 0
 432.487304688 544.80859375 457.346679688 507.602539062 474.309570312 466.65625 c 0
 491.26953125 425.708007812 500 381.8203125 500 337.5 c 0
 500 293.1796875 491.26953125 249.291992188 474.309570312 208.344726562 c 0
 457.346679688 167.397460938 432.487304688 130.190429688 401.147460938 98.8525390625 c 0
 369.806640625 67.5126953125 332.602539062 42.6533203125 291.65625 25.6904296875 c 0
 251.092773438 8.888671875 207.646484375 0.1630859375 163.75 0 c 2
 87.5 0 l 2
 66.7890625 0 50 16.7900390625 50 37.5 c 2
 50 637.5 l 2
 50 658.2109375 66.7890625 675 87.5 675 c 2
262.950195312 580.0078125 m 0
 231.103515625 593.19921875 196.970703125 599.989257812 162.5 599.989257812 c 1
 162.5 600 l 1
 125 600 l 1
 125 75 l 1
 162.5 75 l 1
 162.5 75.0126953125 l 1
 196.970703125 75.0126953125 231.103515625 81.7998046875 262.950195312 94.9931640625 c 0
 294.795898438 108.182617188 323.732421875 127.517578125 348.107421875 151.892578125 c 0
 372.482421875 176.267578125 391.817382812 205.202148438 405.006835938 237.049804688 c 0
 418.200195312 268.8984375 424.987304688 303.030273438 424.987304688 337.5 c 0
 424.987304688 371.969726562 418.200195312 406.102539062 405.006835938 437.950195312 c 0
 391.817382812 469.796875 372.482421875 498.733398438 348.107421875 523.107421875 c 0
 323.732421875 547.482421875 294.796875 566.817382812 262.950195312 580.0078125 c 0
EndSplineSet
Validated: 524289
EndChar

StartChar: E
Encoding: 69 69 6
Width: 534
Flags: W
HStem: 0.105469 74.9561<197.368 352.625> 372.263 74.6348<193.863 340.782>
LayerCount: 2
Fore
SplineSet
424.260742188 600.751953125 m 2
 424.303710938 600.694335938 l 2
 428.921875 594.4609375 431.654296875 586.74609375 431.654296875 578.391601562 c 0
 431.654296875 557.681640625 414.864257812 540.891601562 394.154296875 540.891601562 c 0
 381.752929688 540.891601562 370.7578125 546.911132812 363.931640625 556.186523438 c 0
 345.926757812 579.54296875 319.459960938 594.908203125 290.221679688 598.946289062 c 0
 260.665039062 603.029296875 230.696289062 595.202148438 206.909179688 577.189453125 c 0
 183.122070312 559.174804688 167.46484375 532.450195312 163.381835938 502.892578125 c 0
 159.794921875 476.923828125 165.401367188 450.637695312 179.03125 428.505859375 c 1
 182.712890625 430.2421875 186.447265625 431.880859375 190.23046875 433.419921875 c 0
 228.87109375 449.135742188 271.112304688 453.797851562 312.237304688 446.897460938 c 0
 330.458984375 444.340820312 344.479492188 428.689453125 344.479492188 409.76171875 c 0
 344.479492188 389.051757812 327.69140625 372.262695312 306.979492188 372.262695312 c 0
 304.62890625 372.262695312 302.328125 372.478515625 300.095703125 372.892578125 c 0
 272.592773438 377.559570312 244.330078125 374.465820312 218.484375 363.954101562 c 0
 192.509765625 353.388671875 170.015625 335.755859375 153.555664062 313.053710938 c 0
 137.095703125 290.352539062 127.329101562 263.4921875 125.362304688 235.51953125 c 0
 123.395507812 207.548828125 129.30859375 179.5859375 142.4296875 154.803710938 c 0
 155.551757812 130.0234375 175.356445312 109.416015625 199.59765625 95.3212890625 c 0
 223.838867188 81.2255859375 251.544921875 74.2080078125 279.573242188 75.0615234375 c 0
 307.599609375 75.9169921875 334.827148438 84.6103515625 358.1640625 100.15625 c 0
 381.483398438 115.690429688 399.984375 137.443359375 411.573242188 162.951171875 c 0
 417.309570312 176.30859375 430.584960938 185.6640625 446.044921875 185.6640625 c 0
 466.755859375 185.6640625 483.544921875 168.875 483.544921875 148.1640625 c 0
 483.544921875 142.225585938 482.165039062 136.610351562 479.708007812 131.620117188 c 0
 462.31640625 93.494140625 434.62109375 60.978515625 399.740234375 37.744140625 c 0
 364.737304688 14.42578125 323.897460938 1.38671875 281.858398438 0.10546875 c 0
 239.819335938 -1.1767578125 198.260742188 9.349609375 161.90234375 30.4912109375 c 0
 125.541992188 51.6328125 95.8369140625 82.5419921875 76.1552734375 119.711914062 c 0
 56.4736328125 156.881835938 47.6044921875 198.82421875 50.5546875 240.780273438 c 0
 53.50390625 282.736328125 68.1552734375 323.024414062 92.84375 357.075195312 c 0
 100.256835938 367.298828125 108.486328125 376.837890625 117.427734375 385.611328125 c 1
 93.0791015625 423.221679688 82.9208984375 468.469726562 89.091796875 513.154296875 c 0
 95.896484375 562.4140625 121.990234375 606.954101562 161.633789062 636.975585938 c 0
 201.27734375 666.997070312 251.22265625 680.040039062 300.483398438 673.236328125 c 0
 349.44140625 666.473632812 393.736328125 640.657226562 423.75 601.422851562 c 0
 423.922851562 601.201171875 424.092773438 600.977539062 424.260742188 600.751953125 c 2
EndSplineSet
Validated: 524321
EndChar

StartChar: F
Encoding: 70 70 7
Width: 506
Flags: W
HStem: 0 21G<77.1445 97.8555> 0 21G<77.1445 97.8555> 368.579 73.9893<187.406 357.466>
VStem: 50.001 74.999<3.69786 302.994 392.705 527.785>
LayerCount: 2
Fore
SplineSet
90.8974609375 579.346679688 m 0xb0
 117.51171875 617.228515625 155.1640625 645.978515625 198.71875 661.673828125 c 0
 242.2734375 677.370117188 289.609375 679.249023438 334.271484375 667.053710938 c 0
 378.931640625 654.858398438 418.744140625 629.182617188 448.27734375 593.529296875 c 1
 448.26953125 593.5234375 l 1
 453.526367188 587.069335938 456.676757812 578.83203125 456.676757812 569.859375 c 0
 456.676757812 549.149414062 439.887695312 532.359375 419.176757812 532.359375 c 0
 407.125 532.359375 396.401367188 538.044921875 389.541015625 546.879882812 c 0
 369.954101562 570.037109375 343.798828125 586.72265625 314.517578125 594.717773438 c 0
 284.741210938 602.849609375 253.1796875 601.596679688 224.140625 591.131835938 c 0
 195.100585938 580.666992188 169.997070312 561.498046875 152.251953125 536.241210938 c 0
 134.505859375 510.984375 124.984375 480.868164062 124.984375 450 c 1
 125 450 l 1
 125 392.705078125 l 1
 146.40625 411.850585938 171.401367188 426.830078125 198.717773438 436.673828125 c 0
 241.649414062 452.146484375 288.255859375 454.192382812 332.352539062 442.568359375 c 0
 348.874023438 438.6484375 361.1640625 423.798828125 361.1640625 406.079101562 c 0
 361.1640625 385.369140625 344.375 368.579101562 323.6640625 368.579101562 c 0
 319.892578125 368.579101562 316.250976562 369.135742188 312.817382812 370.171875 c 0
 283.541015625 377.798828125 252.626953125 376.3984375 224.138671875 366.131835938 c 0
 195.099609375 355.666992188 169.995117188 336.498046875 152.25 311.241210938 c 0
 134.934570312 286.596679688 125.450195312 257.326171875 125 227.245117188 c 2
 125 37.5 l 2
 125 16.7890625 108.2109375 0 87.5 0 c 0
 66.7890625 0 50 16.7890625 50 37.5 c 2
 50 225 l 1
 50.0009765625 225.5 l 1
 50.0009765625 450 l 2
 50.0009765625 496.295898438 64.2822265625 541.465820312 90.8974609375 579.346679688 c 0xb0
EndSplineSet
Validated: 8912929
EndChar

StartChar: G
Encoding: 71 71 8
Width: 550
Flags: W
HStem: 0 74.999<197.986 352.014> 320 75<261.198 405.595>
VStem: 50 75<148.85 526.149> 425 75<147.775 301.902>
LayerCount: 2
Fore
SplineSet
50.0029296875 451.25 m 1
 50.2978515625 504.377929688 69.38671875 555.705078125 103.909179688 596.125 c 0
 138.702148438 636.862304688 186.888671875 663.848632812 239.801757812 672.229492188 c 0
 292.715820312 680.610351562 346.8828125 669.8359375 392.561523438 641.84375 c 0
 438.034179688 613.977539062 472.123046875 570.87109375 488.76171875 520.21875 c 0
 490.172851562 516.2734375 490.94140625 512.021484375 490.94140625 507.58984375 c 0
 490.94140625 486.87890625 474.15234375 470.08984375 453.44140625 470.08984375 c 0
 436.447265625 470.08984375 422.092773438 481.39453125 417.489257812 496.893554688 c 0
 406.385742188 530.629882812 383.670898438 559.338867188 353.377929688 577.90234375 c 0
 322.924804688 596.564453125 286.810546875 603.748046875 251.534179688 598.16015625 c 0
 216.255859375 592.573242188 184.129882812 574.581054688 160.932617188 547.421875 c 0
 138.006835938 520.579101562 125.291015625 486.522460938 124.998046875 451.25 c 2
 125 223.75 l 2
 125.293945312 188.477539062 138.006835938 154.420898438 160.932617188 127.578125 c 0
 163.493164062 124.58203125 166.16015625 121.697265625 168.928710938 118.927734375 c 1
 168.93359375 118.932617188 l 1
 197.064453125 90.802734375 235.216796875 74.9990234375 275 74.9990234375 c 0
 314.783203125 74.9990234375 352.935546875 90.802734375 381.06640625 118.93359375 c 0
 409.197265625 147.064453125 425 185.216796875 425 225 c 0
 425 259.782226562 412.919921875 293.318359375 391.083007812 320 c 1
 295 320 l 2
 274.2890625 320 257.5 336.7890625 257.5 357.5 c 0
 257.5 378.2109375 274.2890625 395 295 395 c 0
 295.036132812 395 295.072265625 395 295.108398438 395 c 2
 407.5 395 l 2
 407.684570312 395 407.87109375 394.998046875 408.0546875 394.99609375 c 0
 408.176757812 394.994140625 408.297851562 394.9921875 408.418945312 394.989257812 c 0
 418.431640625 394.791992188 427.485351562 390.670898438 434.098632812 384.098632812 c 0
 476.293945312 341.903320312 499.999023438 284.673828125 500 225 c 0
 500 201.166992188 496.217773438 177.72265625 488.987304688 155.471679688 c 0
 477.938476562 121.465820312 459.032226562 90.8359375 434.098632812 65.9013671875 c 0
 433.653320312 65.455078125 433.205078125 65.0107421875 432.754882812 64.5693359375 c 0
 432.44921875 64.2666015625 432.140625 63.966796875 431.833007812 63.6669921875 c 0
 419.989257812 52.1533203125 406.836914062 41.904296875 392.561523438 33.15625 c 0
 356.990234375 11.3583984375 316.267578125 0.0009765625 275 0 c 2
 274.60546875 0 l 2
 263.01171875 0.021484375 251.376953125 0.9365234375 239.801757812 2.771484375 c 0
 192.7265625 10.2265625 149.390625 32.41015625 115.901367188 65.900390625 c 0
 111.748046875 70.0537109375 107.747070312 74.3798828125 103.909179688 78.875 c 0
 69.38671875 119.294921875 50.298828125 170.62109375 50.0029296875 223.75 c 1
 50 223.75 l 1
 50 451.25 l 1
 50.0029296875 451.25 l 1
EndSplineSet
Validated: 8912929
EndChar

StartChar: H
Encoding: 72 72 9
Width: 550
Flags: W
HStem: 0 21G<150.415 165.414 384.566 399.38> 0 21G<150.415 165.414 384.566 399.38> 331.639 74.9883<197.454 351.254> 655 20G<77.1445 97.8555 452.145 472.855>
VStem: 50 75<104.398 258.72 349.332 671.302> 425 75<104.52 259.542 349.332 671.302>
LayerCount: 2
Fore
SplineSet
87.5 675 m 0xbc
 108.2109375 675 125 658.209960938 125 637.499023438 c 2
 125 349.33203125 l 1
 131.637695312 355.268554688 138.6484375 360.829101562 145.999023438 365.97265625 c 0
 183.911132812 392.502929688 229.081054688 406.69921875 275.352539062 406.626953125 c 0
 321.625976562 406.553710938 366.75 392.215820312 404.579101562 365.567382812 c 0
 411.719726562 360.536132812 418.536132812 355.11328125 425 349.33203125 c 1
 425 637.499023438 l 2
 425 658.209960938 441.7890625 675 462.5 675 c 0
 483.2109375 675 500 658.209960938 500 637.499023438 c 2
 500 181.841796875 l 2
 500.018554688 161.813476562 497.365234375 141.756835938 492.015625 122.21484375 c 0
 479.797851562 77.583984375 454.1171875 37.8046875 418.47265625 8.298828125 c 1
 418.463867188 8.30859375 l 1
 412.028320312 3.1123046875 403.837890625 0 394.921875 0 c 0
 374.2109375 0 357.421875 16.7890625 357.421875 37.5009765625 c 0
 357.421875 49.5380859375 363.092773438 60.2509765625 371.91015625 67.11328125 c 0
 395.024414062 86.673828125 411.688476562 112.783203125 419.690429688 142.014648438 c 0
 423.244140625 154.99609375 425.012695312 168.318359375 425.012695312 181.624023438 c 1
 425 181.624023438 l 1
 425 183.626953125 l 2
 424.779296875 200.149414062 421.829101562 216.618164062 416.176757812 232.349609375 c 0
 405.745117188 261.383789062 386.615234375 286.49609375 361.393554688 304.263671875 c 0
 336.171875 322.03125 306.086914062 331.590820312 275.236328125 331.638671875 c 0
 244.383789062 331.686523438 214.268554688 322.22265625 188.9921875 304.534179688 c 0
 163.71484375 286.845703125 144.505859375 261.793945312 133.983398438 232.79296875 c 0
 128.2265625 216.928710938 125.22265625 200.3046875 125 183.625 c 2
 125 181.624023438 l 1
 124.987304688 181.624023438 l 1
 124.987304688 168.474609375 126.71484375 155.30859375 130.185546875 142.46875 c 0
 138.16796875 112.950195312 154.9765625 86.5810546875 178.353515625 66.888671875 c 0
 187.008789062 60.01953125 192.55859375 49.408203125 192.55859375 37.5009765625 c 0
 192.55859375 16.7890625 175.768554688 0 155.05859375 0 c 0
 145.771484375 0 137.272460938 3.3759765625 130.721679688 8.96875 c 0
 95.306640625 38.564453125 69.8466796875 78.3369140625 57.798828125 122.897460938 c 0
 52.5927734375 142.155273438 50 161.90234375 50 181.624023438 c 2
 50 637.499023438 l 2
 50 658.209960938 66.7890625 675 87.5 675 c 0xbc
EndSplineSet
Validated: 524321
EndChar

StartChar: I
Encoding: 73 73 10
Width: 441
Flags: W
HStem: 0 21G<205.97 235.518> 0 21G<205.97 235.518> 655 20G<205.97 235.518>
VStem: 183.244 75<79.752 595.248>
LayerCount: 2
Fore
SplineSet
258.244140625 595.248046875 m 1xb0
 258.244140625 79.751953125 l 1
 265.01171875 81.4990234375 271.6640625 83.720703125 278.150390625 86.408203125 c 0
 296.349609375 93.947265625 312.887695312 104.997070312 326.817382812 118.92578125 c 1
 326.8203125 118.923828125 l 1
 333.651367188 126.098632812 343.294921875 130.572265625 353.984375 130.572265625 c 0
 374.6953125 130.572265625 391.484375 113.782226562 391.484375 93.072265625 c 0
 391.484375 82.3828125 387.01171875 72.73828125 379.8359375 65.9072265625 c 1
 379.842773438 65.9013671875 l 1
 358.950195312 45.0078125 334.146484375 28.43359375 306.846679688 17.126953125 c 0
 279.548828125 5.8203125 250.291015625 0 220.744140625 0 c 0
 191.196289062 0 161.938476562 5.8203125 134.639648438 17.126953125 c 0
 107.341796875 28.43359375 82.5380859375 45.0078125 61.64453125 65.9013671875 c 1
 61.6494140625 65.90625 l 1
 54.47265625 72.7373046875 50 82.3818359375 50 93.072265625 c 0
 50 113.782226562 66.7890625 130.572265625 87.5 130.572265625 c 0
 98.1904296875 130.572265625 107.834960938 126.098632812 114.666015625 118.922851562 c 1
 114.669921875 118.92578125 l 1
 128.599609375 104.997070312 145.13671875 93.947265625 163.336914062 86.408203125 c 0
 169.823242188 83.720703125 176.475585938 81.4990234375 183.244140625 79.751953125 c 1
 183.244140625 595.248046875 l 1
 176.475585938 593.500976562 169.823242188 591.279296875 163.336914062 588.591796875 c 0
 145.13671875 581.052734375 128.599609375 570.00390625 114.669921875 556.07421875 c 1
 114.666015625 556.077148438 l 1
 107.834960938 548.901367188 98.1904296875 544.427734375 87.5 544.427734375 c 0
 66.7890625 544.427734375 50 561.217773438 50 581.927734375 c 0
 50 592.618164062 54.47265625 602.262695312 61.6494140625 609.09375 c 1
 61.64453125 609.098632812 l 1
 82.5380859375 629.9921875 107.341796875 646.565429688 134.639648438 657.873046875 c 0
 161.938476562 669.180664062 191.196289062 675 220.744140625 675 c 0
 250.291015625 675 279.548828125 669.180664062 306.846679688 657.873046875 c 0
 334.146484375 646.565429688 358.950195312 629.9921875 379.842773438 609.098632812 c 1
 379.8359375 609.092773438 l 1
 387.01171875 602.26171875 391.484375 592.6171875 391.484375 581.927734375 c 0
 391.484375 561.217773438 374.6953125 544.427734375 353.984375 544.427734375 c 0
 343.294921875 544.427734375 333.651367188 548.901367188 326.8203125 556.076171875 c 1
 326.817382812 556.07421875 l 1
 312.887695312 570.00390625 296.349609375 581.052734375 278.150390625 588.591796875 c 0
 271.6640625 591.279296875 265.01171875 593.500976562 258.244140625 595.248046875 c 1xb0
EndSplineSet
Validated: 8912897
EndChar

StartChar: J
Encoding: 74 74 11
Width: 550
Flags: W
HStem: 0 74.9863<197.501 352.498> 655 20G<452.145 472.855>
VStem: 50 75<147.922 258.802> 425.016 74.9834<147.922 671.302>
LayerCount: 2
Fore
SplineSet
462.5 675 m 0
 483.209960938 675 500 658.2109375 500 637.5 c 2
 499.999023438 225 l 2
 499.999023438 195.453125 494.1796875 166.194335938 482.873046875 138.896484375 c 0
 471.565429688 111.59765625 454.9921875 86.7939453125 434.098632812 65.9013671875 c 0
 413.206054688 45.0078125 388.40234375 28.43359375 361.102539062 17.126953125 c 0
 333.8046875 5.8203125 304.546875 0 275 0 c 0
 245.452148438 0 216.194335938 5.8203125 188.896484375 17.126953125 c 0
 161.59765625 28.43359375 136.793945312 45.0078125 115.901367188 65.9013671875 c 0
 95.0078125 86.7939453125 78.4345703125 111.59765625 67.126953125 138.896484375 c 0
 55.8193359375 166.194335938 50 195.453125 50 225 c 0
 50 245.7109375 66.7890625 262.5 87.5 262.5 c 0
 108.2109375 262.5 125 245.7109375 125 225 c 0
 125 224.694335938 124.99609375 224.388671875 124.989257812 224.084960938 c 0
 125.107421875 204.696289062 128.983398438 185.510742188 136.405273438 167.591796875 c 0
 143.944335938 149.391601562 154.994140625 132.853515625 168.923828125 118.923828125 c 0
 182.853515625 104.994140625 199.391601562 93.9443359375 217.591796875 86.4052734375 c 0
 235.79296875 78.8662109375 255.299804688 74.986328125 275 74.986328125 c 0
 294.700195312 74.986328125 314.20703125 78.8662109375 332.408203125 86.4052734375 c 0
 350.608398438 93.9443359375 367.146484375 104.994140625 381.076171875 118.923828125 c 0
 395.005859375 132.853515625 406.055664062 149.391601562 413.594726562 167.591796875 c 0
 421.1328125 185.79296875 425.015625 205.299804688 425.015625 225 c 2
 425 637.5 l 2
 425 658.2109375 441.7890625 675 462.5 675 c 0
EndSplineSet
Validated: 524289
EndChar

StartChar: a
Encoding: 97 97 13
Width: 550
Flags: W
HStem: 0 75<197.429 352.345> 0 21G<452.145 472.855> 375 75<197.429 352.571>
VStem: 50 75<147.429 302.571> 425 75<3.69786 57.292 147.22 302.362>
LayerCount: 2
Fore
SplineSet
425 57.2919921875 m 1x78
 385.193359375 21.6640625 332.626953125 0 275 0 c 0xb8
 150.736328125 0 50 100.736328125 50 225 c 0
 50 349.263671875 150.736328125 450 275 450 c 0
 399.263671875 450 500 349.263671875 500 225 c 2
 500 37.5 l 2
 500 16.7890625 483.2109375 0 462.5 0 c 0
 441.7890625 0 425 16.7890625 425 37.5 c 2
 425 57.2919921875 l 1x78
425 225 m 0
 425 307.842773438 357.842773438 375 275 375 c 0
 192.157226562 375 125 307.842773438 125 225 c 0
 125 142.157226562 192.157226562 75 275 75 c 0
 357.842773438 75 425 142.157226562 425 225 c 0
EndSplineSet
Validated: 8912897
EndChar

StartChar: b
Encoding: 98 98 14
Width: 550
Flags: W
HStem: 0 75<197.429 352.571> 375 75<197.655 352.571> 655 20G<77.1445 97.8555>
VStem: 50 75<147.638 302.78 392.708 671.302> 425 75<147.429 302.571>
LayerCount: 2
Fore
SplineSet
125 637.5 m 2
 125 392.708007812 l 1
 164.806640625 428.3359375 217.373046875 450 275 450 c 0
 399.263671875 450 500 349.263671875 500 225 c 0
 500 100.736328125 399.263671875 0 275 0 c 0
 150.736328125 0 50 100.736328125 50 225 c 2
 50 637.5 l 2
 50 658.2109375 66.7890625 675 87.5 675 c 0
 108.2109375 675 125 658.2109375 125 637.5 c 2
275 75 m 0
 357.842773438 75 425 142.157226562 425 225 c 0
 425 307.842773438 357.842773438 375 275 375 c 0
 192.157226562 375 125 307.842773438 125 225 c 0
 125 142.157226562 192.157226562 75 275 75 c 0
EndSplineSet
Validated: 524289
EndChar

StartChar: c
Encoding: 99 99 15
Width: 507
Flags: W
VStem: 50 74.9873<147.454 301.254>
LayerCount: 2
Fore
SplineSet
447.655273438 80.724609375 m 0
 418.059570312 45.3076171875 378.286132812 19.8466796875 333.725585938 7.798828125 c 0
 289.056640625 -4.2783203125 241.750976562 -2.2900390625 198.25390625 13.4931640625 c 0
 154.755859375 29.27734375 117.182617188 58.0869140625 90.6533203125 95.9990234375 c 0
 64.123046875 133.911132812 49.927734375 179.081054688 50 225.352539062 c 0
 50.0732421875 271.625976562 64.41015625 316.75 91.05859375 354.579101562 c 0
 117.708007812 392.407226562 155.37109375 421.099609375 198.91796875 436.74609375 c 0
 242.46484375 452.392578125 289.77734375 454.233398438 334.408203125 442.014648438 c 0
 379.038085938 429.797851562 418.81640625 404.1171875 448.322265625 368.471679688 c 1
 448.311523438 368.463867188 l 1
 453.508789062 362.028320312 456.62109375 353.837890625 456.62109375 344.921875 c 0
 456.62109375 324.2109375 439.83203125 307.421875 419.12109375 307.421875 c 0
 407.084960938 307.421875 396.373046875 313.091796875 389.510742188 321.908203125 c 0
 369.950195312 345.0234375 343.83984375 361.688476562 314.609375 369.690429688 c 0
 284.8515625 377.834960938 253.307617188 376.609375 224.274414062 366.176757812 c 0
 195.241210938 355.745117188 170.12890625 336.615234375 152.362304688 311.393554688 c 0
 134.59375 286.171875 125.03515625 256.0859375 124.987304688 225.235351562 c 0
 124.938476562 194.383789062 134.403320312 164.268554688 152.090820312 138.9921875 c 0
 169.779296875 113.71484375 194.830078125 94.505859375 223.831054688 83.9833984375 c 0
 252.83203125 73.4599609375 284.372070312 72.1337890625 314.154296875 80.185546875 c 0
 343.672851562 88.1669921875 370.041015625 104.9765625 389.733398438 128.353515625 c 0
 396.6015625 137.0078125 407.212890625 142.557617188 419.12109375 142.557617188 c 0
 439.83203125 142.557617188 456.62109375 125.768554688 456.62109375 105.057617188 c 0
 456.62109375 95.7724609375 453.24609375 87.275390625 447.655273438 80.724609375 c 0
EndSplineSet
Validated: 524321
EndChar

StartChar: d
Encoding: 100 100 16
Width: 550
Flags: W
HStem: 0 75<197.429 352.571> 375 75<197.429 352.345> 655 20G<452.145 472.855>
VStem: 50 75<147.429 302.571> 425 75<147.638 302.78 392.708 671.302>
LayerCount: 2
Fore
SplineSet
425 637.5 m 2
 425 658.2109375 441.7890625 675 462.5 675 c 0
 483.2109375 675 500 658.2109375 500 637.5 c 2
 500 225 l 2
 500 100.736328125 399.263671875 0 275 0 c 0
 150.736328125 0 50 100.736328125 50 225 c 0
 50 349.263671875 150.736328125 450 275 450 c 0
 332.626953125 450 385.193359375 428.3359375 425 392.708007812 c 1
 425 637.5 l 2
275 375 m 0
 192.157226562 375 125 307.842773438 125 225 c 0
 125 142.157226562 192.157226562 75 275 75 c 0
 357.842773438 75 425 142.157226562 425 225 c 0
 425 307.842773438 357.842773438 375 275 375 c 0
EndSplineSet
Validated: 524289
EndChar

StartChar: e
Encoding: 101 101 17
Width: 506
Flags: W
VStem: 50 74.9873<195.209 301.254>
LayerCount: 2
Fore
SplineSet
447.649414062 80.7177734375 m 0
 418.053710938 45.3046875 378.283203125 19.845703125 333.725585938 7.798828125 c 0
 289.056640625 -4.2783203125 241.750976562 -2.2900390625 198.25390625 13.4931640625 c 0
 154.755859375 29.27734375 117.182617188 58.0869140625 90.6533203125 95.9990234375 c 0
 64.123046875 133.911132812 49.927734375 179.081054688 50 225.352539062 c 0
 50.0732421875 271.625976562 64.41015625 316.75 91.0595703125 354.579101562 c 0
 117.708007812 392.407226562 155.37109375 421.099609375 198.91796875 436.74609375 c 0
 242.46484375 452.392578125 289.77734375 454.233398438 334.408203125 442.014648438 c 0
 379.038085938 429.797851562 418.81640625 404.1171875 448.322265625 368.471679688 c 1
 448.311523438 368.463867188 l 1
 453.508789062 362.028320312 456.62109375 353.837890625 456.62109375 344.921875 c 0
 456.62109375 332.192382812 450.279296875 320.943359375 440.581054688 314.1640625 c 2
 440.537109375 314.134765625 l 2
 440.23046875 313.920898438 439.920898438 313.711914062 439.607421875 313.506835938 c 2
 162.112304688 126.205078125 l 1
 178.733398438 107.212890625 199.942382812 92.6513671875 223.831054688 83.9833984375 c 0
 252.83203125 73.4599609375 284.372070312 72.1337890625 314.154296875 80.185546875 c 0
 343.672851562 88.1669921875 370.041015625 104.9765625 389.732421875 128.353515625 c 0
 396.6015625 137.0078125 407.212890625 142.557617188 419.12109375 142.557617188 c 0
 439.83203125 142.557617188 456.62109375 125.768554688 456.62109375 105.057617188 c 0
 456.62109375 95.7685546875 453.243164062 87.2685546875 447.649414062 80.7177734375 c 0
124.987304688 225.235351562 m 0
 124.969726562 214.627929688 126.078125 204.108398438 128.2578125 193.840820312 c 1
 358.78125 349.436523438 l 1
 345.333007812 358.491210938 330.427734375 365.359375 314.609375 369.690429688 c 0
 284.8515625 377.834960938 253.307617188 376.609375 224.274414062 366.176757812 c 0
 195.241210938 355.745117188 170.12890625 336.615234375 152.362304688 311.392578125 c 0
 134.59375 286.171875 125.03515625 256.0859375 124.987304688 225.235351562 c 0
EndSplineSet
Validated: 524321
EndChar

StartChar: h
Encoding: 104 104 18
Width: 550
Flags: W
HStem: 375.013 74.9873<197.454 351.254> 655 20G<77.1445 97.8555>
VStem: 50 75<147.775 302.096 392.706 671.302>
LayerCount: 2
Fore
SplineSet
87.5 675 m 0
 108.2109375 675 125 658.2109375 125 637.5 c 2
 125 392.706054688 l 1
 131.637695312 398.642578125 138.6484375 404.203125 145.999023438 409.346679688 c 0
 183.911132812 435.876953125 229.081054688 450.072265625 275.352539062 450 c 0
 321.625976562 449.926757812 366.75 435.58984375 404.579101562 408.94140625 c 0
 442.407226562 382.291992188 471.099609375 344.62890625 486.74609375 301.08203125 c 0
 502.392578125 257.53515625 504.233398438 210.22265625 492.015625 165.591796875 c 0
 479.797851562 120.961914062 454.1171875 81.18359375 418.47265625 51.677734375 c 1
 418.463867188 51.6884765625 l 1
 412.028320312 46.4912109375 403.837890625 43.37890625 394.921875 43.37890625 c 0
 374.2109375 43.37890625 357.421875 60.16796875 357.421875 80.87890625 c 0
 357.421875 92.916015625 363.092773438 103.62890625 371.91015625 110.491210938 c 0
 395.024414062 130.051757812 411.688476562 156.161132812 419.690429688 185.391601562 c 0
 427.8359375 215.1484375 426.609375 246.692382812 416.176757812 275.725585938 c 0
 405.745117188 304.759765625 386.615234375 329.87109375 361.393554688 347.637695312 c 0
 336.171875 365.40625 306.086914062 374.96484375 275.236328125 375.012695312 c 0
 244.383789062 375.061523438 214.268554688 365.596679688 188.9921875 347.909179688 c 0
 163.71484375 330.220703125 144.505859375 305.169921875 133.983398438 276.168945312 c 0
 128.2265625 260.3046875 125.22265625 243.680664062 125 227.000976562 c 2
 125 225 l 1
 124.987304688 225 l 1
 124.987304688 211.8515625 126.71484375 198.684570312 130.185546875 185.845703125 c 0
 138.16796875 156.327148438 154.977539062 129.958007812 178.35546875 110.266601562 c 0
 187.008789062 103.397460938 192.55859375 92.7861328125 192.55859375 80.87890625 c 0
 192.55859375 60.16796875 175.768554688 43.37890625 155.05859375 43.37890625 c 0
 145.76953125 43.37890625 137.26953125 46.755859375 130.719726562 52.349609375 c 0
 95.3056640625 81.9453125 69.8466796875 121.715820312 57.798828125 166.274414062 c 0
 52.5927734375 185.532226562 50 205.279296875 50 225 c 2
 50 637.5 l 2
 50 658.2109375 66.7890625 675 87.5 675 c 0
EndSplineSet
Validated: 524321
EndChar

StartChar: i
Encoding: 105 105 19
Width: 441
Flags: W
HStem: 0 21G<205.97 235.518> 0 21G<205.97 235.518> 430 20G<210.389 231.099> 525 75<186.942 254.546>
VStem: 183.244 75<79.752 446.302 528.698 596.302>
LayerCount: 2
Fore
SplineSet
258.244140625 562.5 m 0x38
 258.244140625 541.7890625 241.454101562 525 220.744140625 525 c 0
 200.033203125 525 183.244140625 541.7890625 183.244140625 562.5 c 0
 183.244140625 583.209960938 200.033203125 600 220.744140625 600 c 0
 241.454101562 600 258.244140625 583.209960938 258.244140625 562.5 c 0x38
379.842773438 65.9013671875 m 1
 358.950195312 45.0078125 334.146484375 28.43359375 306.846679688 17.126953125 c 0
 279.548828125 5.8203125 250.291015625 0 220.744140625 0 c 0xb8
 191.196289062 0 161.938476562 5.8203125 134.639648438 17.126953125 c 0
 107.341796875 28.43359375 82.5380859375 45.0078125 61.64453125 65.9013671875 c 1
 61.6494140625 65.90625 l 1
 54.47265625 72.736328125 50 82.3818359375 50 93.072265625 c 0
 50 113.782226562 66.7890625 130.572265625 87.5 130.572265625 c 0
 98.1904296875 130.572265625 107.834960938 126.098632812 114.666015625 118.921875 c 1
 114.669921875 118.92578125 l 1
 128.599609375 104.99609375 145.13671875 93.947265625 163.336914062 86.408203125 c 0
 169.823242188 83.720703125 176.475585938 81.4990234375 183.244140625 79.751953125 c 1
 183.244140625 412.5 l 2
 183.244140625 433.209960938 200.033203125 450 220.744140625 450 c 0
 241.454101562 450 258.244140625 433.209960938 258.244140625 412.5 c 2
 258.244140625 79.751953125 l 1
 265.01171875 81.4990234375 271.6640625 83.720703125 278.150390625 86.408203125 c 0
 296.349609375 93.947265625 312.887695312 104.99609375 326.817382812 118.92578125 c 1
 326.8203125 118.923828125 l 1
 333.651367188 126.098632812 343.294921875 130.572265625 353.984375 130.572265625 c 0
 374.6953125 130.572265625 391.484375 113.782226562 391.484375 93.072265625 c 0
 391.484375 82.3818359375 387.01171875 72.73828125 379.8359375 65.9072265625 c 1
 379.842773438 65.9013671875 l 1
EndSplineSet
Validated: 8912897
EndChar

StartChar: j
Encoding: 106 106 20
Width: 362
Flags: W
HStem: -225 75<53.6979 164.578> 430 20G<264.645 285.355> 525 75<241.198 308.802>
VStem: 237.5 75<-77.0783 446.302 528.698 596.302>
LayerCount: 2
Fore
SplineSet
275 525 m 0
 254.290039062 525 237.5 541.7890625 237.5 562.5 c 0
 237.5 583.209960938 254.290039062 600 275 600 c 0
 295.7109375 600 312.5 583.209960938 312.5 562.5 c 0
 312.5 541.7890625 295.7109375 525 275 525 c 0
237.5 412.5 m 2
 237.5 433.2109375 254.290039062 450 275 450 c 0
 295.7109375 450 312.5 433.2109375 312.5 412.5 c 2
 312.499023438 0 l 2
 312.499023438 -29.5478515625 306.6796875 -58.8056640625 295.373046875 -86.103515625 c 0
 284.06640625 -113.40234375 267.4921875 -138.206054688 246.598632812 -159.098632812 c 0
 225.706054688 -179.9921875 200.90234375 -196.56640625 173.603515625 -207.873046875 c 0
 146.305664062 -219.1796875 117.046875 -225 87.5 -225 c 0
 66.7890625 -225 50 -208.2109375 50 -187.5 c 0
 50 -166.790039062 66.7890625 -150 87.5 -150 c 0
 87.8271484375 -150 88.1533203125 -150.00390625 88.478515625 -150.012695312 c 0
 107.845703125 -149.885742188 127.008789062 -146.010742188 144.908203125 -138.596679688 c 0
 163.109375 -131.057617188 179.647460938 -120.0078125 193.577148438 -106.077148438 c 0
 207.506835938 -92.1474609375 218.557617188 -75.609375 226.096679688 -57.4091796875 c 0
 233.634765625 -39.2080078125 237.515625 -19.701171875 237.515625 0 c 2
 237.5 412.5 l 2
EndSplineSet
Validated: 8912897
EndChar

StartChar: k
Encoding: 107 107 21
Width: 550
Flags: W
HStem: 0 21G<77.145 97.855 452.145 472.855> 0 21G<77.145 97.855 452.145 472.855> 398.701 20G<302.145 322.855> 655 20G<77.145 97.855>
VStem: 50 75<3.69786 115.407 231.21 671.302> 274.991 75.0088<304.123 415.003> 424.992 75.0078<3.69786 114.578>
LayerCount: 2
Fore
SplineSet
87.5 675 m 0xbe
 108.209960938 675 125 658.2109375 125 637.5 c 2
 125 231.209960938 l 1
 144.697265625 231.209960938 164.202148438 235.08984375 182.399414062 242.626953125 c 0
 200.596679688 250.165039062 217.131835938 261.212890625 231.059570312 275.140625 c 0
 244.98828125 289.069335938 256.036132812 305.603515625 263.57421875 323.801757812 c 0
 271.111328125 342 274.991210938 361.50390625 274.991210938 381.201171875 c 1
 275 381.201171875 l 1
 275 401.912109375 291.790039062 418.701171875 312.5 418.701171875 c 0
 333.209960938 418.701171875 350 401.912109375 350 381.201171875 c 0
 350 351.654296875 344.1796875 322.396484375 332.873046875 295.096679688 c 0
 327.6640625 282.521484375 321.336914062 270.474609375 313.986328125 259.096679688 c 1
 330.107421875 256.259765625 345.909179688 251.666992188 361.103515625 245.373046875 c 0
 388.40234375 234.065429688 413.206054688 217.4921875 434.098632812 196.598632812 c 0
 454.9921875 175.706054688 471.56640625 150.90234375 482.873046875 123.603515625 c 0
 494.1796875 96.3046875 500 67.046875 500 37.5 c 0
 500 16.7890625 483.209960938 0 462.5 0 c 0
 441.790039062 0 425 16.7890625 425 37.5 c 1
 424.9921875 37.5 l 1
 424.9921875 57.197265625 421.112304688 76.701171875 413.57421875 94.8994140625 c 0
 406.037109375 113.096679688 394.98828125 129.631835938 381.059570312 143.559570312 c 0
 367.1328125 157.48828125 350.59765625 168.537109375 332.399414062 176.07421875 c 0
 314.202148438 183.612304688 294.697265625 187.4921875 275 187.4921875 c 0
 255.302734375 187.4921875 235.797851562 183.612304688 217.600585938 176.07421875 c 0
 199.40234375 168.537109375 182.8671875 157.48828125 168.940429688 143.559570312 c 0
 155.01171875 129.631835938 143.962890625 113.096679688 136.42578125 94.8994140625 c 0
 128.887695312 76.701171875 125.0078125 57.197265625 125.0078125 37.5 c 1
 125 37.5 l 1
 125 16.7890625 108.209960938 0 87.5 0 c 0
 66.7900390625 0 50 16.7890625 50 37.5 c 2
 50 637.5 l 2
 50 658.2109375 66.7900390625 675 87.5 675 c 0xbe
EndSplineSet
Validated: 8912897
EndChar

StartChar: l
Encoding: 108 108 22
Width: 362
Flags: W
HStem: 0 74.9873<199.136 308.802> 655 20G<77.145 97.855>
VStem: 50.001 74.9834<149.136 671.302>
LayerCount: 2
Fore
SplineSet
87.5 675 m 0
 108.209960938 675 125 658.2109375 125 637.5 c 2
 124.984375 225 l 2
 124.984375 185.212890625 140.7890625 147.055664062 168.921875 118.921875 c 0
 196.818359375 91.02734375 234.568359375 75.251953125 273.990234375 74.9873046875 c 0
 274.326171875 74.9951171875 274.662109375 75 275 75 c 0
 295.709960938 75 312.5 58.2109375 312.5 37.5 c 4
 312.5 16.7890625 295.709960938 0 275 0 c 0
 215.327148438 0 158.096679688 23.705078125 115.901367188 65.9013671875 c 0
 73.705078125 108.095703125 50.0009765625 165.326171875 50.0009765625 225 c 2
 50 637.5 l 2
 50 658.2109375 66.7900390625 675 87.5 675 c 0
EndSplineSet
Validated: 524289
EndChar

StartChar: m
Encoding: 109 109 23
Width: 550
Flags: W
VStem: 237.5 75<196.196 370.249>
LayerCount: 2
Fore
SplineSet
57.798828125 166.2734375 m 0
 45.7216796875 210.94140625 47.7099609375 258.247070312 63.494140625 301.745117188 c 0
 79.27734375 345.2421875 108.086914062 382.81640625 145.999023438 409.344726562 c 0
 183.911132812 435.875 229.081054688 450.071289062 275.352539062 449.998046875 c 0
 321.625976562 449.924804688 366.75 435.587890625 404.579101562 408.939453125 c 0
 442.408203125 382.291015625 471.099609375 344.626953125 486.747070312 301.080078125 c 0
 502.392578125 257.533203125 504.233398438 210.220703125 492.014648438 165.590820312 c 0
 479.797851562 120.959960938 454.1171875 81.181640625 418.47265625 51.67578125 c 1
 418.463867188 51.6865234375 l 1
 412.028320312 46.4892578125 403.837890625 43.376953125 394.921875 43.376953125 c 0
 374.2109375 43.376953125 357.421875 60.1669921875 357.421875 80.876953125 c 0
 357.421875 92.912109375 363.090820312 103.623046875 371.905273438 110.485351562 c 0
 395.022460938 130.046875 411.688476562 156.157226562 419.690429688 185.389648438 c 0
 427.8359375 215.146484375 426.609375 246.690429688 416.176757812 275.723632812 c 0
 405.745117188 304.7578125 386.615234375 329.869140625 361.393554688 347.63671875 c 0
 346.508789062 358.122070312 329.9296875 365.749023438 312.5 370.249023438 c 1
 312.5 229.998046875 l 2
 312.5 209.288085938 295.709960938 192.498046875 275 192.498046875 c 0
 254.290039062 192.498046875 237.5 209.288085938 237.5 229.998046875 c 2
 237.5 370.249023438 l 1
 220.221679688 365.788085938 203.779296875 358.254882812 188.9921875 347.907226562 c 0
 163.71484375 330.21875 144.505859375 305.16796875 133.983398438 276.166992188 c 0
 123.459960938 247.166015625 122.134765625 215.625976562 130.186523438 185.84375 c 0
 138.16796875 156.32421875 154.978515625 129.955078125 178.358398438 110.262695312 c 0
 187.009765625 103.393554688 192.55859375 92.7841796875 192.55859375 80.876953125 c 0
 192.55859375 60.1669921875 175.768554688 43.376953125 155.05859375 43.376953125 c 0
 145.7734375 43.376953125 137.275390625 46.7529296875 130.724609375 52.3427734375 c 0
 95.30859375 81.939453125 69.8466796875 121.711914062 57.798828125 166.2734375 c 0
EndSplineSet
Validated: 524321
EndChar

StartChar: o
Encoding: 111 111 24
Width: 550
Flags: W
HStem: 0 74.9951<197.428 352.572> 375.004 74.9961<197.428 352.572>
VStem: 50 74.9961<147.427 302.572> 425.004 74.9961<147.427 302.572>
LayerCount: 2
Fore
SplineSet
500 225 m 0
 500 100.736328125 399.263671875 0 275 0 c 0
 150.736328125 0 50 100.736328125 50 225 c 0
 50 349.263671875 150.736328125 450 275 450 c 0
 399.263671875 450 500 349.263671875 500 225 c 0
124.99609375 225 m 0
 124.99609375 142.155273438 192.155273438 74.9951171875 275 74.9951171875 c 0
 357.844726562 74.9951171875 425.00390625 142.155273438 425.00390625 225 c 0
 425.00390625 307.844726562 357.844726562 375.00390625 275 375.00390625 c 0
 192.155273438 375.00390625 124.99609375 307.844726562 124.99609375 225 c 0
EndSplineSet
Validated: 524289
EndChar

StartChar: n
Encoding: 110 110 25
Width: 550
Flags: W
HStem: 375.013 74.9873<197.454 351.254>
LayerCount: 2
Fore
SplineSet
57.798828125 166.274414062 m 0
 45.7216796875 210.943359375 47.7099609375 258.249023438 63.494140625 301.74609375 c 0
 79.27734375 345.244140625 108.086914062 382.817382812 145.999023438 409.346679688 c 0
 183.911132812 435.876953125 229.081054688 450.072265625 275.352539062 450 c 0
 321.625976562 449.926757812 366.75 435.588867188 404.579101562 408.94140625 c 0
 442.408203125 382.291992188 471.099609375 344.627929688 486.747070312 301.08203125 c 0
 502.392578125 257.53515625 504.233398438 210.22265625 492.014648438 165.591796875 c 0
 479.797851562 120.961914062 454.1171875 81.18359375 418.47265625 51.677734375 c 1
 418.463867188 51.6884765625 l 1
 412.028320312 46.4912109375 403.837890625 43.37890625 394.921875 43.37890625 c 0
 374.2109375 43.37890625 357.421875 60.16796875 357.421875 80.87890625 c 0
 357.421875 92.9140625 363.090820312 103.625 371.905273438 110.486328125 c 0
 395.022460938 130.047851562 411.688476562 156.159179688 419.690429688 185.390625 c 0
 427.8359375 215.1484375 426.609375 246.692382812 416.176757812 275.725585938 c 0
 405.745117188 304.758789062 386.615234375 329.87109375 361.393554688 347.637695312 c 0
 336.171875 365.405273438 306.0859375 374.96484375 275.236328125 375.012695312 c 0
 244.384765625 375.060546875 214.268554688 365.596679688 188.9921875 347.909179688 c 0
 163.71484375 330.220703125 144.505859375 305.169921875 133.983398438 276.168945312 c 0
 123.459960938 247.16796875 122.134765625 215.627929688 130.186523438 185.845703125 c 0
 138.16796875 156.326171875 154.978515625 129.95703125 178.358398438 110.264648438 c 0
 187.009765625 103.39453125 192.55859375 92.78515625 192.55859375 80.87890625 c 0
 192.55859375 60.16796875 175.768554688 43.37890625 155.05859375 43.37890625 c 0
 145.7734375 43.37890625 137.275390625 46.75390625 130.724609375 52.3447265625 c 0
 95.30859375 81.9404296875 69.8466796875 121.713867188 57.798828125 166.274414062 c 0
EndSplineSet
Validated: 524321
EndChar

StartChar: p
Encoding: 112 112 26
Width: 550
Flags: W
HStem: 0 75<197.655 352.571> 375 75<197.429 352.571>
VStem: 50 75<-221.302 57.292 147.22 302.362> 425 75<147.429 302.571>
LayerCount: 2
Fore
SplineSet
275 0 m 0
 217.374023438 0 164.806640625 21.6640625 125 57.2919921875 c 1
 125 -187.5 l 2
 125 -208.2109375 108.209960938 -225 87.5 -225 c 0
 66.7900390625 -225 50 -208.2109375 50 -187.5 c 2
 50 225 l 2
 50 349.263671875 150.736328125 450 275 450 c 0
 399.263671875 450 500 349.263671875 500 225 c 0
 500 100.736328125 399.263671875 0 275 0 c 0
275 375 m 0
 192.157226562 375 125 307.842773438 125 225 c 0
 125 142.157226562 192.157226562 75 275 75 c 0
 357.842773438 75 425 142.157226562 425 225 c 0
 425 307.842773438 357.842773438 375 275 375 c 0
EndSplineSet
Validated: 524289
EndChar

StartChar: q
Encoding: 113 113 27
Width: 550
Flags: W
HStem: 0 75<197.429 352.345> 375 75<197.429 352.571>
VStem: 50 75<147.429 302.571> 425 75<-221.302 57.292 147.22 302.362>
LayerCount: 2
Fore
SplineSet
462.5 -225 m 0
 441.790039062 -225 425 -208.2109375 425 -187.5 c 2
 425 57.2919921875 l 1
 385.193359375 21.6640625 332.625976562 0 275 0 c 0
 150.736328125 0 50 100.736328125 50 225 c 0
 50 349.263671875 150.736328125 450 275 450 c 0
 399.263671875 450 500 349.263671875 500 225 c 2
 500 -187.5 l 2
 500 -208.2109375 483.209960938 -225 462.5 -225 c 0
275 375 m 0
 192.157226562 375 125 307.842773438 125 225 c 0
 125 142.157226562 192.157226562 75 275 75 c 0
 357.842773438 75 425 142.157226562 425 225 c 0
 425 307.842773438 357.842773438 375 275 375 c 0
EndSplineSet
Validated: 524289
EndChar

StartChar: r
Encoding: 114 114 28
Width: 506
Flags: W
HStem: 0 21G<77.1445 97.855> 0 21G<77.1445 97.855>
VStem: 50 75<3.69786 302.785>
LayerCount: 2
Fore
SplineSet
90.8974609375 354.346679688 m 0xa0
 117.51171875 392.228515625 155.1640625 420.977539062 198.71875 436.673828125 c 0
 242.2734375 452.370117188 289.609375 454.248046875 334.271484375 442.052734375 c 0
 378.931640625 429.858398438 418.744140625 404.181640625 448.27734375 368.529296875 c 1
 448.26953125 368.5234375 l 1
 453.526367188 362.069335938 456.676757812 353.83203125 456.676757812 344.859375 c 0
 456.676757812 324.149414062 439.887695312 307.359375 419.176757812 307.359375 c 0
 407.125976562 307.359375 396.40234375 313.043945312 389.541992188 321.87890625 c 2
 389.538085938 321.8828125 l 2
 369.952148438 345.038085938 343.797851562 361.72265625 314.517578125 369.717773438 c 0
 284.741210938 377.848632812 253.1796875 376.596679688 224.140625 366.131835938 c 0
 195.100585938 355.666992188 169.99609375 336.498046875 152.251953125 311.241210938 c 0
 134.505859375 285.984375 124.984375 255.868164062 124.984375 225 c 1
 125 225 l 1
 125 37.5 l 2
 125 16.7890625 108.209960938 0 87.5 0 c 0
 66.7890625 0 50 16.7890625 50 37.5 c 2
 50.0009765625 225 l 2
 50.0009765625 271.295898438 64.2822265625 316.465820312 90.8974609375 354.346679688 c 0xa0
EndSplineSet
Validated: 8912929
EndChar

StartChar: s
Encoding: 115 115 29
Width: 495
Flags: W
HStem: 0.250977 74.9092<165.864 320.489> 187.5 75.002<126.948 369.321> 374.84 74.9092<175.78 330.405>
VStem: 50.0801 74.9453<264.434 330.81> 371.244 74.9453<119.19 185.566>
LayerCount: 2
Fore
SplineSet
143.240234375 421.333984375 m 0
 173.680664062 438.374023438 207.66796875 448.1015625 242.515625 449.749023438 c 0
 277.36328125 451.396484375 312.116210938 444.916992188 344.029296875 430.82421875 c 0
 375.919921875 416.7421875 404.100585938 395.44140625 426.350585938 368.603515625 c 0
 431.8515625 362.079101562 435.166992188 353.651367188 435.166992188 344.448242188 c 0
 435.166992188 323.73828125 418.377929688 306.948242188 397.666992188 306.948242188 c 0
 385.784179688 306.948242188 375.190429688 312.475585938 368.3203125 321.099609375 c 0
 353.533203125 338.823242188 334.853515625 352.897460938 313.735351562 362.22265625 c 0
 292.458007812 371.619140625 269.2890625 375.938476562 246.055664062 374.83984375 c 0
 222.823242188 373.7421875 200.1640625 367.255859375 179.869140625 355.896484375 c 0
 159.8984375 344.717773438 142.755859375 329.12109375 129.747070312 310.303710938 c 0
 126.866210938 305.692382812 125.237304688 300.405273438 125.025390625 294.96484375 c 0
 124.806640625 289.346679688 126.108398438 283.7734375 128.791992188 278.833007812 c 0
 131.475585938 273.891601562 135.444335938 269.766601562 140.276367188 266.892578125 c 0
 145.108398438 264.018554688 150.626953125 262.501953125 156.25 262.501953125 c 2
 340.629882812 262.5 l 2
 359.537109375 262.390625 378.077148438 257.237304688 394.33203125 247.568359375 c 0
 410.763671875 237.795898438 424.25390625 223.76953125 433.379882812 206.970703125 c 0
 442.506835938 190.171875 446.931640625 171.220703125 446.189453125 152.118164062 c 0
 445.4453125 133.013671875 439.559570312 114.46484375 429.15625 98.42578125 c 0
 409.534179688 69.58984375 383.470703125 45.705078125 353.030273438 28.6650390625 c 0
 322.587890625 11.625 288.599609375 1.8984375 253.752929688 0.2509765625 c 0
 218.905273438 -1.396484375 184.153320312 5.08203125 152.239257812 19.1748046875 c 0
 120.365234375 33.2509765625 92.1962890625 54.537109375 69.951171875 81.35546875 c 0
 64.4306640625 87.884765625 61.1015625 96.330078125 61.1015625 105.55078125 c 0
 61.1015625 126.26171875 77.890625 143.05078125 98.6015625 143.05078125 c 0
 110.48046875 143.05078125 121.068359375 137.529296875 127.939453125 128.912109375 c 0
 142.7265625 111.182617188 161.41015625 97.10546875 182.533203125 87.77734375 c 0
 203.809570312 78.380859375 226.98046875 74.0615234375 250.212890625 75.16015625 c 0
 273.4453125 76.2578125 296.10546875 82.7431640625 316.400390625 94.103515625 c 0
 336.370117188 105.282226562 353.512695312 120.87890625 366.522460938 139.696289062 c 0
 369.403320312 144.307617188 371.03125 149.594726562 371.244140625 155.03515625 c 0
 371.461914062 160.653320312 370.161132812 166.225585938 367.4765625 171.166992188 c 0
 364.791992188 176.108398438 360.825195312 180.232421875 355.9921875 183.107421875 c 0
 351.159179688 185.981445312 345.641601562 187.498046875 340.018554688 187.498046875 c 2
 155.637695312 187.5 l 2
 136.732421875 187.609375 118.193359375 192.76171875 101.935546875 202.430664062 c 0
 85.5048828125 212.204101562 72.0146484375 226.23046875 62.8876953125 243.029296875 c 0
 53.76171875 259.828125 49.3369140625 278.778320312 50.080078125 297.881835938 c 0
 50.82421875 316.986328125 56.7080078125 335.53515625 67.1123046875 351.57421875 c 0
 86.7353515625 380.415039062 112.798828125 404.295898438 143.240234375 421.333984375 c 0
EndSplineSet
Validated: 524321
EndChar

StartChar: t
Encoding: 116 116 30
Width: 362
Flags: W
HStem: 0.0126953 74.9863<197.817 308.798> 375.005 74.999<124.999 271.298> 655 20G<77.144 97.854>
VStem: 50 74.999<147.931 375.005 450.004 671.302>
LayerCount: 2
Fore
SplineSet
87.4990234375 675 m 0
 108.208984375 675 124.999023438 658.2109375 124.999023438 637.5 c 2
 124.999023438 450.00390625 l 1
 237.497070312 450.00390625 l 2
 258.20703125 450.00390625 274.99609375 433.213867188 274.99609375 412.50390625 c 0
 274.99609375 391.793945312 258.20703125 375.004882812 237.497070312 375.004882812 c 2
 124.999023438 375.004882812 l 1
 124.983398438 225.006835938 l 2
 124.991210938 205.307617188 128.87109375 185.801757812 136.41015625 167.602539062 c 0
 143.94921875 149.403320312 154.997070312 132.8671875 168.92578125 118.938476562 c 0
 182.85546875 105.0078125 199.391601562 93.958984375 217.590820312 86.419921875 c 0
 235.791992188 78.8818359375 255.296875 75.001953125 274.99609375 74.9990234375 c 0
 295.706054688 74.9990234375 312.49609375 58.2099609375 312.49609375 37.4990234375 c 0
 312.49609375 16.7890625 295.706054688 0 274.99609375 0 c 2
 274.689453125 0.0009765625 l 2
 274.458007812 0.0029296875 274.227539062 0.0068359375 274 0.0126953125 c 0
 244.791992188 0.1416015625 215.884765625 5.9580078125 188.893554688 17.1376953125 c 0
 161.595703125 28.4453125 136.79296875 45.017578125 115.900390625 65.9111328125 c 0
 95.0068359375 86.8037109375 78.43359375 111.607421875 67.1259765625 138.905273438 c 0
 55.8203125 166.203125 50.0009765625 195.459960938 50.0009765625 225.006835938 c 2
 50 637.5 l 2
 50 658.2109375 66.7890625 675 87.4990234375 675 c 0
EndSplineSet
Validated: 8912897
EndChar

StartChar: u
Encoding: 117 117 31
Width: 550
Flags: W
HStem: 0.378906 74.9873<197.454 351.255> 387 20G<150.416 165.414 384.566 399.38>
LayerCount: 2
Fore
SplineSet
192.55859375 369.5 m 0
 192.55859375 357.59375 187.008789062 346.983398438 178.357421875 340.114257812 c 0
 154.977539062 320.421875 138.16796875 294.052734375 130.186523438 264.533203125 c 0
 122.133789062 234.750976562 123.459960938 203.2109375 133.983398438 174.209960938 c 0
 144.506835938 145.208984375 163.71484375 120.158203125 188.9921875 102.469726562 c 0
 214.268554688 84.7822265625 244.384765625 75.3173828125 275.236328125 75.3662109375 c 0
 306.086914062 75.4140625 336.172851562 84.97265625 361.393554688 102.741210938 c 0
 386.615234375 120.5078125 405.745117188 145.619140625 416.176757812 174.653320312 c 0
 426.609375 203.686523438 427.8359375 235.231445312 419.690429688 264.987304688 c 0
 411.686523438 294.219726562 395.0234375 320.330078125 371.90625 339.891601562 c 0
 363.091796875 346.75390625 357.421875 357.46484375 357.421875 369.5 c 0
 357.421875 390.2109375 374.2109375 407 394.921875 407 c 0
 403.837890625 407 412.029296875 403.887695312 418.463867188 398.69140625 c 1
 418.47265625 398.701171875 l 1
 454.1171875 369.1953125 479.798828125 329.416992188 492.014648438 284.786132812 c 0
 504.233398438 240.15625 502.392578125 192.84375 486.747070312 149.296875 c 0
 471.099609375 105.75 442.407226562 68.0869140625 404.579101562 41.4384765625 c 0
 366.750976562 14.7890625 321.625976562 0.4521484375 275.352539062 0.37890625 c 0
 229.081054688 0.306640625 183.911132812 14.501953125 146 41.0322265625 c 0
 108.086914062 67.5615234375 79.27734375 105.134765625 63.494140625 148.6328125 c 0
 47.7099609375 192.129882812 45.7216796875 239.435546875 57.798828125 284.10546875 c 0
 69.84765625 328.665039062 95.3076171875 368.438476562 130.724609375 398.034179688 c 0
 137.274414062 403.625 145.7734375 407 155.05859375 407 c 0
 175.768554688 407 192.55859375 390.2109375 192.55859375 369.5 c 0
EndSplineSet
Validated: 524321
EndChar

StartChar: v
Encoding: 118 118 32
Width: 528
Flags: W
HStem: 0.350586 21G<247.012 276.447> 0.350586 21G<247.012 276.447> 387 20G<77.145 94.9937 362.911 377.917>
LayerCount: 2
Fore
SplineSet
54.263671875 352.116210938 m 2xa0
 51.5400390625 357.311523438 50 363.225585938 50 369.499023438 c 0
 50 390.209960938 66.7900390625 407 87.5 407 c 0
 102.487304688 407 115.420898438 398.208984375 121.424804688 385.501953125 c 2
 275.637695312 77.005859375 l 1
 298.51171875 80.447265625 320.38671875 89.1484375 339.487304688 102.549804688 c 0
 364.728515625 120.259765625 383.900390625 145.319335938 394.389648438 174.315429688 c 0
 404.880859375 203.310546875 406.181640625 234.834960938 398.116210938 264.596679688 c 0
 390.124023438 294.079101562 373.327148438 320.412109375 349.975585938 340.083007812 c 0
 348.892578125 340.942382812 347.860351562 341.859375 346.879882812 342.830078125 c 0
 340.016601562 349.625976562 335.766601562 359.053710938 335.766601562 369.474609375 c 0
 335.766601562 390.185546875 352.555664062 406.974609375 373.266601562 406.974609375 c 0
 382.568359375 406.974609375 391.077148438 403.58984375 397.630859375 397.984375 c 0
 432.997070312 368.420898438 458.4296875 328.708007812 470.490234375 284.212890625 c 0
 482.587890625 239.575195312 480.63671875 192.29296875 464.904296875 148.803710938 c 0
 449.168945312 105.314453125 420.415039062 67.728515625 382.555664062 41.166015625 c 0
 344.698242188 14.6025390625 299.571289062 0.3505859375 253.323242188 0.3505859375 c 0
 240.700195312 0.3505859375 229.533203125 6.587890625 222.737304688 16.150390625 c 1
 222.31640625 15.939453125 l 1
 54.263671875 352.116210938 l 2xa0
EndSplineSet
Validated: 8912929
EndChar

StartChar: w
Encoding: 119 119 33
Width: 550
Flags: W
HStem: 387 20G<150.416 165.414 384.566 399.38>
VStem: 237.5 75<80.1279 254.181>
LayerCount: 2
Fore
SplineSet
192.55859375 369.5 m 0
 192.55859375 357.59375 187.008789062 346.983398438 178.357421875 340.114257812 c 0
 154.977539062 320.421875 138.16796875 294.052734375 130.186523438 264.533203125 c 0
 122.133789062 234.750976562 123.459960938 203.2109375 133.983398438 174.209960938 c 0
 144.506835938 145.208984375 163.71484375 120.158203125 188.9921875 102.469726562 c 0
 203.779296875 92.1220703125 220.221679688 84.5888671875 237.5 80.1279296875 c 1
 237.5 220.37890625 l 2
 237.5 241.088867188 254.290039062 257.87890625 275 257.87890625 c 0
 295.7109375 257.87890625 312.5 241.088867188 312.5 220.37890625 c 2
 312.5 80.1279296875 l 1
 329.9296875 84.6279296875 346.509765625 92.2548828125 361.393554688 102.741210938 c 0
 386.615234375 120.5078125 405.745117188 145.619140625 416.176757812 174.653320312 c 0
 426.609375 203.686523438 427.8359375 235.231445312 419.690429688 264.987304688 c 0
 411.686523438 294.219726562 395.0234375 320.330078125 371.90625 339.891601562 c 0
 363.091796875 346.75390625 357.421875 357.46484375 357.421875 369.5 c 0
 357.421875 390.209960938 374.2109375 407 394.921875 407 c 0
 403.837890625 407 412.029296875 403.887695312 418.463867188 398.69140625 c 1
 418.47265625 398.701171875 l 1
 454.1171875 369.1953125 479.798828125 329.416992188 492.014648438 284.786132812 c 0
 504.233398438 240.15625 502.392578125 192.84375 486.747070312 149.296875 c 0
 471.099609375 105.75 442.407226562 68.0869140625 404.579101562 41.4384765625 c 0
 366.750976562 14.7890625 321.625976562 0.4521484375 275.352539062 0.37890625 c 0
 229.081054688 0.3056640625 183.911132812 14.501953125 146 41.0322265625 c 0
 108.086914062 67.5615234375 79.27734375 105.134765625 63.494140625 148.6328125 c 0
 47.7099609375 192.129882812 45.7216796875 239.435546875 57.798828125 284.10546875 c 0
 69.84765625 328.665039062 95.3076171875 368.438476562 130.724609375 398.034179688 c 0
 137.274414062 403.625 145.7734375 407 155.05859375 407 c 0
 175.768554688 407 192.55859375 390.209960938 192.55859375 369.5 c 0
EndSplineSet
Validated: 524321
EndChar

StartChar: x
Encoding: 120 120 34
Width: 550
Flags: W
HStem: 0 21G<77.145 97.855 452.145 472.855> 0 21G<77.145 97.855 452.145 472.855> 187.49 75.0186<197.093 352.907> 430 20G<77.145 97.855 452.145 472.855>
VStem: 50 75.0098<3.69786 114.578 335.422 446.302> 424.99 75.0098<3.69786 114.578 335.422 446.302>
LayerCount: 2
Fore
SplineSet
136.426757812 355.100585938 m 0xbc
 143.96484375 336.903320312 155.01171875 320.368164062 168.940429688 306.44140625 c 0
 182.869140625 292.512695312 199.403320312 281.463867188 217.600585938 273.926757812 c 0
 235.797851562 266.388671875 255.302734375 262.508789062 275 262.508789062 c 0
 294.697265625 262.508789062 314.202148438 266.388671875 332.399414062 273.926757812 c 0
 350.596679688 281.463867188 367.130859375 292.512695312 381.059570312 306.44140625 c 0
 394.98828125 320.368164062 406.03515625 336.903320312 413.573242188 355.100585938 c 0
 421.111328125 373.298828125 424.990234375 392.802734375 424.990234375 412.5 c 1
 425 412.5 l 1
 425 433.209960938 441.790039062 450 462.5 450 c 0
 483.209960938 450 500 433.209960938 500 412.5 c 0
 500 382.952148438 494.1796875 353.694335938 482.872070312 326.396484375 c 0
 471.56640625 299.09765625 454.993164062 274.293945312 434.098632812 253.401367188 c 0
 423.47265625 242.775390625 411.8359375 233.265625 399.374023438 225 c 1
 411.8359375 216.733398438 423.47265625 207.224609375 434.098632812 196.598632812 c 0
 454.993164062 175.706054688 471.56640625 150.90234375 482.872070312 123.603515625 c 0
 494.1796875 96.3046875 500 67.046875 500 37.5 c 0
 500 16.7890625 483.209960938 0 462.5 0 c 0
 441.790039062 0 425 16.7890625 425 37.5 c 1
 424.990234375 37.5 l 1
 424.990234375 57.197265625 421.111328125 76.701171875 413.573242188 94.8994140625 c 0
 406.03515625 113.095703125 394.98828125 129.630859375 381.059570312 143.55859375 c 0
 367.130859375 157.487304688 350.596679688 168.53515625 332.399414062 176.073242188 c 0
 314.202148438 183.611328125 294.697265625 187.490234375 275 187.490234375 c 0
 255.302734375 187.490234375 235.797851562 183.611328125 217.600585938 176.073242188 c 0
 199.403320312 168.53515625 182.869140625 157.487304688 168.940429688 143.55859375 c 0
 155.01171875 129.630859375 143.96484375 113.095703125 136.426757812 94.8994140625 c 0
 128.888671875 76.701171875 125.009765625 57.197265625 125.009765625 37.5 c 1
 125 37.5 l 1
 125 16.7890625 108.209960938 0 87.5 0 c 0
 66.7900390625 0 50 16.7890625 50 37.5 c 0
 50 67.046875 55.8203125 96.3046875 67.1279296875 123.603515625 c 0
 78.43359375 150.90234375 95.0068359375 175.706054688 115.901367188 196.598632812 c 0
 126.52734375 207.224609375 138.1640625 216.733398438 150.625976562 225 c 1
 138.1640625 233.265625 126.52734375 242.775390625 115.901367188 253.401367188 c 0
 95.0068359375 274.293945312 78.43359375 299.09765625 67.1279296875 326.396484375 c 0
 55.8203125 353.694335938 50 382.952148438 50 412.5 c 0
 50 433.209960938 66.7900390625 450 87.5 450 c 0
 108.209960938 450 125 433.209960938 125 412.5 c 1
 125.009765625 412.5 l 1
 125.009765625 392.802734375 128.888671875 373.298828125 136.426757812 355.100585938 c 0xbc
EndSplineSet
Validated: 8912897
EndChar

StartChar: y
Encoding: 121 121 35
Width: 550
Flags: W
HStem: 387 20G<150.62 165.434 384.586 399.584>
VStem: 237.5 75<-220.923 8.18642>
LayerCount: 2
Fore
SplineSet
192.578125 369.5 m 0
 192.578125 357.46484375 186.908203125 346.75390625 178.09375 339.891601562 c 0
 154.9765625 320.330078125 138.313476562 294.219726562 130.309570312 264.987304688 c 0
 122.1640625 235.231445312 123.390625 203.686523438 133.823242188 174.653320312 c 0
 144.254882812 145.619140625 163.384765625 120.5078125 188.606445312 102.741210938 c 0
 213.828125 84.97265625 243.913085938 75.4140625 274.763671875 75.3662109375 c 0
 305.615234375 75.3173828125 335.731445312 84.7822265625 361.0078125 102.469726562 c 0
 386.28515625 120.158203125 405.493164062 145.208984375 416.016601562 174.209960938 c 0
 426.540039062 203.2109375 427.866210938 234.750976562 419.813476562 264.533203125 c 0
 411.83203125 294.052734375 395.022460938 320.421875 371.642578125 340.114257812 c 0
 362.991210938 346.983398438 357.44140625 357.59375 357.44140625 369.5 c 0
 357.44140625 390.209960938 374.231445312 407 394.94140625 407 c 0
 404.2265625 407 412.725585938 403.625 419.275390625 398.034179688 c 0
 454.692382812 368.438476562 480.15234375 328.665039062 492.201171875 284.10546875 c 0
 504.278320312 239.435546875 502.290039062 192.129882812 486.505859375 148.6328125 c 0
 470.72265625 105.134765625 441.913085938 67.5615234375 404 41.0322265625 c 0
 376.53125 21.80859375 345.249023438 9.0615234375 312.5 3.5263671875 c 1
 312.5 -187.12109375 l 2
 312.5 -207.83203125 295.709960938 -224.62109375 275 -224.62109375 c 0
 254.2890625 -224.62109375 237.5 -207.83203125 237.5 -187.12109375 c 2
 237.5 3.5263671875 l 1
 204.513671875 9.1005859375 173.025390625 21.9921875 145.420898438 41.4384765625 c 0
 107.592773438 68.0869140625 78.900390625 105.75 63.2529296875 149.296875 c 0
 47.607421875 192.84375 45.7666015625 240.15625 57.984375 284.786132812 c 0
 70.2021484375 329.416992188 95.8828125 369.1953125 131.52734375 398.701171875 c 1
 131.536132812 398.69140625 l 1
 137.970703125 403.887695312 146.162109375 407 155.078125 407 c 0
 175.7890625 407 192.578125 390.209960938 192.578125 369.5 c 0
EndSplineSet
Validated: 524321
EndChar

StartChar: z
Encoding: 122 122 36
Width: 481
Flags: W
HStem: 0.18162 74.9326<163.793 318.825> 374.885 74.9326<163.501 318.125>
LayerCount: 2
Fore
SplineSet
421.253501982 360.025191501 m 0
 429.537109375 348.143554688 431.916015625 340.893554688 431.916015625 333.094493889 c 0
 431.916015625 320.001953125 425.211914062 308.48046875 415.049804688 301.772460938 c 2
 143.662109375 110.611328125 l 1
 151.411132812 104.037109375 159.833007812 98.24609375 168.814208222 93.341966548 c 0
 189.0703125 82.28125 211.609375 76.0419921875 234.675541859 75.11418888 c 0
 257.73828125 74.1865234375 280.706054688 78.59375 301.789630591 87.9942575784 c 0
 322.758789062 97.34375 341.299804688 111.380859375 355.987304688 129.024414062 c 2
 356.11328125 129.174804688 l 1
 356.224609375 129.309570312 l 2
 363.103515625 137.462890625 373.3984375 142.639648438 384.899434801 142.639648438 c 0
 405.611328125 142.639648438 422.400390625 125.850585938 422.400390625 105.140784678 c 0
 422.400390625 95.720703125 418.926757812 87.11328125 408.477807793 74.7359858125 c 0
 391.23046875 54.3056640625 363.575195312 33.4326171875 332.32607991 19.5001131724 c 0
 300.704101562 5.4013671875 266.254882812 -1.2099609375 231.659702508 0.181619594676 c 0
 197.063476562 1.5732421875 163.255859375 10.9306640625 132.867829739 27.5245516385 c 0
 102.478515625 44.119140625 76.3310546875 67.501953125 60.6638843866 89.9733268767 c 0
 52.37890625 101.856445312 50 109.106445312 50 116.906256367 c 0
 50 129.548828125 56.25 140.734375 65.83203125 147.52734375 c 2
 338.237304688 339.404296875 l 1
 330.493164062 345.971679688 322.078125 351.756835938 313.104825951 356.656895171 c 0
 292.84765625 367.71875 270.30859375 373.95703125 247.244478507 374.885201009 c 0
 224.177734375 375.813476562 201.2109375 371.405273438 180.130479852 362.006596008 c 0
 161.780273438 353.825195312 145.2890625 342.053710938 131.605952228 327.411252436 c 0
 129.661132812 325.330078125 127.763671875 323.180664062 125.927734375 320.974609375 c 2
 125.802734375 320.825195312 l 1
 125.69140625 320.690429688 l 2
 118.811523438 312.537109375 108.517578125 307.359375 97.0164471324 307.359375 c 0
 76.3056640625 307.359375 59.5166015625 324.149414062 59.5166015625 344.859321721 c 0
 59.5166015625 354.290039062 62.998046875 362.908203125 73.4543760817 375.28699314 c 0
 90.703125 395.70703125 118.350585938 416.571289062 149.588767764 430.499140832 c 0
 181.211914062 444.598632812 215.663085938 451.209960938 250.259598979 449.817799206 c 0
 284.852539062 448.42578125 318.661132812 439.069335938 349.051213824 422.473794864 c 0
 379.436523438 405.880859375 405.5859375 382.498046875 421.253501982 360.025191501 c 0
EndSplineSet
Validated: 524321
EndChar

StartChar: K
Encoding: 75 75 37
Width: 550
Flags: W
HStem: 0 21G<77.145 97.855 436.496 454.743> 0 21G<77.145 97.855 436.496 454.743> 655 20G<77.145 97.855>
VStem: 50 75<3.69786 190.632 280.641 671.302> 424.918 74.9375<37.7673 190.628>
LayerCount: 2
Fore
SplineSet
87.5 675 m 0xb8
 108.209960938 675 125 658.2109375 125 637.5 c 2
 125 280.640625 l 1
 125.174804688 280.866210938 125.3515625 281.08984375 125.532226562 281.313476562 c 2
 433.282226562 661.068359375 l 2
 446.322265625 677.158203125 469.936523438 679.631835938 486.02734375 666.591796875 c 0
 502.118164062 653.552734375 504.590820312 629.9375 491.551757812 613.846679688 c 2
 267.5 337.375 l 1
 285.249023438 337.966796875 303.059570312 336.45703125 320.557617188 332.838867188 c 0
 353.278320312 326.07421875 384.081054688 312.106445312 410.728515625 291.950195312 c 0
 437.377929688 271.794921875 459.203125 245.95703125 474.619140625 216.313476562 c 0
 490.03515625 186.669921875 498.65625 153.96484375 499.85546875 120.57421875 c 0
 501.049804688 87.287109375 494.83984375 54.1513671875 481.674804688 23.5576171875 c 0
 476.141601562 9.7509765625 462.634765625 0 446.8515625 0 c 0
 426.140625 0 409.3515625 16.7890625 409.3515625 37.5 c 0
 409.3515625 43.20703125 410.626953125 48.6162109375 412.907226562 53.4580078125 c 0
 421.609375 73.783203125 425.709960938 95.783203125 424.91796875 117.8828125 c 0
 424.118164062 140.146484375 418.370117188 161.951171875 408.091796875 181.71484375 c 0
 397.814453125 201.478515625 383.26171875 218.706054688 365.495117188 232.14453125 c 0
 347.727539062 245.583007812 327.19140625 254.896484375 305.375 259.407226562 c 0
 283.55859375 263.916992188 261.012695312 263.512695312 239.373046875 258.221679688 c 0
 217.733398438 252.931640625 197.54296875 242.887695312 180.26953125 228.8203125 c 0
 162.99609375 214.752929688 149.073242188 197.014648438 139.509765625 176.89453125 c 0
 130.241210938 157.392578125 125.294921875 136.126953125 125 114.551757812 c 2
 125 37.5 l 2
 125 16.7890625 108.209960938 0 87.5 0 c 0
 66.7900390625 0 50 16.7890625 50 37.5 c 2
 50 637.5 l 2
 50 658.2109375 66.7900390625 675 87.5 675 c 0xb8
EndSplineSet
Validated: 8912929
EndChar

StartChar: L
Encoding: 76 76 38
Width: 550
Flags: W
HStem: 0 75<199.136 496.302> 655 20G<77.145 97.855>
VStem: 50 75<149.136 671.302>
LayerCount: 2
Fore
SplineSet
50 637.5 m 2
 50 658.2109375 66.7900390625 675 87.5 675 c 0
 108.209960938 675 125 658.2109375 125 637.5 c 2
 125 225 l 1
 124.993164062 225 l 1
 124.993164062 185.21484375 140.796875 147.060546875 168.928710938 118.928710938 c 0
 197.060546875 90.796875 235.21484375 74.9931640625 275 74.9931640625 c 1
 275 75 l 1
 462.5 75 l 2
 483.209960938 75 500 58.2109375 500 37.5 c 0
 500 16.7890625 483.209960938 0 462.5 0 c 2
 275 0 l 2
 215.327148438 0 158.096679688 23.705078125 115.901367188 65.9013671875 c 0
 73.705078125 108.096679688 50 165.326171875 50 225 c 2
 50 637.5 l 2
EndSplineSet
Validated: 524289
EndChar

StartChar: M
Encoding: 77 77 39
Width: 550
Flags: W
HStem: 0 21G<77.145 97.855 452.145 472.855> 0 21G<77.145 97.855 452.145 472.855> 655 20G<260.227 289.774>
VStem: 50 75<3.69786 527.078> 237.5 75<116.198 595.245> 425 75<3.69786 527.078>
CounterMasks: 1 1c
LayerCount: 2
Fore
SplineSet
67.126953125 536.103515625 m 0xbc
 78.4345703125 563.40234375 95.0078125 588.206054688 115.901367188 609.098632812 c 0
 136.793945312 629.9921875 161.59765625 646.565429688 188.896484375 657.873046875 c 0
 216.194335938 669.180664062 245.453125 675 275 675 c 0
 304.547851562 675 333.805664062 669.180664062 361.103515625 657.873046875 c 0
 388.40234375 646.565429688 413.206054688 629.9921875 434.098632812 609.098632812 c 0
 454.9921875 588.206054688 471.56640625 563.40234375 482.873046875 536.103515625 c 0
 494.1796875 508.8046875 500 479.546875 500 450 c 2
 500 37.5 l 2
 500 16.7890625 483.209960938 0 462.5 0 c 0
 441.790039062 0 425 16.7890625 425 37.5 c 2
 425 450 l 1
 425.006835938 450 l 1
 425.006835938 469.69921875 421.126953125 489.206054688 413.588867188 507.405273438 c 0
 406.049804688 525.60546875 395.000976562 542.141601562 381.071289062 556.071289062 c 0
 367.141601562 570.000976562 350.60546875 581.049804688 332.405273438 588.588867188 c 0
 325.918945312 591.275390625 319.267578125 593.497070312 312.5 595.245117188 c 1
 312.5 150 l 2
 312.5 129.2890625 295.709960938 112.5 275 112.5 c 0
 254.290039062 112.5 237.5 129.2890625 237.5 150 c 2
 237.5 595.245117188 l 1
 230.732421875 593.497070312 224.081054688 591.275390625 217.594726562 588.588867188 c 0
 199.39453125 581.049804688 182.858398438 570.000976562 168.928710938 556.071289062 c 0
 154.999023438 542.141601562 143.950195312 525.60546875 136.411132812 507.405273438 c 0
 128.873046875 489.206054688 124.993164062 469.69921875 124.993164062 450 c 1
 125 450 l 1
 125 37.5 l 2
 125 16.7890625 108.209960938 0 87.5 0 c 0
 66.7900390625 0 50 16.7890625 50 37.5 c 2
 50 450 l 2
 50 479.546875 55.8193359375 508.805664062 67.126953125 536.103515625 c 0xbc
EndSplineSet
Validated: 8912897
EndChar

StartChar: N
Encoding: 78 78 40
Width: 550
Flags: W
HStem: 0 21G<77.145 97.855> 0 21G<77.145 97.855> 655 20G<452.145 472.855>
VStem: 50 75<3.69786 526.829> 425 75<148.171 671.302>
LayerCount: 2
Fore
SplineSet
457.029296875 92.748046875 m 0xb8
 429.37109375 54.6796875 390.481445312 26.2509765625 345.841796875 11.443359375 c 0
 341.822265625 9.9716796875 337.48046875 9.1689453125 332.951171875 9.1689453125 c 0
 314.546875 9.1689453125 299.23828125 22.427734375 296.057617188 39.9150390625 c 2
 189.752929688 573.430664062 l 1
 175.89453125 563.860351562 163.663085938 551.96484375 153.640625 538.171875 c 0
 135.311523438 512.944335938 125.307617188 482.640625 125 451.483398438 c 2
 125 37.5 l 2
 125 16.7890625 108.209960938 0 87.5 0 c 0
 66.7900390625 0 50 16.7890625 50 37.5 c 2
 50 452.5 l 1
 50.013671875 452.5 l 1
 50.5322265625 499.137695312 65.5322265625 544.485351562 92.9716796875 582.251953125 c 0
 120.62890625 620.319335938 159.517578125 648.748046875 204.158203125 663.556640625 c 0
 208.176757812 665.028320312 212.51953125 665.831054688 217.048828125 665.831054688 c 0
 235.442382812 665.831054688 250.7421875 652.588867188 253.935546875 635.118164062 c 2
 360.247070312 101.569335938 l 1
 374.10546875 111.139648438 386.336914062 123.03515625 396.359375 136.828125 c 0
 414.688476562 162.055664062 424.692382812 192.359375 425 223.516601562 c 2
 425 637.5 l 2
 425 658.2109375 441.790039062 675 462.5 675 c 0
 483.209960938 675 500 658.2109375 500 637.5 c 2
 500 222.5 l 1
 499.986328125 222.5 l 1
 499.467773438 175.862304688 484.467773438 130.514648438 457.029296875 92.748046875 c 0xb8
EndSplineSet
Validated: 8912897
EndChar

StartChar: O
Encoding: 79 79 41
Width: 550
Flags: W
HStem: 0 74.9922<197.505 352.499> 600.008 74.9922<197.505 352.499>
VStem: 50.001 75<147.084 527.916> 425.001 75<147.083 527.916>
LayerCount: 2
Fore
SplineSet
500.000976562 451.25 m 0
 500.00390625 450.833007812 500.000976562 450.416992188 500.000976562 450 c 2
 500.000976562 225 l 1
 500.001953125 224.583007812 l 2
 500.001953125 224.305664062 500.002929688 224.028320312 500.000976562 223.75 c 0
 499.861328125 198.595703125 495.501953125 173.668945312 487.1328125 150 c 0
 485.813476562 146.265625 484.392578125 142.563476562 482.874023438 138.896484375 c 0
 471.567382812 111.59765625 454.993164062 86.7939453125 434.099609375 65.9013671875 c 0
 413.20703125 45.0078125 388.403320312 28.43359375 361.10546875 17.126953125 c 0
 333.806640625 5.8203125 304.547851562 0 275.000976562 0 c 0
 245.454101562 0 216.196289062 5.8203125 188.8984375 17.126953125 c 0
 161.598632812 28.43359375 136.795898438 45.0078125 115.90234375 65.9013671875 c 0
 95.0087890625 86.7939453125 78.435546875 111.59765625 67.1279296875 138.896484375 c 0
 65.609375 142.563476562 64.189453125 146.265625 62.869140625 150 c 0
 54.5009765625 173.668945312 50.140625 198.595703125 50.0009765625 223.75 c 2
 50 224.188476562 l 1
 50.0009765625 225 l 1
 50.0009765625 450 l 1
 50 450.939453125 l 1
 50.0009765625 451.25 l 2
 50.140625 476.404296875 54.5009765625 501.331054688 62.869140625 525 c 0
 64.189453125 528.734375 65.609375 532.436523438 67.1279296875 536.103515625 c 0
 78.435546875 563.40234375 95.0087890625 588.206054688 115.90234375 609.098632812 c 0
 136.795898438 629.9921875 161.598632812 646.565429688 188.8984375 657.873046875 c 0
 216.196289062 669.180664062 245.454101562 675 275.000976562 675 c 0
 304.547851562 675 333.806640625 669.180664062 361.10546875 657.873046875 c 0
 388.403320312 646.565429688 413.20703125 629.9921875 434.099609375 609.098632812 c 0
 454.993164062 588.206054688 471.567382812 563.40234375 482.874023438 536.103515625 c 0
 484.392578125 532.436523438 485.813476562 528.734375 487.1328125 525 c 0
 495.501953125 501.331054688 499.861328125 476.404296875 500.000976562 451.25 c 0
136.412109375 507.40625 m 0
 129.032226562 489.590820312 125.162109375 470.524414062 125.000976562 451.25 c 2
 125.000976562 223.75 l 2
 125.162109375 204.475585938 129.032226562 185.409179688 136.412109375 167.59375 c 0
 143.950195312 149.393554688 154.999023438 132.858398438 168.928710938 118.927734375 c 0
 182.859375 104.998046875 199.396484375 93.94921875 217.594726562 86.41015625 c 0
 235.794921875 78.8720703125 255.301757812 74.9921875 275.000976562 74.9921875 c 0
 294.700195312 74.9921875 314.20703125 78.8720703125 332.407226562 86.41015625 c 0
 350.607421875 93.94921875 367.143554688 104.998046875 381.073242188 118.927734375 c 0
 395.002929688 132.857421875 406.051757812 149.393554688 413.590820312 167.59375 c 0
 420.969726562 185.409179688 424.840820312 204.475585938 425.000976562 223.75 c 2
 425.000976562 451.25 l 2
 424.840820312 470.524414062 420.969726562 489.590820312 413.590820312 507.40625 c 0
 406.051757812 525.606445312 395.002929688 542.141601562 381.073242188 556.072265625 c 0
 367.143554688 570.001953125 350.607421875 581.05078125 332.407226562 588.58984375 c 0
 314.20703125 596.127929688 294.700195312 600.0078125 275.000976562 600.0078125 c 0
 255.301757812 600.0078125 235.794921875 596.127929688 217.594726562 588.58984375 c 0
 199.396484375 581.05078125 182.859375 570.001953125 168.928710938 556.072265625 c 0
 154.999023438 542.141601562 143.950195312 525.606445312 136.412109375 507.40625 c 0
EndSplineSet
Validated: 524289
EndChar

StartChar: P
Encoding: 80 80 42
Width: 550
Flags: W
HStem: 0 21G<77.145 97.855> 0 21G<77.145 97.855> 225 75<197.655 352.571> 600 75<197.429 352.571>
VStem: 50 75<3.69786 282.292 372.22 527.362> 425 75<372.429 527.571>
LayerCount: 2
Fore
SplineSet
275 225 m 0xbc
 217.374023438 225 164.806640625 246.6640625 125 282.291992188 c 1
 125 37.5 l 2
 125 16.7890625 108.209960938 0 87.5 0 c 0
 66.7900390625 0 50 16.7890625 50 37.5 c 2
 50 450 l 2
 50 574.263671875 150.736328125 675 275 675 c 0
 399.263671875 675 500 574.263671875 500 450 c 0
 500 325.736328125 399.263671875 225 275 225 c 0xbc
275 600 m 0
 192.157226562 600 125 532.842773438 125 450 c 0
 125 367.157226562 192.157226562 300 275 300 c 0
 357.842773438 300 425 367.157226562 425 450 c 0
 425 532.842773438 357.842773438 600 275 600 c 0
EndSplineSet
Validated: 8912897
EndChar

StartChar: Q
Encoding: 81 81 43
Width: 550
Flags: W
HStem: -0.25 21G<457.75 467.25> 0 75<196.847 350.751> 600 75<196.847 353.153>
VStem: 50 75<147.048 527.952> 425 75<149.281 527.952>
LayerCount: 2
Fore
SplineSet
405 42 m 1xb8
 392 32 377 24 361 17 c 0
 334 6 305 0 275 0 c 0x78
 245 0 216 6 189 17 c 0
 162 28 137 45 116 66 c 0
 95 87 78 112 67 139 c 0
 66 143 64 146 63 150 c 0
 55 174 50 199 50 224 c 2
 50 225 l 1
 50 450 l 2
 50 451 l 0
 50 476 55 501 63 525 c 0
 64 529 66 532 67 536 c 0
 78 563 95 588 116 609 c 0
 137 630 162 647 189 658 c 0
 216 669 245 675 275 675 c 0
 305 675 334 669 361 658 c 0
 388 647 413 630 434 609 c 0
 455 588 472 563 483 536 c 0
 484 532 486 529 487 525 c 0
 496 501 500 476 500 451 c 0
 500 450 500 450 500 450 c 2
 500 225 l 1
 500 224 l 1
 500 199 496 174 487 150 c 0
 486 146 484 143 483 139 c 0
 476 123 468 108 458 95 c 1
 489 64 l 2
 496 56 500.25 47 500.25 37.5 c 0
 500.25 28 496.5 18.5 489 11 c 0
 481.5 3.5 472 -0.25 462.5 -0.25 c 0
 453 -0.25 443.5 3.5 436 11 c 2
 405 42 l 1xb8
125 451 m 2
 125 224 l 2
 125 204 129 185 136 168 c 0
 144 149 155 133 169 119 c 0
 183 105 199 94 218 86 c 0
 236 79 255 75 275 75 c 0
 295 75 314 79 332 86 c 0
 339 89 345 92 351 96 c 1
 330 117 l 2
 322.5 124.5 318.75 134 318.75 143.5 c 0
 318.75 153 322.5 162.5 330 170 c 0
 337.5 177.5 347 181.25 356.5 181.25 c 0
 366 181.25 375.5 177.5 383 170 c 2
 404 149 l 1
 408 155 411 161 414 168 c 0
 421 185 425 204 425 224 c 2
 425 451 l 2
 425 471 421 490 414 507 c 0
 406 526 395 542 381 556 c 0
 367 570 351 581 332 589 c 0
 314 596 295 600 275 600 c 0
 255 600 236 596 218 589 c 0
 199 581 183 570 169 556 c 0
 155 542 144 526 136 507 c 0
 129 490 125 471 125 451 c 2
EndSplineSet
Validated: 524293
EndChar

StartChar: R
Encoding: 82 82 44
Width: 550
Flags: W
HStem: 0.00292969 21G<77.1445 97.855> 0.00292969 21G<77.1445 97.855> 225.002 75<198.09 285.877> 600 75<197.428 352.57>
VStem: 50 75<3.70096 282.294 372.221 527.363> 424.998 75<372.087 527.572>
LayerCount: 2
Fore
SplineSet
274.999023438 225.001953125 m 0xbc
 217.373046875 225.001953125 164.805664062 246.666015625 125 282.293945312 c 1
 125 37.5029296875 l 2
 125 16.79296875 108.209960938 0.0029296875 87.5 0.0029296875 c 0
 66.7890625 0.0029296875 50 16.79296875 50 37.5029296875 c 2
 50 450.000976562 l 2
 50 574.264648438 150.736328125 675 274.999023438 675 c 0
 399.26171875 675 499.998046875 574.264648438 499.998046875 450.000976562 c 0
 499.998046875 357.569335938 444.260742188 278.15625 364.565429688 243.53515625 c 1
 493.258789062 58.9501953125 l 2
 505.103515625 41.9609375 500.93359375 18.5869140625 483.9453125 6.7421875 c 0
 466.956054688 -5.1025390625 443.581054688 -0.9326171875 431.736328125 16.0556640625 c 2
 285.876953125 225.260742188 l 2
 282.272460938 225.088867188 278.646484375 225.001953125 274.999023438 225.001953125 c 0xbc
274.999023438 600 m 0
 192.15625 600 125 532.842773438 125 450.000976562 c 0
 125 367.159179688 192.15625 300.001953125 274.999023438 300.001953125 c 0
 357.841796875 300.001953125 424.998046875 367.159179688 424.998046875 450.000976562 c 0
 424.998046875 532.842773438 357.841796875 600 274.999023438 600 c 0
EndSplineSet
Validated: 8912929
EndChar

StartChar: S
Encoding: 83 83 45
Width: 500
Flags: W
HStem: -0.0378308 75.1063<179.922 319.175> 325 75<188.696 319.981> 600 74.964<188.091 311.931>
VStem: 50 75<130.019 234.255> 75.036 74.964<437.993 562.316> 350 75<465.745 561.304> 374.931 75.1063<130.825 270.078>
LayerCount: 2
Fore
SplineSet
396 597 m 0xea
 415 568 425 535 425 500 c 0
 425 479 408 462 388 462 c 0
 367 462 350 479 350 500 c 2
 350 520 344 539 333 556 c 0
 322 572 307 585 288 592 c 0
 276 597.333333333 263.111111111 600 249.925925926 600 c 0
 243.333333333 600 236.666666667 599.333333333 230 598 c 0
 211 594 193 585 179 571 c 0
 165 557 156 539 152 520 c 0
 150.666666667 513.333333333 150 506.666666667 150 500.074074074 c 0xec
 150 486.888888889 152.666666667 474 158 462 c 0
 165 443 178 428 194 417 c 0
 211 406 230 400 250 400 c 0
 290 400 328 388 361 366 c 0
 394 344 420 313 435 277 c 0
 444.928556845 252.509559781 450.037830796 226.704769682 450.037830796 200.745593926 c 0
 450.037830796 187.485813452 448.704769682 174.185752202 446 161 c 0
 438 122 419 87 391 59 c 0
 363 31 328 12 289 4 c 0
 275.814247798 1.29523031752 262.514186548 -0.0378307958435 249.254406074 -0.0378307958435 c 0
 223.295230318 -0.0378307958435 197.490440219 5.07144315464 173 15 c 0
 137 30 106 56 84 89 c 0
 62 122 50 160 50 200 c 0
 50 221 67 238 88 238 c 0
 108 238 125 221 125 200 c 0xf2
 125 175 132 151 146 131 c 0
 160 110 179 94 202 85 c 0
 217.717629822 78.1662479036 234.369262998 75.0685092244 250.997487421 75.0685092244 c 0
 258.701758805 75.0685092244 266.401005031 75.7335008386 274 77 c 0
 299 82 321 94 338 112 c 0
 356 129 368 151 373 176 c 0
 374.266499161 183.598994969 374.931490776 191.298241195 374.931490776 199.002512579 c 0
 374.931490776 215.630737002 371.833752096 232.282370178 365 248 c 0
 356 271 340 290 319 304 c 0
 299 318 275 325 250 325 c 0
 215 325 182 335 153 354 c 0
 124 374 102 401 88 433 c 0
 79.2559276902 454.523870301 75.0360447625 477.404997417 75.0360447625 500.426155529 c 0
 75.0360447625 511.631047346 76.0357256815 522.869112195 78 534 c 0
 85 568 102 599 126 624 c 0
 151 648 182 665 216 672 c 0
 227.130887805 673.964274319 238.368952654 674.963955237 249.573844471 674.963955237 c 0
 272.595002583 674.963955237 295.476129699 670.74407231 317 662 c 0
 349 648 376 626 396 597 c 0xea
EndSplineSet
Validated: 524289
EndChar

StartChar: T
Encoding: 84 84 46
Width: 550
Flags: W
HStem: 0 21G<264.645 285.355> 0 21G<264.645 285.355> 412.5 21G<77.145 97.855 452.145 472.855> 655 20G<260.227 289.773>
VStem: 50 74.9932<416.198 527.078> 237.5 75<3.69786 595.245> 425.007 74.9932<416.198 527.078>
CounterMasks: 1 0e
LayerCount: 2
Fore
SplineSet
67.1279296875 536.103515625 m 0xbe
 78.43359375 563.40234375 95.0068359375 588.206054688 115.901367188 609.098632812 c 0
 136.793945312 629.9921875 161.59765625 646.565429688 188.896484375 657.873046875 c 0
 216.1953125 669.180664062 245.453125 675 275 675 c 0
 304.546875 675 333.805664062 669.180664062 361.103515625 657.873046875 c 0
 388.40234375 646.565429688 413.206054688 629.9921875 434.098632812 609.098632812 c 0
 454.993164062 588.206054688 471.56640625 563.40234375 482.874023438 536.103515625 c 0
 494.1796875 508.8046875 500 479.546875 500 450 c 0
 500 429.2890625 483.209960938 412.5 462.5 412.5 c 0
 441.790039062 412.5 425 429.2890625 425.006835938 450 c 2
 425.005859375 450.66796875 l 2
 424.918945312 470.139648438 421.041992188 489.411132812 413.588867188 507.405273438 c 0
 406.049804688 525.60546875 395.000976562 542.141601562 381.072265625 556.071289062 c 0
 367.141601562 570.000976562 350.60546875 581.049804688 332.40625 588.588867188 c 0
 325.918945312 591.275390625 319.267578125 593.497070312 312.5 595.245117188 c 1
 312.5 37.5 l 2
 312.5 16.7890625 295.709960938 0 275 0 c 0
 254.290039062 0 237.5 16.7890625 237.5 37.5 c 2
 237.5 595.245117188 l 1
 230.732421875 593.497070312 224.081054688 591.275390625 217.594726562 588.588867188 c 0
 199.39453125 581.049804688 182.858398438 570.000976562 168.927734375 556.071289062 c 0
 154.999023438 542.141601562 143.950195312 525.60546875 136.411132812 507.405273438 c 0
 128.958007812 489.411132812 125.081054688 470.139648438 124.994140625 450.66796875 c 2
 124.993164062 450 l 2
 125 429.2890625 108.209960938 412.5 87.5 412.5 c 0
 66.7900390625 412.5 50 429.2890625 50 450 c 0
 50 479.546875 55.8203125 508.805664062 67.1279296875 536.103515625 c 0xbe
EndSplineSet
Validated: 524321
EndChar

StartChar: U
Encoding: 85 85 47
Width: 550
Flags: W
HStem: 0 74.9883<197.454 351.254> 655 20G<150.417 165.414 384.566 399.38>
VStem: 50 74.9873<148.263 570.391> 425.013 74.9873<147.085 570.482>
LayerCount: 2
Fore
SplineSet
192.55859375 637.499023438 m 0
 192.55859375 625.592773438 187.008789062 614.983398438 178.357421875 608.11328125 c 0
 154.977539062 588.420898438 138.16796875 562.05078125 130.186523438 532.53125 c 0
 126.724609375 519.728515625 124.99609375 506.602539062 124.987304688 493.493164062 c 2
 124.987304688 224.890625 l 2
 125 207.578125 128.009765625 190.296875 133.983398438 173.833984375 c 0
 144.506835938 144.833007812 163.71484375 119.78125 188.9921875 102.092773438 c 0
 214.268554688 84.404296875 244.384765625 74.9404296875 275.236328125 74.98828125 c 0
 306.0859375 75.0361328125 336.172851562 84.595703125 361.393554688 102.36328125 c 0
 386.615234375 120.130859375 405.745117188 145.243164062 416.176757812 174.27734375 c 0
 422.046875 190.614257812 425.001953125 207.745117188 425.012695312 224.90625 c 2
 425.012695312 493.474609375 l 2
 425.004882812 506.748046875 423.235351562 520.036132812 419.690429688 532.985351562 c 0
 411.686523438 562.217773438 395.0234375 588.329101562 371.90625 607.890625 c 2
 371.899414062 607.896484375 l 2
 363.08984375 614.7578125 357.421875 625.466796875 357.421875 637.499023438 c 0
 357.421875 658.2109375 374.2109375 675 394.921875 675 c 0
 403.837890625 675 412.029296875 671.887695312 418.463867188 666.690429688 c 1
 418.47265625 666.701171875 l 1
 454.1171875 637.194335938 479.798828125 597.416015625 492.014648438 552.78515625 c 0
 497.337890625 533.342773438 499.993164062 513.392578125 500 493.465820312 c 2
 500 224.915039062 l 2
 499.990234375 199.157226562 495.556640625 173.442382812 486.747070312 148.920898438 c 0
 471.099609375 105.373046875 442.407226562 67.708984375 404.579101562 41.0595703125 c 0
 366.75 14.4111328125 321.625976562 0.0732421875 275.352539062 0 c 0
 229.081054688 -0.072265625 183.911132812 14.1240234375 146 40.654296875 c 0
 108.086914062 67.18359375 79.27734375 104.7578125 63.494140625 148.255859375 c 0
 54.5283203125 172.9609375 50.0146484375 198.89453125 50 224.875976562 c 2
 50 493.505859375 l 2
 50.0107421875 513.18359375 52.603515625 532.887695312 57.798828125 552.102539062 c 0
 69.84765625 596.665039062 95.310546875 636.440429688 130.728515625 666.037109375 c 0
 137.278320312 671.625976562 145.774414062 675 155.05859375 675 c 0
 175.768554688 675 192.55859375 658.2109375 192.55859375 637.499023438 c 0
EndSplineSet
Validated: 524321
EndChar

StartChar: V
Encoding: 86 86 48
Width: 550
Flags: W
HStem: 0 21G<266.678 289.773> 0 21G<266.678 289.773> 655 20G<77.145 96.0591 452.145 472.855>
VStem: 425.007 74.9932<147.922 671.302>
LayerCount: 2
Fore
SplineSet
51.9716796875 625.469726562 m 2xb0
 50.693359375 629.24609375 50 633.291992188 50 637.5 c 0
 50 658.2109375 66.7900390625 675 87.5 675 c 0
 104.618164062 675 119.055664062 663.53125 123.55078125 647.858398438 c 2
 301.776367188 77.4013671875 l 1
 312.251953125 79.3017578125 322.521484375 82.3173828125 332.405273438 86.4111328125 c 0
 350.60546875 93.9501953125 367.141601562 104.999023438 381.072265625 118.928710938 c 0
 395.000976562 132.858398438 406.049804688 149.39453125 413.588867188 167.594726562 c 0
 421.127929688 185.793945312 425.006835938 205.30078125 425.006835938 225 c 2
 425 637.5 l 2
 425 658.2109375 441.790039062 675 462.5 675 c 0
 483.209960938 675 500 658.2109375 500 637.5 c 2
 500 225 l 2
 500 195.453125 494.1796875 166.194335938 482.874023438 138.896484375 c 0
 471.56640625 111.59765625 454.993164062 86.7939453125 434.098632812 65.9013671875 c 0
 413.206054688 45.0078125 388.40234375 28.43359375 361.103515625 17.126953125 c 0
 333.8046875 5.8203125 304.546875 0 275 0 c 0
 258.356445312 0 244.244140625 10.84375 239.34375 25.8525390625 c 1
 239.30859375 25.841796875 l 1
 51.9716796875 625.469726562 l 2xb0
EndSplineSet
Validated: 8912897
EndChar

StartChar: W
Encoding: 87 87 49
Width: 550
Flags: W
HStem: 0 21G<260.227 289.773> 0 21G<260.227 289.773> 655 20G<77.145 97.855 452.145 472.855>
VStem: 50 75<147.922 671.302> 237.5 75<79.7549 558.802> 425.007 74.9932<147.922 671.302>
LayerCount: 2
Fore
SplineSet
87.5 675 m 0xbc
 108.209960938 675 125 658.2109375 125 637.5 c 2
 125 225 l 2
 124.993164062 205.30078125 128.872070312 185.793945312 136.411132812 167.594726562 c 0
 143.950195312 149.39453125 154.999023438 132.858398438 168.927734375 118.928710938 c 0
 182.858398438 104.999023438 199.39453125 93.9501953125 217.594726562 86.4111328125 c 0
 224.081054688 83.724609375 230.732421875 81.5029296875 237.5 79.7548828125 c 1
 237.5 525 l 2
 237.5 545.7109375 254.290039062 562.5 275 562.5 c 0
 295.709960938 562.5 312.5 545.7109375 312.5 525 c 2
 312.5 79.7548828125 l 1
 319.267578125 81.5029296875 325.918945312 83.724609375 332.40625 86.4111328125 c 0
 350.60546875 93.9501953125 367.141601562 104.999023438 381.072265625 118.928710938 c 0
 395.000976562 132.858398438 406.049804688 149.39453125 413.588867188 167.594726562 c 0
 421.127929688 185.793945312 425.006835938 205.30078125 425.006835938 225 c 2
 425 637.5 l 2
 425 658.2109375 441.790039062 675 462.5 675 c 0
 483.209960938 675 500 658.2109375 500 637.5 c 2
 500 225 l 2
 500 195.453125 494.1796875 166.1953125 482.874023438 138.896484375 c 0
 471.56640625 111.59765625 454.993164062 86.7939453125 434.098632812 65.9013671875 c 0
 413.206054688 45.0078125 388.40234375 28.43359375 361.103515625 17.126953125 c 0
 333.805664062 5.8203125 304.546875 0 275 0 c 0
 245.453125 0 216.1953125 5.8203125 188.896484375 17.126953125 c 0
 161.59765625 28.43359375 136.793945312 45.0078125 115.901367188 65.9013671875 c 0
 95.0068359375 86.7939453125 78.43359375 111.59765625 67.1279296875 138.896484375 c 0
 55.8203125 166.194335938 50 195.453125 50 225 c 2
 50 637.5 l 2
 50 658.2109375 66.7900390625 675 87.5 675 c 0xbc
EndSplineSet
Validated: 8912929
EndChar

StartChar: X
Encoding: 88 88 50
Width: 550
Flags: W
HStem: 0 21G<77.145 97.855 452.145 472.855> 0 21G<77.145 97.855 452.145 472.855> 300.003 74.9941<197.676 352.324> 655 20G<77.145 97.855 452.145 472.855>
VStem: 50 75<3.69786 225.864 449.136 671.302> 425 75<3.69786 225.864 449.136 671.302>
LayerCount: 2
Fore
SplineSet
87.5 675 m 0xbc
 108.209960938 675 125 658.2109375 125 637.5 c 2
 125 525 l 2
 124.993164062 485.215820312 140.796875 447.060546875 168.927734375 418.928710938 c 0
 196.786132812 391.071289062 234.47265625 375.301757812 273.836914062 374.997070312 c 2
 275 374.9921875 l 1
 276.163085938 374.997070312 l 2
 315.52734375 375.301757812 353.213867188 391.071289062 381.072265625 418.928710938 c 0
 409.203125 447.060546875 425.006835938 485.215820312 425.006835938 525 c 2
 425 637.5 l 2
 425 658.2109375 441.790039062 675 462.5 675 c 0
 483.209960938 675 500 658.2109375 500 637.5 c 2
 500 525 l 2
 500 465.326171875 476.294921875 408.096679688 434.098632812 365.901367188 c 0
 423.418945312 355.220703125 411.776367188 345.725585938 399.375 337.5 c 1
 411.776367188 329.274414062 423.418945312 319.779296875 434.098632812 309.098632812 c 0
 476.294921875 266.903320312 500 209.673828125 500 150 c 2
 500 37.5 l 2
 500 16.7890625 483.209960938 0 462.5 0 c 0
 441.790039062 0 425 16.7890625 425 37.5 c 2
 425.006835938 150 l 2
 425.006835938 189.784179688 409.203125 227.939453125 381.072265625 256.071289062 c 0
 353.213867188 283.928710938 315.52734375 299.705078125 276.163085938 300.002929688 c 2
 275 300 l 1
 273.836914062 300.002929688 l 2
 234.47265625 299.705078125 196.786132812 283.928710938 168.927734375 256.071289062 c 0
 140.796875 227.939453125 124.993164062 189.784179688 125 150 c 2
 125 37.5 l 2
 125 16.7890625 108.209960938 0 87.5 0 c 0
 66.7900390625 0 50 16.7890625 50 37.5 c 2
 50 150 l 2
 50 209.673828125 73.705078125 266.903320312 115.901367188 309.098632812 c 0
 126.581054688 319.779296875 138.223632812 329.274414062 150.625 337.5 c 1
 138.223632812 345.725585938 126.581054688 355.220703125 115.901367188 365.901367188 c 0
 73.705078125 408.096679688 50 465.326171875 50 525 c 2
 50 637.5 l 2
 50 658.2109375 66.7900390625 675 87.5 675 c 0xbc
EndSplineSet
Validated: 8912929
EndChar

StartChar: Y
Encoding: 89 89 51
Width: 550
Flags: W
HStem: 0 21G<264.645 285.355> 0 21G<264.645 285.355> 655 20G<150.62 165.434 384.586 399.584>
VStem: 237.5 75<3.69786 276.186>
LayerCount: 2
Fore
SplineSet
192.578125 637.5 m 0xb0
 192.578125 625.46484375 186.908203125 614.75390625 178.09375 607.891601562 c 0
 154.9765625 588.330078125 138.313476562 562.219726562 130.309570312 532.98828125 c 0
 122.1640625 503.231445312 123.390625 471.686523438 133.823242188 442.653320312 c 0
 144.254882812 413.619140625 163.384765625 388.5078125 188.606445312 370.741210938 c 0
 213.828125 352.97265625 243.9140625 343.4140625 274.763671875 343.366210938 c 0
 305.615234375 343.317382812 335.731445312 352.782226562 361.0078125 370.469726562 c 0
 386.28515625 388.158203125 405.493164062 413.208984375 416.016601562 442.209960938 c 0
 426.541015625 471.2109375 427.866210938 502.750976562 419.813476562 532.533203125 c 0
 411.83203125 562.052734375 395.022460938 588.421875 371.642578125 608.114257812 c 0
 362.991210938 614.984375 357.44140625 625.59375 357.44140625 637.5 c 0
 357.44140625 658.2109375 374.231445312 675 394.94140625 675 c 0
 404.2265625 675 412.725585938 671.625 419.275390625 666.034179688 c 0
 454.692382812 636.438476562 480.153320312 596.665039062 492.201171875 552.10546875 c 0
 504.279296875 507.435546875 502.290039062 460.129882812 486.505859375 416.6328125 c 0
 470.72265625 373.134765625 441.913085938 335.561523438 404 309.032226562 c 0
 376.53125 289.80859375 345.249023438 277.061523438 312.5 271.526367188 c 1
 312.5 37.5 l 2
 312.5 16.7890625 295.709960938 0 275 0 c 0
 254.290039062 0 237.5 16.7890625 237.5 37.5 c 2
 237.5 271.526367188 l 1
 204.513671875 277.100585938 173.025390625 289.9921875 145.420898438 309.438476562 c 0
 107.592773438 336.086914062 78.900390625 373.75 63.2529296875 417.296875 c 0
 47.607421875 460.84375 45.7666015625 508.15625 57.984375 552.787109375 c 0
 70.2021484375 597.416992188 95.8828125 637.1953125 131.52734375 666.701171875 c 1
 131.536132812 666.690429688 l 1
 137.970703125 671.887695312 146.162109375 675 155.078125 675 c 0
 175.7890625 675 192.578125 658.2109375 192.578125 637.5 c 0xb0
EndSplineSet
Validated: 8912929
EndChar

StartChar: Z
Encoding: 90 90 52
Width: 550
Flags: W
HStem: 0.000976562 75.0039<128.537 390.708> 599.999 75<159.29 421.462>
VStem: 50 74.9922<472.447 565.08> 425.003 74.9951<109.92 202.553>
LayerCount: 2
Fore
SplineSet
387.499023438 674.999023438 m 2
 402.2734375 674.999023438 416.90234375 672.088867188 430.549804688 666.435546875 c 0
 444.200195312 660.78125 456.600585938 652.495117188 467.047851562 642.047851562 c 0
 477.495117188 631.6015625 485.78125 619.200195312 491.434570312 605.55078125 c 0
 497.087890625 591.90234375 499.998046875 577.2734375 499.998046875 562.499023438 c 0
 499.998046875 553.001953125 496.467773438 544.329101562 490.6484375 537.721679688 c 1
 490.65625 537.71484375 l 1
 126.7890625 101.067382812 l 2
 127.103515625 100.083007812 127.4609375 99.1103515625 127.857421875 98.15234375 c 0
 129.7421875 93.6025390625 132.504882812 89.46875 135.986328125 85.9873046875 c 0
 139.466796875 82.5048828125 143.600585938 79.7431640625 148.150390625 77.859375 c 0
 152.700195312 75.974609375 157.575195312 75.0048828125 162.5 75.0048828125 c 2
 332.43359375 75.0009765625 l 2
 356.87109375 75.3095703125 380.2421875 85.1513671875 397.544921875 102.454101562 c 0
 414.978515625 119.887695312 424.836914062 143.482421875 425.002929688 168.120117188 c 2
 425.005859375 168.750976562 l 2
 424.998046875 189.4609375 441.788085938 206.250976562 462.498046875 206.250976562 c 0
 483.208984375 206.250976562 499.998046875 189.4609375 499.998046875 168.750976562 c 0
 499.998046875 123.99609375 482.21875 81.07421875 450.572265625 49.4267578125 c 0
 419.219726562 18.0751953125 376.802734375 0.3291015625 332.499023438 0.0009765625 c 0
 332.083007812 -0.001953125 331.665039062 0.0009765625 331.249023438 0.0009765625 c 2
 162.5 0.0009765625 l 2
 147.724609375 0.0009765625 133.096679688 2.9111328125 119.448242188 8.5654296875 c 0
 105.798828125 14.21875 93.3974609375 22.5048828125 82.9501953125 32.9521484375 c 0
 72.50390625 43.3984375 64.2177734375 55.7998046875 58.5634765625 69.44921875 c 0
 52.91015625 83.09765625 50 97.7265625 50 112.500976562 c 0
 50 121.998046875 53.53125 130.670898438 59.3515625 137.278320312 c 1
 59.3427734375 137.28515625 l 1
 423.209960938 573.930664062 l 2
 422.89453125 574.916015625 422.538085938 575.888671875 422.140625 576.84765625 c 0
 420.255859375 581.397460938 417.494140625 585.53125 414.01171875 589.012695312 c 0
 410.53125 592.495117188 406.397460938 595.256835938 401.84765625 597.140625 c 0
 397.297851562 599.025390625 392.422851562 599.995117188 387.499023438 599.995117188 c 2
 217.563476562 599.999023438 l 2
 193.125976562 599.690429688 169.756835938 589.848632812 152.453125 572.545898438 c 0
 135.018554688 555.112304688 125.161132812 531.517578125 124.995117188 506.879882812 c 2
 124.9921875 506.249023438 l 2
 125 485.5390625 108.209960938 468.749023438 87.5 468.749023438 c 0
 66.7890625 468.749023438 50 485.5390625 50 506.249023438 c 0
 50 551.00390625 67.779296875 593.92578125 99.42578125 625.573242188 c 0
 130.778320312 656.924804688 173.1953125 674.670898438 217.499023438 674.999023438 c 2
 217.955078125 675 l 1
 218.749023438 674.999023438 l 1
 387.499023438 674.999023438 l 2
EndSplineSet
Validated: 8912929
EndChar

StartChar: Aring
Encoding: 197 197 53
Width: 550
Flags: W
HStem: 0 21G<77.1445 97.8555 452.145 472.855> 0 21G<77.1445 97.8555 452.145 472.855> 224.993 75.001<197.655 352.345> 599.997 75.001<197.514 352.486> 724.998 37.5273<243.543 306.457> 837.474 37.5264<243.543 306.457>
VStem: 50 75<3.69803 282.285 372.214 527.777> 200 37.5264<768.542 831.456> 312.474 37.5264<768.542 831.456> 425 75<3.69803 282.285 372.214 527.777>
LayerCount: 2
Fore
SplineSet
275 724.998046875 m 4x3fc0
 233.579101562 724.998046875 200 758.577148438 200 799.999023438 c 0
 200 841.420898438 233.579101562 875 275 875 c 0
 316.420898438 875 350 841.420898438 350 799.999023438 c 0
 350 758.577148438 316.420898438 724.998046875 275 724.998046875 c 4x3fc0
275 762.525390625 m 0
 295.696289062 762.525390625 312.473632812 779.302734375 312.473632812 799.999023438 c 0
 312.473632812 820.6953125 295.696289062 837.473632812 275 837.473632812 c 0
 254.303710938 837.473632812 237.526367188 820.6953125 237.526367188 799.999023438 c 0
 237.526367188 779.302734375 254.303710938 762.525390625 275 762.525390625 c 0
275 674.998046875 m 0
 398.970703125 674.998046875 499.525390625 574.735351562 499.998046875 450.874023438 c 2
 500 449.995117188 l 1
 500 37.5 l 2
 500 16.7900390625 483.2109375 0 462.5 0 c 0
 441.7890625 0 425 16.7900390625 425 37.5 c 2
 425 282.28515625 l 1
 385.193359375 246.657226562 332.626953125 224.993164062 275 224.993164062 c 0
 217.373046875 224.993164062 164.806640625 246.657226562 125 282.28515625 c 1
 125 37.5 l 2
 125 16.7900390625 108.2109375 0 87.5 0 c 0xbfc0
 66.7890625 0 50 16.7900390625 50 37.5 c 2
 50 450.874023438 l 2
 50.4736328125 574.735351562 151.029296875 674.998046875 275 674.998046875 c 0
275 299.994140625 m 0
 357.842773438 299.994140625 425 367.15234375 425 449.995117188 c 0
 425 532.838867188 357.842773438 599.997070312 275 599.997070312 c 0
 192.157226562 599.997070312 125 532.838867188 125 449.995117188 c 0
 125 367.15234375 192.157226562 299.994140625 275 299.994140625 c 0
EndSplineSet
Validated: 8912897
EndChar

StartChar: AE
Encoding: 198 198 54
Width: 550
Flags: W
HStem: 0 21G<77.144 97.854 287.14 297.903 299.983 313.223> 0 21G<77.144 97.854 287.14 297.903 299.983 313.223> 225.5 75.2441<196.751 259.996 334.995 397.229> 655 20G<245.16 320.093>
VStem: 50 74.999<3.69786 282.294 372.592 525.864> 259.996 74.999<75.9209 227.862 300.921 599.079>
LayerCount: 2
Fore
SplineSet
115.900390625 609.098632812 m 0xbc
 158.094726562 651.294921875 215.323242188 675 274.99609375 675 c 2
 319.995117188 675 l 2
 320.19140625 675 320.38671875 674.99609375 320.58203125 674.98828125 c 0
 352.875976562 674.665039062 384.734375 667.391601562 413.984375 653.653320312 c 0
 443.9609375 639.572265625 470.4609375 619.045898438 491.58984375 593.541015625 c 1
 491.58203125 593.536132812 l 1
 496.844726562 587.079101562 500 578.837890625 500 569.859375 c 0
 500 549.149414062 483.2109375 532.359375 462.500976562 532.359375 c 0
 450.536132812 532.359375 439.87890625 537.963867188 433.012695312 546.69140625 c 0
 419.063476562 563.236328125 401.697265625 576.571289062 382.1015625 585.775390625 c 0
 367.200195312 592.775390625 351.282226562 597.2578125 334.995117188 599.079101562 c 1
 334.995117188 300.920898438 l 1
 351.282226562 302.7421875 367.19921875 307.224609375 382.100585938 314.224609375 c 0
 401.706054688 323.432617188 419.079101562 336.776367188 433.030273438 353.331054688 c 0
 439.896484375 362.044921875 450.544921875 367.639648438 462.500976562 367.639648438 c 0
 483.2109375 367.639648438 500 350.850585938 500 330.139648438 c 0
 500 321.162109375 496.844726562 312.919921875 491.58203125 306.463867188 c 1
 491.58984375 306.458984375 l 1
 470.459960938 280.954101562 443.9609375 260.427734375 413.984375 246.346679688 c 0
 389.095703125 234.657226562 362.321289062 227.6484375 334.995117188 225.618164062 c 1
 334.995117188 75.9208984375 l 1
 351.282226562 77.7421875 367.200195312 82.224609375 382.1015625 89.224609375 c 0
 401.697265625 98.4296875 419.064453125 111.765625 433.013671875 128.310546875 c 0
 439.879882812 137.037109375 450.537109375 142.639648438 462.500976562 142.639648438 c 0
 483.2109375 142.639648438 500 125.850585938 500 105.139648438 c 0
 500 96.162109375 496.844726562 87.919921875 491.58203125 81.4638671875 c 1
 491.58984375 81.458984375 l 1
 470.4609375 55.9541015625 443.9609375 35.427734375 413.984375 21.3466796875 c 0
 389.095703125 9.6572265625 362.321289062 2.6484375 334.995117188 0.6181640625 c 2
 334.995117188 0.6181640625 326.450195312 0 299.995117188 0 c 0
 299.971679688 0.0263671875 299.950195312 0.0517578125 299.926757812 0.078125 c 0
 299.122070312 0.0263671875 298.311523438 0 297.495117188 0 c 0
 276.78515625 0 259.99609375 16.7890625 259.99609375 37.5 c 2
 259.99609375 225.5 l 1
 209.953125 228.841796875 162.415039062 248.825195312 124.999023438 282.293945312 c 1
 124.999023438 37.5 l 2
 124.999023438 16.7890625 108.208984375 0 87.4990234375 0 c 0
 66.7890625 0 50 16.7890625 50 37.5 c 2
 50 450 l 2
 50 509.672851562 73.7041015625 566.903320312 115.900390625 609.098632812 c 0xbc
259.99609375 599.255859375 m 1
 225.720703125 595.813476562 193.499023438 580.64453125 168.92578125 556.071289062 c 0
 140.794921875 527.939453125 124.991210938 489.784179688 124.991210938 450 c 2
 124.999023438 448.516601562 l 2
 125.38671875 409.267578125 141.146484375 371.7109375 168.92578125 343.928710938 c 0
 193.499023438 319.35546875 225.721679688 304.186523438 259.99609375 300.744140625 c 1
 259.99609375 599.255859375 l 1
EndSplineSet
Validated: 524289
EndChar

StartChar: Oslash
Encoding: 216 216 55
Width: 550
Flags: W
HStem: 0 74.9922<197.504 352.497> 600.009 74.9912<197.504 352.497>
VStem: 50.001 75<147.086 527.917> 425 75<147.086 527.917>
LayerCount: 2
Fore
SplineSet
500 451.250976562 m 2
 500 225.001953125 l 2
 500 224.584960938 500.001953125 224.16796875 500 223.751953125 c 0
 499.861328125 198.59765625 495.499023438 173.670898438 487.131835938 150.001953125 c 0
 485.811523438 146.267578125 484.391601562 142.565429688 482.872070312 138.8984375 c 0
 471.56640625 111.599609375 454.993164062 86.794921875 434.098632812 65.90234375 c 0
 413.206054688 45.0087890625 388.40234375 28.43359375 361.103515625 17.126953125 c 0
 333.8046875 5.8203125 304.546875 0 275 0 c 0
 245.453125 0 216.196289062 5.8203125 188.897460938 17.126953125 c 0
 169.723632812 25.0693359375 151.78125 35.609375 135.55859375 48.419921875 c 1
 115.6484375 16.6884765625 l 2
 105.21875 0.0703125 83.2939453125 -4.9482421875 66.67578125 5.48046875 c 0
 50.0576171875 15.908203125 45.0390625 37.8330078125 55.4658203125 54.4521484375 c 2
 85.939453125 103.013671875 l 1
 78.6201171875 114.359375 72.3193359375 126.366210938 67.12890625 138.8984375 c 0
 65.609375 142.565429688 64.189453125 146.267578125 62.8681640625 150.001953125 c 0
 54.501953125 173.670898438 50.140625 198.59765625 50.0009765625 223.751953125 c 0
 49.9990234375 224.16796875 50.0009765625 224.584960938 50.0009765625 225.001953125 c 2
 50.0009765625 450.000976562 l 2
 50.0009765625 450.416992188 49.9990234375 450.833984375 50.0009765625 451.250976562 c 0
 50.140625 476.405273438 54.501953125 501.33203125 62.8681640625 525.000976562 c 0
 64.189453125 528.734375 65.609375 532.436523438 67.12890625 536.103515625 c 0
 78.4345703125 563.40234375 95.0078125 588.206054688 115.90234375 609.098632812 c 0
 136.794921875 629.9921875 161.598632812 646.565429688 188.897460938 657.873046875 c 0
 216.196289062 669.180664062 245.453125 675 275 675 c 0
 304.546875 675 333.8046875 669.180664062 361.103515625 657.873046875 c 0
 380.268554688 649.934570312 398.204101562 639.401367188 414.419921875 626.598632812 c 1
 434.319335938 658.310546875 l 2
 444.74609375 674.928710938 466.671875 679.947265625 483.291015625 669.51953125 c 0
 499.909179688 659.090820312 504.927734375 637.166015625 494.499023438 620.546875 c 2
 464.043945312 572.013671875 l 1
 471.37109375 560.662109375 477.677734375 548.647460938 482.872070312 536.103515625 c 0
 484.391601562 532.436523438 485.811523438 528.734375 487.131835938 525.000976562 c 0
 495.499023438 501.33203125 499.861328125 476.405273438 500 451.250976562 c 2
136.411132812 507.40625 m 0
 129.033203125 489.591796875 125.162109375 470.525390625 125.000976562 451.250976562 c 2
 125.000976562 223.751953125 l 2
 125.162109375 204.477539062 129.033203125 185.411132812 136.411132812 167.595703125 c 0
 143.950195312 149.396484375 155 132.859375 168.928710938 118.9296875 c 0
 182.858398438 105 199.39453125 93.9501953125 217.594726562 86.4111328125 c 0
 235.794921875 78.873046875 255.30078125 74.9921875 275 74.9921875 c 0
 294.700195312 74.9921875 314.206054688 78.873046875 332.40625 86.4111328125 c 0
 350.606445312 93.9501953125 367.141601562 105 381.072265625 118.9296875 c 0
 395.000976562 132.859375 406.05078125 149.396484375 413.58984375 167.595703125 c 0
 420.967773438 185.411132812 424.838867188 204.477539062 425 223.751953125 c 2
 425 451.250976562 l 2
 424.838867188 470.525390625 420.967773438 489.591796875 413.58984375 507.40625 c 0
 406.05078125 525.606445312 395.000976562 542.142578125 381.072265625 556.072265625 c 0
 367.141601562 570.001953125 350.606445312 581.05078125 332.40625 588.58984375 c 0
 314.206054688 596.12890625 294.700195312 600.008789062 275 600.008789062 c 0
 255.30078125 600.008789062 235.794921875 596.12890625 217.594726562 588.58984375 c 0
 199.39453125 581.05078125 182.858398438 570.001953125 168.928710938 556.072265625 c 0
 155 542.142578125 143.950195312 525.606445312 136.411132812 507.40625 c 0
EndSplineSet
Validated: 524321
EndChar

StartChar: oslash
Encoding: 248 248 56
Width: 550
Flags: W
HStem: 0 75<197.227 352.571> 0 21G<77.145 92.9277> 375 75<197.429 352.773> 418.033 20G<415 435.018>
VStem: 50 75<147.227 302.571> 425 75<147.429 302.772>
LayerCount: 2
Fore
SplineSet
500 225 m 0x2c
 500 100.736328125 399.263671875 0 275 0 c 0xac
 226.40625 0 181.411132812 15.4052734375 144.629882812 41.5966796875 c 1
 115 11.966796875 l 1
 114.982421875 11.9853515625 l 1
 108.133789062 4.61328125 98.35546875 0 87.5 0 c 0
 66.7900390625 0 50 16.7890625 50 37.5 c 0
 50 48.35546875 54.61328125 58.1337890625 61.9853515625 64.9814453125 c 1
 61.966796875 65 l 1
 91.5966796875 94.6298828125 l 1
 65.404296875 131.411132812 50 176.40625 50 225 c 0
 50 349.263671875 150.736328125 450 275 450 c 0x6c
 323.59375 450 368.588867188 434.594726562 405.370117188 408.403320312 c 1
 435 438.033203125 l 1x1c
 435.017578125 438.014648438 l 1
 441.866210938 445.38671875 451.643554688 450 462.5 450 c 0
 483.209960938 450 500 433.209960938 500 412.5 c 0
 500 401.643554688 495.38671875 391.866210938 488.014648438 385.017578125 c 1
 488.033203125 385 l 1
 458.403320312 355.370117188 l 1
 484.595703125 318.588867188 500 273.592773438 500 225 c 0x2c
425 225 m 0
 425 307.842773438 357.842773438 375 275 375 c 0
 192.157226562 375 125 307.842773438 125 225 c 0
 125 142.157226562 192.157226562 75 275 75 c 0
 357.842773438 75 425 142.157226562 425 225 c 0
EndSplineSet
Validated: 8912897
EndChar

StartChar: aring
Encoding: 229 229 57
Width: 550
Flags: W
HStem: 0 75<197.429 352.345> 0 21G<452.145 472.855> 375 75<197.429 352.571> 525 37.5264<243.543 306.457> 637.474 37.5264<243.543 306.457>
VStem: 50 75<147.429 302.571> 200 37.5264<568.543 631.457> 312.474 37.5264<568.543 631.457> 425 75<3.69786 57.292 147.22 302.362>
LayerCount: 2
Fore
SplineSet
275 525 m 0x3f80
 233.579101562 525 200 558.578125 200 600 c 0
 200 641.420898438 233.579101562 675 275 675 c 0
 316.420898438 675 350 641.420898438 350 600 c 0
 350 558.578125 316.420898438 525 275 525 c 0x3f80
275 562.526367188 m 0
 295.696289062 562.526367188 312.473632812 579.302734375 312.473632812 600 c 0
 312.473632812 620.696289062 295.696289062 637.473632812 275 637.473632812 c 0
 254.303710938 637.473632812 237.526367188 620.696289062 237.526367188 600 c 0
 237.526367188 579.302734375 254.303710938 562.526367188 275 562.526367188 c 0
462.5 0 m 0x7f80
 441.790039062 0 425 16.7890625 425 37.5 c 2
 425 57.2919921875 l 1
 385.193359375 21.6640625 332.626953125 0 275 0 c 0xbf80
 150.736328125 0 50 100.736328125 50 225 c 0
 50 349.263671875 150.736328125 450 275 450 c 0
 399.263671875 450 500 349.263671875 500 225 c 2
 500 37.5 l 2
 500 16.7890625 483.209960938 0 462.5 0 c 0x7f80
275 75 m 0
 357.842773438 75 425 142.157226562 425 225 c 0
 425 307.842773438 357.842773438 375 275 375 c 0
 192.157226562 375 125 307.842773438 125 225 c 0
 125 142.157226562 192.157226562 75 275 75 c 0
EndSplineSet
Validated: 8912897
EndChar

StartChar: ae
Encoding: 230 230 58
Width: 531
Flags: W
VStem: 237.499 75<79.7646 140.591 240.275 370.234>
LayerCount: 2
Fore
SplineSet
309.474609375 2.6572265625 m 0
 262.274414062 -4.662109375 213.967773438 3.2314453125 171.549804688 25.1923828125 c 0
 129.1328125 47.1533203125 94.8056640625 82.0439453125 73.5361328125 124.811523438 c 0
 52.267578125 167.581054688 45.162109375 216.008789062 53.2470703125 263.084960938 c 0
 61.3310546875 310.161132812 84.189453125 353.443359375 118.5078125 386.6640625 c 0
 152.828125 419.885742188 196.831054688 441.323242188 244.143554688 447.874023438 c 0
 291.458007812 454.423828125 339.629882812 445.747070312 381.68359375 423.098632812 c 0
 423.317382812 400.677734375 456.818359375 365.715820312 477.443359375 323.19140625 c 0
 480.1796875 317.984375 481.728515625 312.0546875 481.728515625 305.764648438 c 0
 481.728515625 294.366210938 476.641601562 284.155273438 468.616210938 277.27734375 c 2
 312.499023438 140.590820312 l 1
 312.499023438 79.7646484375 l 1
 338.35546875 86.44140625 362.0546875 99.92578125 381.064453125 118.934570312 c 0
 387.901367188 126.173828125 397.594726562 130.68359375 408.336914062 130.68359375 c 0
 429.046875 130.68359375 445.836914062 113.89453125 445.836914062 93.18359375 c 0
 445.836914062 82.4423828125 441.319335938 72.75390625 434.081054688 65.91796875 c 1
 434.09765625 65.9013671875 l 1
 400.323242188 32.1259765625 356.674804688 9.9755859375 309.474609375 2.6572265625 c 0
396.1171875 313.486328125 m 1
 382.98046875 331.466796875 365.931640625 346.39453125 346.12109375 357.064453125 c 0
 336.090820312 362.465820312 325.538085938 366.67578125 314.67578125 369.655273438 c 0
 313.952148438 369.853515625 313.225585938 370.046875 312.499023438 370.234375 c 1
 312.499023438 240.275390625 l 1
 396.1171875 313.486328125 l 1
170.672851562 332.774414062 m 0
 147.793945312 310.626953125 132.556640625 281.7734375 127.166015625 250.388671875 c 0
 121.77734375 219.005859375 126.514648438 186.720703125 140.693359375 158.208984375 c 0
 154.87109375 129.697265625 177.756835938 106.436523438 206.03515625 91.796875 c 0
 216.095703125 86.5869140625 226.655273438 82.56640625 237.499023438 79.7646484375 c 1
 237.499023438 370.234375 l 1
 212.452148438 363.766601562 189.400390625 350.90234375 170.672851562 332.774414062 c 0
EndSplineSet
Validated: 524321
EndChar

StartChar: zero
Encoding: 48 48 59
Width: 550
Flags: W
HStem: 0 74.9922<197.505 352.499> 299.996 75<241.2 308.804> 600.008 74.9922<197.505 352.499>
VStem: 50.001 75<147.084 527.916> 237.502 75<303.694 371.298> 425.001 75<147.083 527.916>
LayerCount: 2
Fore
SplineSet
275.001953125 299.99609375 m 0
 254.291992188 299.99609375 237.501953125 316.786132812 237.501953125 337.49609375 c 0
 237.501953125 358.20703125 254.291992188 374.99609375 275.001953125 374.99609375 c 0
 295.712890625 374.99609375 312.501953125 358.20703125 312.501953125 337.49609375 c 0
 312.501953125 316.786132812 295.712890625 299.99609375 275.001953125 299.99609375 c 0
487.1328125 525 m 0
 495.501953125 501.331054688 499.861328125 476.404296875 500.000976562 451.25 c 0
 500.00390625 450.833007812 500.000976562 450.416992188 500.000976562 450 c 2
 500.000976562 225 l 1
 500.001953125 224.583007812 l 2
 500.001953125 224.305664062 500.002929688 224.028320312 500.000976562 223.75 c 0
 499.861328125 198.595703125 495.501953125 173.668945312 487.1328125 150 c 0
 485.813476562 146.265625 484.392578125 142.563476562 482.874023438 138.896484375 c 0
 471.567382812 111.59765625 454.993164062 86.7939453125 434.099609375 65.9013671875 c 0
 413.20703125 45.0078125 388.403320312 28.43359375 361.10546875 17.126953125 c 0
 333.806640625 5.8203125 304.547851562 0 275.000976562 0 c 0
 245.454101562 0 216.196289062 5.8203125 188.8984375 17.126953125 c 0
 161.598632812 28.43359375 136.795898438 45.0078125 115.90234375 65.9013671875 c 0
 95.0087890625 86.7939453125 78.435546875 111.59765625 67.1279296875 138.896484375 c 0
 65.609375 142.563476562 64.189453125 146.265625 62.869140625 150 c 0
 54.5009765625 173.668945312 50.140625 198.595703125 50.0009765625 223.75 c 2
 50 224.188476562 l 1
 50.0009765625 225 l 1
 50.0009765625 450 l 1
 50 450.939453125 l 1
 50.0009765625 451.25 l 2
 50.140625 476.404296875 54.5009765625 501.331054688 62.869140625 525 c 0
 64.189453125 528.734375 65.609375 532.436523438 67.1279296875 536.103515625 c 0
 78.435546875 563.40234375 95.0087890625 588.206054688 115.90234375 609.098632812 c 0
 136.795898438 629.9921875 161.598632812 646.565429688 188.8984375 657.873046875 c 0
 216.196289062 669.180664062 245.454101562 675 275.000976562 675 c 0
 304.547851562 675 333.806640625 669.180664062 361.10546875 657.873046875 c 0
 388.403320312 646.565429688 413.20703125 629.9921875 434.099609375 609.098632812 c 0
 454.993164062 588.206054688 471.567382812 563.40234375 482.874023438 536.103515625 c 0
 484.392578125 532.436523438 485.813476562 528.734375 487.1328125 525 c 0
125.000976562 451.25 m 2
 125.000976562 223.75 l 2
 125.162109375 204.475585938 129.032226562 185.409179688 136.412109375 167.59375 c 0
 143.950195312 149.393554688 154.999023438 132.858398438 168.928710938 118.927734375 c 0
 182.859375 104.998046875 199.396484375 93.94921875 217.594726562 86.41015625 c 0
 235.794921875 78.8720703125 255.301757812 74.9921875 275.000976562 74.9921875 c 0
 294.700195312 74.9921875 314.20703125 78.8720703125 332.407226562 86.41015625 c 0
 350.607421875 93.94921875 367.143554688 104.998046875 381.073242188 118.927734375 c 0
 395.002929688 132.857421875 406.051757812 149.393554688 413.590820312 167.59375 c 0
 420.969726562 185.409179688 424.840820312 204.475585938 425.000976562 223.75 c 2
 425.000976562 451.25 l 2
 424.840820312 470.524414062 420.969726562 489.590820312 413.590820312 507.40625 c 0
 406.051757812 525.606445312 395.002929688 542.141601562 381.073242188 556.072265625 c 0
 367.143554688 570.001953125 350.607421875 581.05078125 332.407226562 588.58984375 c 0
 314.20703125 596.127929688 294.700195312 600.0078125 275.000976562 600.0078125 c 0
 255.301757812 600.0078125 235.794921875 596.127929688 217.594726562 588.58984375 c 0
 199.396484375 581.05078125 182.859375 570.001953125 168.928710938 556.072265625 c 0
 154.999023438 542.141601562 143.950195312 525.606445312 136.412109375 507.40625 c 0
 129.032226562 489.590820312 125.162109375 470.524414062 125.000976562 451.25 c 2
EndSplineSet
Validated: 524289
EndChar

StartChar: one
Encoding: 49 49 60
Width: 441
Flags: W
HStem: 0 21G<205.97 235.518> 0 21G<205.97 235.518> 655 20G<205.969 231.098>
VStem: 183.244 75<79.752 595.245>
LayerCount: 2
Fore
SplineSet
134.637695312 657.873046875 m 0xb0
 161.936523438 669.180664062 191.1953125 675 220.7421875 675 c 0
 241.453125 675 258.244140625 658.2109375 258.244140625 637.5 c 2
 258.244140625 79.751953125 l 1
 265.01171875 81.4990234375 271.6640625 83.720703125 278.150390625 86.408203125 c 0
 296.349609375 93.947265625 312.887695312 104.99609375 326.817382812 118.92578125 c 1
 326.8203125 118.923828125 l 1
 333.651367188 126.098632812 343.294921875 130.572265625 353.984375 130.572265625 c 0
 374.6953125 130.572265625 391.484375 113.782226562 391.484375 93.072265625 c 0
 391.484375 82.3828125 387.01171875 72.73828125 379.836914062 65.9072265625 c 1
 379.842773438 65.9013671875 l 1
 358.94921875 45.0078125 334.146484375 28.43359375 306.846679688 17.126953125 c 0
 279.548828125 5.8203125 250.291015625 0 220.744140625 0 c 0
 191.196289062 0 161.938476562 5.8203125 134.639648438 17.126953125 c 0
 107.341796875 28.43359375 82.5380859375 45.0078125 61.64453125 65.9013671875 c 1
 61.6494140625 65.90625 l 1
 54.47265625 72.7373046875 50 82.3818359375 50 93.072265625 c 0
 50 113.782226562 66.7890625 130.572265625 87.5 130.572265625 c 0
 98.189453125 130.572265625 107.834960938 126.098632812 114.666015625 118.921875 c 1
 114.669921875 118.92578125 l 1
 128.599609375 104.997070312 145.13671875 93.947265625 163.336914062 86.408203125 c 0
 169.823242188 83.720703125 176.475585938 81.4990234375 183.244140625 79.751953125 c 1
 183.244140625 595.245117188 l 1
 176.475585938 593.498046875 169.823242188 591.276367188 163.336914062 588.588867188 c 0
 145.13671875 581.049804688 128.599609375 570.000976562 114.670898438 556.071289062 c 1
 114.665039062 556.077148438 l 1
 107.833984375 548.901367188 98.189453125 544.427734375 87.5 544.427734375 c 0
 66.7890625 544.427734375 50 561.217773438 50 581.927734375 c 0
 50 592.618164062 54.47265625 602.262695312 61.6484375 609.09375 c 1
 61.6435546875 609.098632812 l 1
 82.5361328125 629.9921875 107.33984375 646.565429688 134.637695312 657.873046875 c 0xb0
EndSplineSet
Validated: 8912897
EndChar

StartChar: two
Encoding: 50 50 61
Width: 525
Flags: W
HStem: 0 75<183.043 471.614>
VStem: 400.173 74.9082<372.001 528.273>
LayerCount: 2
Fore
SplineSet
55.4794921875 562.5 m 0
 71.6064453125 590.432617188 93.55078125 614.572265625 119.82421875 633.28125 c 0
 146.09765625 651.990234375 176.086914062 664.831054688 207.7578125 670.934570312 c 0
 239.4296875 677.038085938 272.04296875 676.260742188 303.387695312 668.65625 c 0
 334.732421875 661.05078125 364.076171875 646.794921875 389.427734375 626.856445312 c 0
 414.78125 606.916992188 435.549804688 581.759765625 450.328125 553.08984375 c 0
 465.107421875 524.420898438 473.547851562 492.909179688 475.081054688 460.692382812 c 0
 476.614257812 428.473632812 471.202148438 396.302734375 459.211914062 366.361328125 c 0
 447.221679688 336.41796875 428.93359375 309.403320312 405.588867188 287.147460938 c 2
 183.04296875 75 l 1
 437.811523438 75 l 2
 458.5234375 75 475.311523438 58.2109375 475.311523438 37.5 c 0
 475.311523438 16.7890625 458.5234375 0 437.811523438 0 c 2
 89.4140625 0 l 1
 89.4140625 0.009765625 l 1
 89.36328125 0.009765625 l 2
 68.65234375 0.009765625 51.86328125 16.798828125 51.86328125 37.509765625 c 0
 51.86328125 48.3759765625 56.484375 58.162109375 63.8681640625 65.0107421875 c 2
 353.84765625 341.444335938 l 1
 353.85546875 341.436523438 l 1
 369.4140625 356.2734375 381.6015625 374.280273438 389.592773438 394.23828125 c 0
 397.586914062 414.200195312 401.1953125 435.649414062 400.172851562 457.127929688 c 0
 399.151367188 478.608398438 393.5234375 499.6171875 383.670898438 518.73046875 c 0
 373.818359375 537.84375 359.970703125 554.616210938 343.069335938 567.91015625 c 0
 326.166015625 581.203125 306.602539062 590.708007812 285.705078125 595.778320312 c 0
 264.807617188 600.84765625 243.064453125 601.366210938 221.94921875 597.296875 c 0
 200.833984375 593.227539062 180.83984375 584.666992188 163.323242188 572.193359375 c 0
 145.806640625 559.719726562 131.176757812 543.626953125 120.424804688 525.00390625 c 0
 114.059570312 513.364257812 101.702148438 505.46875 87.5 505.46875 c 0
 66.7890625 505.46875 50 522.2578125 50 542.96875 c 0
 50 550.124023438 52.001953125 556.811523438 55.4794921875 562.5 c 0
EndSplineSet
Validated: 524321
EndChar

StartChar: three
Encoding: 51 51 62
Width: 533
Flags: W
HStem: 0.105469 74.9561<180.92 336.177> 372.263 74.6348<192.763 339.681>
VStem: 408.183 74.8076<146.826 303.238>
LayerCount: 2
Fore
SplineSet
109.284179688 600.751953125 m 2
 109.452148438 600.977539062 109.622070312 601.201171875 109.794921875 601.422851562 c 0
 139.80859375 640.657226562 184.103515625 666.473632812 233.061523438 673.236328125 c 0
 282.322265625 680.040039062 332.267578125 666.997070312 371.911132812 636.975585938 c 0
 411.5546875 606.954101562 437.649414062 562.4140625 444.453125 513.154296875 c 0
 450.625 468.469726562 440.46484375 423.221679688 416.1171875 385.611328125 c 1
 425.05859375 376.837890625 433.288085938 367.298828125 440.701171875 357.075195312 c 0
 465.389648438 323.024414062 480.041015625 282.736328125 482.990234375 240.780273438 c 0
 485.940429688 198.82421875 477.071289062 156.881835938 457.389648438 119.711914062 c 0
 437.708007812 82.5419921875 408.002929688 51.6328125 371.642578125 30.4912109375 c 0
 335.284179688 9.349609375 293.725585938 -1.1767578125 251.686523438 0.10546875 c 0
 209.647460938 1.38671875 168.807617188 14.42578125 133.8046875 37.744140625 c 0
 98.923828125 60.978515625 71.228515625 93.494140625 53.8369140625 131.620117188 c 0
 51.3798828125 136.610351562 50 142.225585938 50 148.1640625 c 0
 50 168.875 66.7890625 185.6640625 87.5 185.6640625 c 0
 102.959960938 185.6640625 116.235351562 176.30859375 121.971679688 162.951171875 c 0
 133.560546875 137.443359375 152.061523438 115.690429688 175.380859375 100.15625 c 0
 198.717773438 84.6103515625 225.9453125 75.9169921875 253.971679688 75.0615234375 c 0
 282 74.2080078125 309.706054688 81.2255859375 333.947265625 95.3212890625 c 0
 358.188476562 109.416015625 377.993164062 130.0234375 391.115234375 154.803710938 c 0
 404.236328125 179.5859375 410.149414062 207.548828125 408.182617188 235.51953125 c 0
 406.215820312 263.4921875 396.44921875 290.352539062 379.989257812 313.053710938 c 0
 363.529296875 335.755859375 341.03515625 353.388671875 315.060546875 363.954101562 c 0
 289.21484375 374.465820312 260.952148438 377.559570312 233.44921875 372.892578125 c 0
 231.216796875 372.478515625 228.916015625 372.262695312 226.565429688 372.262695312 c 0
 205.853515625 372.262695312 189.065429688 389.051757812 189.065429688 409.76171875 c 0
 189.065429688 428.689453125 203.0859375 444.340820312 221.307617188 446.897460938 c 0
 262.432617188 453.797851562 304.673828125 449.135742188 343.314453125 433.419921875 c 0
 347.09765625 431.880859375 350.83203125 430.2421875 354.513671875 428.505859375 c 1
 368.143554688 450.637695312 373.75 476.923828125 370.163085938 502.892578125 c 0
 366.080078125 532.450195312 350.422851562 559.174804688 326.635742188 577.189453125 c 0
 302.848632812 595.202148438 272.879882812 603.029296875 243.323242188 598.946289062 c 0
 214.084960938 594.908203125 187.618164062 579.54296875 169.61328125 556.186523438 c 0
 162.787109375 546.911132812 151.791992188 540.891601562 139.390625 540.891601562 c 0
 118.680664062 540.891601562 101.890625 557.681640625 101.890625 578.391601562 c 0
 101.890625 586.74609375 104.623046875 594.4609375 109.241210938 600.694335938 c 2
 109.284179688 600.751953125 l 2
EndSplineSet
Validated: 524321
EndChar

StartChar: four
Encoding: 52 52 63
Width: 550
Flags: W
HStem: 0 21G<452.145 472.855> 0 21G<452.145 472.855> 268.795 74.8438<197.186 352.862> 655 20G<150.333 165.434 452.145 472.855>
VStem: 51.7764 74.4004<413.99 572.74> 425 75<3.69786 325.645 415.959 671.302>
LayerCount: 2
Fore
SplineSet
192.578125 637.5 m 0xbc
 192.578125 626.0546875 187.450195312 615.805664062 179.366210938 608.927734375 c 1
 179.370117188 608.922851562 l 1
 159.904296875 592.81640625 144.821289062 572.051757812 135.522460938 548.55859375 c 0
 126.22265625 525.06640625 123.0078125 499.60546875 126.176757812 474.538085938 c 0
 129.344726562 449.470703125 138.793945312 425.610351562 153.647460938 405.169921875 c 0
 168.5 384.73046875 188.274414062 368.373046875 211.13671875 357.616210938 c 0
 233.999023438 346.859375 259.208007812 342.05078125 284.424804688 343.638671875 c 0
 309.640625 345.225585938 334.047851562 353.158203125 355.380859375 366.697265625 c 0
 376.713867188 380.236328125 394.282226562 398.944335938 406.454101562 421.084960938 c 0
 418.381835938 442.784179688 424.750976562 467.091796875 425 491.836914062 c 2
 425 637.5 l 2
 425 658.2109375 441.7890625 675 462.5 675 c 0
 483.2109375 675 500 658.2109375 500 637.5 c 2
 500 37.5 l 2
 500 16.7890625 483.2109375 0 462.5 0 c 0
 441.7890625 0 425 16.7890625 425 37.5 c 2
 425 325.64453125 l 1
 415.846679688 317.458007812 406.006835938 310.005859375 395.56640625 303.37890625 c 0
 363.568359375 283.072265625 326.958984375 271.17578125 289.135742188 268.794921875 c 0
 251.313476562 266.413085938 213.501953125 273.625 179.209960938 289.758789062 c 0
 144.91796875 305.893554688 115.256835938 330.427734375 92.9794921875 361.086914062 c 0
 70.7021484375 391.74609375 56.529296875 427.53515625 51.7763671875 465.1328125 c 0
 47.0234375 502.732421875 51.8447265625 540.921875 65.79296875 576.16015625 c 0
 79.5419921875 610.89453125 101.719726562 641.651367188 130.317382812 665.663085938 c 0
 136.921875 671.474609375 145.587890625 675 155.078125 675 c 0
 175.7890625 675 192.578125 658.2109375 192.578125 637.5 c 0xbc
EndSplineSet
Validated: 8912929
EndChar

StartChar: five
Encoding: 53 53 64
Width: 504
Flags: W
HStem: 374.867 74.9229<151.257 307.07> 580.004 70.4814<329.115 413.39>
LayerCount: 2
Fore
SplineSet
86.3466796875 362.366210938 m 1
 68.3310546875 404.967773438 63.8828125 452.086914062 73.6083984375 497.307617188 c 0
 83.333984375 542.529296875 106.759765625 583.653320312 140.697265625 615.08203125 c 0
 174.633789062 646.510742188 217.432617188 666.716796875 263.265625 672.948242188 c 0
 308.680664062 679.123046875 354.887695312 671.280273438 395.708984375 650.485351562 c 0
 405.875976562 645.495117188 413.671875 635.9765625 416.012695312 624.00390625 c 0
 419.98828125 603.678710938 406.733398438 583.978515625 386.408203125 580.00390625 c 0
 377.608398438 578.283203125 368.92578125 579.791992188 361.586914062 583.705078125 c 0
 334.391601562 597.538085938 303.6171875 602.751953125 273.369140625 598.639648438 c 0
 242.811523438 594.485351562 214.278320312 581.013671875 191.65234375 560.059570312 c 0
 169.02734375 539.107421875 153.408203125 511.689453125 146.923828125 481.540039062 c 0
 143.497070312 465.602539062 142.709960938 449.311523438 144.50390625 433.298828125 c 1
 168.366210938 443.043945312 193.846679688 448.666015625 219.858398438 449.790039062 c 0
 263.396484375 451.670898438 306.543945312 440.869140625 344.059570312 418.694335938 c 0
 381.576171875 396.518554688 411.844726562 363.926757812 431.189453125 324.875976562 c 0
 450.534179688 285.826171875 458.122070312 241.998046875 453.03125 198.716796875 c 0
 447.940429688 155.435546875 430.389648438 114.565429688 402.512695312 81.068359375 c 0
 374.634765625 47.572265625 337.629882812 22.8916015625 295.993164062 10.0283203125 c 0
 254.356445312 -2.8369140625 209.87890625 -3.333984375 167.96484375 8.59765625 c 0
 126.05078125 20.53125 88.5048828125 44.3779296875 59.88671875 77.244140625 c 1
 59.892578125 77.2490234375 l 1
 55.3564453125 82.1748046875 52.083984375 88.376953125 50.7041015625 95.4296875 c 0
 46.7294921875 115.755859375 59.984375 135.455078125 80.3095703125 139.4296875 c 0
 94.296875 142.165039062 107.98828125 136.741210938 116.461914062 126.46875 c 0
 135.5390625 104.569335938 160.564453125 88.677734375 188.499023438 80.724609375 c 0
 216.443359375 72.76953125 246.094726562 73.1005859375 273.85546875 81.677734375 c 0
 301.614257812 90.2548828125 326.286132812 106.708984375 344.87109375 129.041015625 c 0
 363.45703125 151.373046875 375.158203125 178.622070312 378.551757812 207.4765625 c 0
 381.946289062 236.33203125 376.88671875 265.551757812 363.990234375 291.586914062 c 0
 351.092773438 317.622070312 330.913085938 339.3515625 305.901367188 354.135742188 c 0
 280.888671875 368.919921875 252.122070312 376.122070312 223.094726562 374.8671875 c 0
 194.440429688 373.62890625 166.749023438 364.202148438 143.298828125 347.715820312 c 0
 138.87890625 344.359375 133.643554688 341.934570312 127.829101562 340.797851562 c 0
 110.327148438 337.375 93.2890625 346.727539062 86.35546875 362.370117188 c 1
 86.3466796875 362.366210938 l 1
EndSplineSet
Validated: 524321
EndChar

StartChar: six
Encoding: 54 54 65
Width: 550
Flags: W
HStem: 0 74.9922<197.427 352.573> 375.007 74.9932<197.863 352.573>
VStem: 50 75<147.638 300.497 392.708 527.058> 425.008 74.9922<147.427 302.573>
LayerCount: 2
Fore
SplineSet
50 450 m 2
 50 494.500976562 63.1962890625 538.001953125 87.9189453125 575.002929688 c 0
 112.642578125 612.00390625 147.783203125 640.842773438 188.896484375 657.873046875 c 0
 230.009765625 674.90234375 275.25 679.358398438 318.89453125 670.676757812 c 0
 362.170898438 662.068359375 401.952148438 640.928710938 433.295898438 609.897460938 c 0
 440.41796875 603.072265625 444.8515625 593.463867188 444.8515625 582.821289062 c 0
 444.8515625 562.111328125 428.061523438 545.321289062 407.3515625 545.321289062 c 0
 396.90625 545.321289062 387.458984375 549.591796875 380.659179688 556.482421875 c 0
 359.743164062 577.237304688 333.172851562 591.375 304.264648438 597.125 c 0
 275.166015625 602.913085938 245.004882812 599.942382812 217.594726562 588.588867188 c 0
 190.18359375 577.235351562 166.755859375 558.0078125 150.2734375 533.33984375 c 0
 133.790039062 508.670898438 124.9921875 479.668945312 124.9921875 450 c 1
 125 450 l 1
 125 392.708007812 l 1
 164.806640625 428.3359375 217.373046875 450 275 450 c 0
 399.263671875 450 500 349.263671875 500 225 c 0
 500 100.736328125 399.263671875 0 275 0 c 0
 150.736328125 0 50 100.736328125 50 225 c 2
 50 450 l 2
124.9921875 225 m 1
 124.9921875 142.153320312 192.153320312 74.9921875 275 74.9921875 c 0
 357.846679688 74.9921875 425.0078125 142.153320312 425.0078125 225 c 0
 425.0078125 307.846679688 357.846679688 375.006835938 275 375.006835938 c 0
 192.663085938 375.006835938 125.8203125 308.670898438 125 226.529296875 c 2
 125 225 l 1
 124.9921875 225 l 1
EndSplineSet
Validated: 8912929
EndChar

StartChar: seven
Encoding: 55 55 66
Width: 550
Flags: W
HStem: 412.499 21G<77.1445 97.8555> 600 75<199.137 413.63>
VStem: 50 75<416.197 525.863>
LayerCount: 2
Fore
SplineSet
50 449.999023438 m 0
 50 509.672851562 73.7060546875 566.903320312 115.901367188 609.098632812 c 0
 158.096679688 651.294921875 215.327148438 675 275.000976562 675 c 2
 462.501953125 675 l 2
 482.762695312 675 499.26953125 658.932617188 499.978515625 638.844726562 c 0
 500.015625 637.829101562 500.010742188 636.806640625 499.963867188 635.780273438 c 0
 499.825195312 632.71875 499.3203125 629.752929688 498.491210938 626.92578125 c 2
 337.95703125 27.8037109375 l 2
 332.595703125 7.798828125 312.034179688 -4.0732421875 292.029296875 1.287109375 c 0
 272.024414062 6.6474609375 260.15234375 27.2099609375 265.51171875 47.21484375 c 2
 413.629882812 600 l 1
 275.000976562 600 l 1
 275.000976562 600.006835938 l 1
 235.215820312 600.006835938 197.060546875 584.203125 168.928710938 556.071289062 c 0
 140.958007812 528.098632812 125.173828125 490.21875 124.994140625 450.680664062 c 0
 124.998046875 450.454101562 125 450.2265625 125 449.999023438 c 0
 125 429.288085938 108.2109375 412.499023438 87.5 412.499023438 c 0
 66.7890625 412.499023438 50 429.288085938 50 449.999023438 c 0
EndSplineSet
Validated: 524321
EndChar

StartChar: eight
Encoding: 56 56 67
Width: 550
Flags: W
HStem: 0 74.9922<197.427 352.573> 375.008 74.9922<197.239 352.76> 600.01 74.9902<208.486 341.351>
VStem: 50 74.9922<147.427 301.743> 87.7148 74.9043<429.371 554.245> 387.386 74.9072<428.756 553.075> 425.008 74.9922<147.427 301.743>
LayerCount: 2
Fore
SplineSet
432.466796875 385.713867188 m 1xec
 474.141601562 344.875976562 500 287.958007812 500 225 c 0
 500 100.736328125 399.263671875 0 275 0 c 0
 150.736328125 0 50 100.736328125 50 225 c 0xf2
 50 287.958007812 75.8583984375 344.875976562 117.533203125 385.713867188 c 1
 99.59375 413.466796875 89.298828125 445.483398438 87.71484375 478.51953125 c 0
 86.0908203125 512.401367188 93.6875 546.086914062 109.6953125 575.991210938 c 0
 125.704101562 605.89453125 149.524414062 630.896484375 178.619140625 648.33203125 c 0
 207.713867188 665.767578125 240.993164062 674.984375 274.912109375 675 c 0
 308.831054688 675.015625 342.120117188 665.830078125 371.231445312 648.421875 c 0
 400.341796875 631.013671875 424.184570312 606.03515625 440.221679688 576.146484375 c 0
 456.2578125 546.256835938 463.885742188 512.577148438 462.29296875 478.696289062 c 0
 460.737304688 445.59765625 450.439453125 413.517578125 432.466796875 385.713867188 c 1xec
179.130859375 428.61328125 m 1
 208.21484375 442.330078125 240.711914062 450 275 450 c 0
 309.287109375 450 341.783203125 442.331054688 370.866210938 428.614257812 c 2
 370.869140625 428.61328125 l 2
 372.110351562 430.633789062 373.28515625 432.690429688 374.392578125 434.779296875 c 0
 382.1484375 449.399414062 386.603515625 465.59375 387.385742188 482.216796875 c 0
 388.341796875 502.547851562 383.763671875 522.756835938 374.141601562 540.692382812 c 0
 364.518554688 558.626953125 350.211914062 573.616210938 332.744140625 584.061523438 c 0
 315.275390625 594.5078125 295.30078125 600.018554688 274.948242188 600.009765625 c 0
 254.59375 600 234.625 594.469726562 217.166015625 584.0078125 c 0
 199.708007812 573.544921875 185.4140625 558.54296875 175.807617188 540.598632812 c 0
 166.203125 522.655273438 161.643554688 502.442382812 162.619140625 482.112304688 c 0xec
 163.528320312 463.150390625 169.21875 444.75 179.130859375 428.61328125 c 1
275 74.9921875 m 0
 357.846679688 74.9921875 425.0078125 142.153320312 425.0078125 225 c 0
 425.0078125 307.846679688 357.846679688 375.0078125 275 375.0078125 c 0
 192.153320312 375.0078125 124.9921875 307.846679688 124.9921875 225 c 0xf2
 124.9921875 142.153320312 192.153320312 74.9921875 275 74.9921875 c 0
EndSplineSet
Validated: 8912929
EndChar

StartChar: nine
Encoding: 57 57 68
Width: 550
Flags: W
HStem: 225 74.9932<197.427 352.137> 600.008 74.9922<197.427 352.573>
VStem: 50 74.9922<372.427 527.573> 425 75<147.942 282.292 374.503 527.362>
LayerCount: 2
Fore
SplineSet
275 675 m 0
 399.263671875 675 500 574.263671875 500 450 c 2
 500 225 l 2
 500 180.499023438 486.803710938 136.998046875 462.081054688 99.9970703125 c 0
 437.357421875 62.99609375 402.216796875 34.1572265625 361.103515625 17.126953125 c 0
 319.990234375 0.0966796875 274.75 -4.3583984375 231.10546875 4.3232421875 c 0
 193.23828125 11.8564453125 158.046875 28.9833984375 128.842773438 53.9345703125 c 0
 124.670898438 57.5 120.62109375 61.2236328125 116.703125 65.1025390625 c 0
 109.58203125 71.9287109375 105.1484375 81.5361328125 105.1484375 92.1787109375 c 0
 105.1484375 112.888671875 121.938476562 129.678710938 142.6484375 129.678710938 c 0
 153.092773438 129.678710938 162.541015625 125.408203125 169.33984375 118.518554688 c 0
 190.256835938 97.763671875 216.826171875 83.625 245.735351562 77.875 c 0
 274.833984375 72.0869140625 304.995117188 75.0576171875 332.405273438 86.4111328125 c 0
 359.81640625 97.7646484375 383.244140625 116.9921875 399.7265625 141.66015625 c 0
 416.209960938 166.329101562 425.0078125 195.331054688 425.0078125 225 c 1
 425 225 l 1
 425 282.291992188 l 1
 385.193359375 246.6640625 332.626953125 225 275 225 c 0
 150.736328125 225 50 325.736328125 50 450 c 0
 50 574.263671875 150.736328125 675 275 675 c 0
425.0078125 450 m 1
 425.0078125 532.846679688 357.846679688 600.0078125 275 600.0078125 c 0
 192.153320312 600.0078125 124.9921875 532.846679688 124.9921875 450 c 0
 124.9921875 367.153320312 192.153320312 299.993164062 275 299.993164062 c 0
 357.336914062 299.993164062 424.1796875 366.329101562 425 448.470703125 c 2
 425 450 l 1
 425.0078125 450 l 1
EndSplineSet
Validated: 524321
EndChar

StartChar: exclam
Encoding: 33 33 69
Width: 175
Flags: W
HStem: 0 75<53.6979 121.302> 655 20G<77.1445 97.8555>
VStem: 50 75<3.69786 71.3021 228.698 671.302>
LayerCount: 2
Fore
SplineSet
125 37.5 m 4
 125 16.7890625 108.2109375 0 87.5 0 c 4
 66.7890625 0 50 16.7890625 50 37.5 c 4
 50 58.2109375 66.7890625 75 87.5 75 c 4
 108.2109375 75 125 58.2109375 125 37.5 c 4
50 637.5 m 6
 50 658.2109375 66.7890625 675 87.5 675 c 4
 108.2109375 675 125 658.2109375 125 637.5 c 6
 125 262.5 l 6
 125 241.7890625 108.2109375 225 87.5 225 c 4
 66.7890625 225 50 241.7890625 50 262.5 c 6
 50 637.5 l 6
EndSplineSet
Validated: 8912897
EndChar

StartChar: numbersign
Encoding: 35 35 70
Width: 775
Flags: W
HStem: 112.515 74.9912<309.506 453.315> 177.514 74.998<53.698 179.109 595.891 721.302> 422.509 74.998<53.698 179.109 595.891 721.302> 487.515 74.9912<321.697 465.491>
VStem: 162.5 74.9932<259.84 415.181> 537.507 74.9932<259.84 415.181>
LayerCount: 2
Fore
SplineSet
538.291015625 674.868164062 m 0x1c
 558.931640625 673.1640625 574.282226562 655.049804688 572.578125 634.41015625 c 2
 561.25 497.506835938 l 1
 687.5 497.506835938 l 2
 708.209960938 497.506835938 725 480.717773438 725 460.0078125 c 0
 725 439.297851562 708.209960938 422.508789062 687.5 422.508789062 c 2
 595.890625 422.508789062 l 1
 606.598632812 396.284179688 612.5 367.586914062 612.5 337.510742188 c 0
 612.5 307.434570312 606.598632812 278.737304688 595.890625 252.51171875 c 1
 687.5 252.51171875 l 2
 708.209960938 252.51171875 725 235.72265625 725 215.012695312 c 0
 725 194.302734375 708.209960938 177.513671875 687.5 177.513671875 c 2
 545.693359375 177.513671875 l 2x6c
 541.904296875 173.766601562 537.982421875 170.154296875 533.935546875 166.681640625 c 2
 523.115234375 34.4609375 l 2
 521.411132812 13.8203125 503.296875 -1.5302734375 482.65625 0.173828125 c 0
 462.014648438 1.8779296875 446.665039062 19.9921875 448.369140625 40.6318359375 c 2
 455.09765625 122.845703125 l 1
 433.760742188 116.133789062 411.052734375 112.514648438 387.5 112.514648438 c 0x8c
 350.834960938 112.514648438 316.217773438 121.28515625 285.631835938 136.841796875 c 1
 277.172851562 34.4130859375 l 2
 275.46875 13.7734375 257.35546875 -1.578125 236.71484375 0.1259765625 c 0
 216.07421875 1.8310546875 200.723632812 19.9443359375 202.427734375 40.583984375 c 2
 213.735351562 177.513671875 l 1
 87.5 177.513671875 l 2
 66.7900390625 177.513671875 50 194.302734375 50 215.012695312 c 0
 50 235.72265625 66.7900390625 252.51171875 87.5 252.51171875 c 2
 179.109375 252.51171875 l 1
 168.401367188 278.737304688 162.5 307.434570312 162.5 337.510742188 c 0
 162.5 367.586914062 168.401367188 396.284179688 179.109375 422.508789062 c 1
 87.5 422.508789062 l 2
 66.7900390625 422.508789062 50 439.297851562 50 460.0078125 c 0
 50 480.717773438 66.7900390625 497.506835938 87.5 497.506835938 c 2
 229.306640625 497.506835938 l 2x6c
 233.091796875 501.25 237.0078125 504.859375 241.049804688 508.327148438 c 2
 251.97265625 640.571289062 l 2
 253.676757812 661.2109375 271.791015625 676.561523438 292.431640625 674.857421875 c 0
 313.073242188 673.153320312 328.422851562 655.040039062 326.71875 634.399414062 c 2
 319.927734375 552.182617188 l 1
 341.256835938 558.889648438 363.956054688 562.505859375 387.5 562.505859375 c 0
 424.161132812 562.505859375 458.776367188 553.73828125 489.359375 538.18359375 c 1
 497.83203125 640.581054688 l 2
 499.536132812 661.221679688 517.650390625 676.572265625 538.291015625 674.868164062 c 0x1c
387.5 187.505859375 m 0x9c
 470.346679688 187.505859375 537.506835938 254.666015625 537.506835938 337.510742188 c 0
 537.506835938 420.356445312 470.346679688 487.514648438 387.5 487.514648438 c 0
 304.653320312 487.514648438 237.493164062 420.356445312 237.493164062 337.510742188 c 0
 237.493164062 254.666015625 304.653320312 187.505859375 387.5 187.505859375 c 0x9c
EndSplineSet
Validated: 8912929
EndChar

StartChar: dollar
Encoding: 36 36 71
Width: 475
Flags: W
HStem: 2.17383 76.1396<167.738 212.5> 302.174 76.1396<167.558 212.5 262.5 301.223> 450.5 21G<377.145 397.855> 597.687 76.1396<262.5 307.262>
VStem: 50 75<122.171 221.802 422.71 554.146> 212.5 50<-36.7991 6.36348 78.3135 297.687 378.313 597.687 669.637 712.799> 350 75<121.853 253.29 454.198 553.829>
CounterMasks: 1 0e
LayerCount: 2
Fore
SplineSet
237.5 713 m 0
 251.306640625 713 262.5 701.806640625 262.5 688 c 2
 262.5 673.826171875 l 1
 278.478515625 671.67578125 294.198242188 667.463867188 309.252929688 661.227539062 c 0
 343.513671875 647.036132812 372.797851562 623.00390625 393.401367188 592.168945312 c 0
 414.00390625 561.334960938 425 525.083984375 425 488 c 0
 425 467.2890625 408.209960938 450.5 387.5 450.5 c 0
 366.790039062 450.5 350 467.2890625 350 488 c 0
 350 510.25 343.40234375 532.000976562 331.040039062 550.501953125 c 0
 318.678710938 569.001953125 301.108398438 583.421875 280.551757812 591.935546875 c 0
 274.6796875 594.368164062 268.640625 596.287109375 262.5 597.686523438 c 1
 262.5 373.826171875 l 1
 290.716796875 370.030273438 317.814453125 359.83984375 341.669921875 343.900390625 c 0
 372.50390625 323.297851562 396.536132812 294.013671875 410.727539062 259.752929688 c 0
 424.918945312 225.4921875 428.631835938 187.791992188 421.3984375 151.419921875 c 0
 414.163085938 115.048828125 396.3046875 81.6396484375 370.083007812 55.4169921875 c 0
 343.860351562 29.1953125 310.450195312 11.3369140625 274.080078125 4.1025390625 c 0
 270.233398438 3.337890625 266.37109375 2.6953125 262.5 2.173828125 c 2
 262.5 -12 l 2
 262.5 -25.806640625 251.306640625 -37 237.5 -37 c 0
 223.693359375 -37 212.5 -25.806640625 212.5 -12 c 2
 212.5 2.173828125 l 1
 196.521484375 4.32421875 180.801757812 8.5361328125 165.747070312 14.7734375 c 0
 131.486328125 28.9638671875 102.202148438 52.99609375 81.5986328125 83.8310546875 c 0
 60.9970703125 114.665039062 50 150.916015625 50 188 c 0
 50 208.7109375 66.7900390625 225.5 87.5 225.5 c 0
 108.209960938 225.5 125 208.7109375 125 188 c 0
 125 165.75 131.59765625 143.999023438 143.959960938 125.498046875 c 0
 156.321289062 106.998046875 173.891601562 92.578125 194.448242188 84.0634765625 c 0
 200.3203125 81.6318359375 206.359375 79.7119140625 212.5 78.3134765625 c 1
 212.5 302.173828125 l 1
 184.283203125 305.969726562 157.185546875 316.16015625 133.330078125 332.098632812 c 0
 102.49609375 352.702148438 78.46484375 381.986328125 64.2724609375 416.247070312 c 0
 50.08203125 450.5078125 46.3681640625 488.208007812 53.6025390625 524.579101562 c 0
 60.8369140625 560.951171875 78.6953125 594.360351562 104.916992188 620.58203125 c 0
 131.139648438 646.8046875 164.549804688 664.662109375 200.919921875 671.897460938 c 0
 204.766601562 672.662109375 208.62890625 673.3046875 212.5 673.826171875 c 2
 212.5 688 l 2
 212.5 701.806640625 223.693359375 713 237.5 713 c 0
212.5 597.686523438 m 1
 191.862304688 592.983398438 172.948242188 582.545898438 157.950195312 567.548828125 c 0
 142.216796875 551.81640625 131.502929688 531.76953125 127.162109375 509.948242188 c 0
 122.821289062 488.125 125.048828125 465.504882812 133.563476562 444.948242188 c 0
 142.079101562 424.390625 156.498046875 406.821289062 174.999023438 394.459960938 c 0
 186.46875 386.795898438 199.186523438 381.346679688 212.5 378.313476562 c 1
 212.5 597.686523438 l 1
262.5 78.3134765625 m 1
 283.13671875 83.015625 302.051757812 93.453125 317.049804688 108.450195312 c 0
 332.783203125 124.18359375 343.497070312 144.228515625 347.837890625 166.051757812 c 0
 352.178710938 187.875 349.951171875 210.495117188 341.436523438 231.051757812 c 0
 332.920898438 251.608398438 318.501953125 269.178710938 300.000976562 281.540039062 c 0
 288.53125 289.204101562 275.813476562 294.653320312 262.5 297.686523438 c 1
 262.5 78.3134765625 l 1
EndSplineSet
Validated: 524321
EndChar

StartChar: percent
Encoding: 37 37 72
Width: 775
Flags: W
HStem: 0 50<513.266 636.734> 250 50<513.266 636.734> 375 50<138.266 261.734> 625 50<138.266 261.734>
VStem: 50 50<463.266 586.734> 300 50<463.266 586.734> 425 50<88.2656 211.734> 675 50<88.2656 211.734>
LayerCount: 2
Fore
SplineSet
350 525 m 0
 350 442.157226562 282.842773438 375 200 375 c 0
 117.157226562 375 50 442.157226562 50 525 c 0
 50 607.842773438 117.157226562 675 200 675 c 0
 282.842773438 675 350 607.842773438 350 525 c 0
100 525 m 0
 100 469.772460938 144.772460938 425 200 425 c 0
 255.227539062 425 300 469.772460938 300 525 c 0
 300 580.227539062 255.227539062 625 200 625 c 0
 144.772460938 625 100 580.227539062 100 525 c 0
725 150 m 0
 725 67.1572265625 657.842773438 0 575 0 c 0
 492.157226562 0 425 67.1572265625 425 150 c 0
 425 232.842773438 492.157226562 300 575 300 c 0
 657.842773438 300 725 232.842773438 725 150 c 0
475 150 m 0
 475 94.7724609375 519.772460938 50 575 50 c 0
 630.227539062 50 675 94.7724609375 675 150 c 0
 675 205.227539062 630.227539062 250 575 250 c 0
 519.772460938 250 475 205.227539062 475 150 c 0
590.79296875 576.149414062 m 2
 600.555664062 585.912109375 616.384765625 585.912109375 626.1484375 576.149414062 c 0
 635.911132812 566.385742188 635.911132812 550.555664062 626.1484375 540.79296875 c 2
 184.206054688 98.8515625 l 2
 174.443359375 89.087890625 158.614257812 89.087890625 148.850585938 98.8515625 c 0
 139.087890625 108.615234375 139.087890625 124.444335938 148.850585938 134.20703125 c 2
 590.79296875 576.149414062 l 2
EndSplineSet
Validated: 524321
EndChar

StartChar: ampersand
Encoding: 38 38 73
Width: 550
Flags: W
HStem: 0.00292969 74.9922<197.426 352.842> 375.001 75.001<222.615 327.383> 600 75<222.693 327.301>
VStem: 50 74.9922<147.43 301.478> 124.997 75<472.735 577.304> 349.997 74.999<472.735 577.304> 425.006 74.9932<147.323 301.479>
LayerCount: 2
Fore
SplineSet
424.99609375 525 m 0
 424.99609375 485.071289062 409.39453125 448.786132812 383.955078125 421.908203125 c 1
 453.157226562 383.534179688 499.999023438 309.739257812 499.999023438 225.002929688 c 0
 499.999023438 180.263671875 486.94140625 138.575195312 464.428710938 103.5390625 c 1
 493.938476562 57.849609375 l 2
 505.173828125 40.453125 500.178710938 17.240234375 482.782226562 6.00390625 c 0
 465.383789062 -5.2333984375 442.172851562 -0.2392578125 430.935546875 17.1591796875 c 2
 411.987304688 46.498046875 l 1
 374.047851562 17.3388671875 326.547851562 0.0029296875 274.999023438 0.0029296875 c 0
 150.736328125 0.0029296875 50 100.739257812 50 225.002929688 c 0
 50 309.737304688 96.83984375 383.532226562 166.040039062 421.907226562 c 1
 140.598632812 448.78515625 124.997070312 485.0703125 124.997070312 525 c 0
 124.997070312 607.842773438 192.155273438 675 274.997070312 675 c 0
 357.83984375 675 424.99609375 607.842773438 424.99609375 525 c 0
274.997070312 375.000976562 m 1
 273.833984375 375.004882812 l 2
 191.524414062 374.37890625 124.9921875 307.459960938 124.9921875 225.002929688 c 0
 124.9921875 142.15625 192.153320312 74.9951171875 274.999023438 74.9951171875 c 0
 357.845703125 74.9951171875 425.005859375 142.15625 425.005859375 225.002929688 c 0
 425.005859375 307.4609375 358.47265625 374.379882812 276.163085938 375.004882812 c 2
 274.997070312 375.000976562 l 1
199.997070312 525 m 0
 199.997070312 483.579101562 233.579101562 450.001953125 274.999023438 450.001953125 c 0
 316.419921875 450.001953125 349.997070312 483.579101562 349.997070312 525 c 0
 349.997070312 566.421875 316.418945312 600 274.997070312 600 c 0
 233.576171875 600 199.997070312 566.421875 199.997070312 525 c 0
EndSplineSet
Validated: 524321
EndChar

StartChar: parenleft
Encoding: 40 40 74
Width: 480
Flags: W
VStem: 50 75.0146<101.937 348.855>
LayerCount: 2
Fore
SplineSet
402.946289062 587.602539062 m 0
 323.211914062 566.23828125 252.754882812 519.16015625 202.50390625 453.671875 c 0
 152.252929688 388.182617188 125.014648438 307.942382812 125.014648438 225.396484375 c 0
 125.014648438 142.848632812 152.252929688 62.609375 202.50390625 -2.8798828125 c 0
 252.657226562 -68.2412109375 322.934570312 -115.26171875 402.475585938 -136.684570312 c 0
 418.844726562 -140.712890625 430.985351562 -155.489257812 430.985351562 -173.099609375 c 0
 430.985351562 -193.810546875 414.196289062 -210.599609375 393.485351562 -210.599609375 c 0
 390.0390625 -210.599609375 386.702148438 -210.134765625 383.532226562 -209.264648438 c 1
 383.53125 -209.26953125 l 1
 287.845703125 -183.630859375 203.294921875 -127.135742188 142.991210938 -48.5458984375 c 0
 82.6865234375 30.04296875 50 126.334960938 50 225.396484375 c 0
 50 324.456054688 82.6865234375 420.748046875 142.991210938 499.337890625 c 0
 203.233398438 577.846679688 287.672851562 634.306640625 383.237304688 659.982421875 c 0
 386.494140625 660.90625 389.931640625 661.399414062 393.485351562 661.399414062 c 0
 414.196289062 661.399414062 430.985351562 644.610351562 430.985351562 623.900390625 c 0
 430.985351562 606.45703125 419.076171875 591.794921875 402.946289062 587.602539062 c 0
EndSplineSet
Validated: 524289
EndChar

StartChar: parenright
Encoding: 41 41 75
Width: 480
Flags: W
HStem: -210.6 73.915<54.6979 98.3044 98.4531 137.258>
VStem: 356.97 75.0156<101.937 348.855>
LayerCount: 2
Fore
SplineSet
79.0390625 587.602539062 m 0
 62.908203125 591.794921875 51 606.45703125 51 623.900390625 c 0
 51 644.610351562 67.7890625 661.399414062 88.5 661.399414062 c 0
 92.052734375 661.399414062 95.490234375 660.90625 98.748046875 659.982421875 c 0
 194.311523438 634.306640625 278.751953125 577.846679688 338.994140625 499.337890625 c 0
 399.297851562 420.748046875 431.985351562 324.456054688 431.985351562 225.396484375 c 0
 431.985351562 126.334960938 399.297851562 30.04296875 338.994140625 -48.5458984375 c 0
 278.690429688 -127.135742188 194.138671875 -183.630859375 98.4541015625 -209.26953125 c 1
 98.453125 -209.264648438 l 1
 95.283203125 -210.134765625 91.9462890625 -210.599609375 88.5 -210.599609375 c 0
 67.7890625 -210.599609375 51 -193.810546875 51 -173.099609375 c 0
 51 -155.489257812 63.140625 -140.712890625 79.5087890625 -136.684570312 c 0
 159.049804688 -115.26171875 229.328125 -68.2412109375 279.481445312 -2.8798828125 c 0
 329.732421875 62.609375 356.969726562 142.848632812 356.969726562 225.396484375 c 0
 356.969726562 307.942382812 329.732421875 388.182617188 279.481445312 453.671875 c 0
 229.23046875 519.16015625 158.7734375 566.23828125 79.0390625 587.602539062 c 0
EndSplineSet
Validated: 524289
EndChar

StartChar: asterisk
Encoding: 42 42 76
Width: 434
Flags: W
HStem: 655 20G<207.054 227.765>
VStem: 179.909 75<303.698 422.548 552.453 671.302>
LayerCount: 2
Fore
SplineSet
179.909179688 637.5 m 2
 179.909179688 658.2109375 196.69921875 675 217.409179688 675 c 0
 238.12109375 675 254.909179688 658.2109375 254.909179688 637.5 c 2
 254.909179688 552.452148438 l 1
 328.564453125 594.975585938 l 2
 346.5 605.33203125 369.434570312 599.185546875 379.790039062 581.25 c 0
 390.14453125 563.314453125 384 540.379882812 366.064453125 530.024414062 c 2
 292.411132812 487.5 l 1
 366.064453125 444.975585938 l 2
 384 434.62109375 390.14453125 411.685546875 379.790039062 393.75 c 0
 369.434570312 375.814453125 346.5 369.668945312 328.564453125 380.024414062 c 2
 254.909179688 422.548828125 l 1
 254.909179688 337.5 l 2
 254.909179688 316.7890625 238.12109375 300 217.409179688 300 c 0
 196.69921875 300 179.909179688 316.7890625 179.909179688 337.5 c 2
 179.909179688 422.547851562 l 1
 106.255859375 380.024414062 l 2
 88.3203125 369.668945312 65.3857421875 375.814453125 55.0302734375 393.75 c 0
 44.6748046875 411.685546875 50.8203125 434.62109375 68.755859375 444.975585938 c 2
 142.409179688 487.5 l 1
 68.755859375 530.024414062 l 2
 50.8203125 540.379882812 44.6748046875 563.314453125 55.0302734375 581.25 c 0
 65.3857421875 599.185546875 88.3203125 605.33203125 106.255859375 594.975585938 c 2
 179.909179688 552.453125 l 1
 179.909179688 637.5 l 2
EndSplineSet
Validated: 524321
EndChar

StartChar: plus
Encoding: 43 43 77
Width: 475
Flags: W
HStem: 200 75<53.698 200 275 421.302> 405 20G<227.145 247.855>
VStem: 200 75<53.6979 200 275 421.302>
LayerCount: 2
Fore
SplineSet
200 87.5 m 2
 200 200 l 1
 87.5 200 l 2
 66.7900390625 200 50 216.7890625 50 237.5 c 0
 50 258.2109375 66.7900390625 275 87.5 275 c 2
 200 275 l 1
 200 387.5 l 2
 200 408.2109375 216.790039062 425 237.5 425 c 0
 258.209960938 425 275 408.2109375 275 387.5 c 2
 275 275 l 1
 387.5 275 l 2
 408.209960938 275 425 258.2109375 425 237.5 c 0
 425 216.7890625 408.209960938 200 387.5 200 c 2
 275 200 l 1
 275 87.5 l 2
 275 66.7890625 258.209960938 50 237.5 50 c 0
 216.790039062 50 200 66.7890625 200 87.5 c 2
EndSplineSet
Validated: 524289
EndChar

StartChar: comma
Encoding: 44 44 78
Width: 175
Flags: W
HStem: -43.5664 118.566
VStem: 50 75<4.08751 71.3021>
LayerCount: 2
Fore
SplineSet
115.279296875 12.3076171875 m 0
 95.357421875 -11.0263671875 70.873046875 -30.041015625 43.328125 -43.56640625 c 1
 43.326171875 -43.5615234375 l 1
 41.5869140625 -44.48046875 39.603515625 -45 37.5 -45 c 0
 30.5966796875 -45 25 -39.404296875 25 -32.5 c 0
 25 -27.4208984375 28.0283203125 -23.0498046875 32.37890625 -21.09375 c 0
 46.2158203125 -14.29296875 59.1826171875 -5.93359375 71.0390625 3.796875 c 1
 58.580078125 9.892578125 50 22.6953125 50 37.5 c 0
 50 58.2109375 66.7890625 75 87.5 75 c 0
 108.2109375 75 125 58.2109375 125 37.5 c 0
 125 27.802734375 121.319335938 18.96484375 115.279296875 12.3076171875 c 0
EndSplineSet
Validated: 8912897
EndChar

StartChar: hyphen
Encoding: 45 45 79
Width: 474
Flags: W
HStem: 200 75<53.698 421.302>
LayerCount: 2
Fore
SplineSet
87.5 275 m 2
 387.5 275 l 2
 408.209960938 275 425 258.2109375 425 237.5 c 0
 425 216.7890625 408.209960938 200 387.5 200 c 2
 87.5 200 l 2
 66.7900390625 200 50 216.7890625 50 237.5 c 0
 50 258.2109375 66.7900390625 275 87.5 275 c 2
EndSplineSet
Validated: 524289
EndChar

StartChar: period
Encoding: 46 46 80
Width: 175
Flags: W
HStem: 0 75<53.6979 121.302>
VStem: 50 75<3.69786 71.3021>
LayerCount: 2
Fore
SplineSet
87.5 0 m 0
 66.7890625 0 50 16.7890625 50 37.5 c 0
 50 58.2109375 66.7890625 75 87.5 75 c 0
 108.2109375 75 125 58.2109375 125 37.5 c 0
 125 16.7890625 108.2109375 0 87.5 0 c 0
EndSplineSet
Validated: 524289
EndChar

StartChar: slash
Encoding: 47 47 81
Width: 521
Flags: W
LayerCount: 2
Fore
SplineSet
400.912109375 655.268554688 m 2
 411.251953125 673.177734375 434.153320312 679.314453125 452.063476562 668.974609375 c 0
 469.971679688 658.633789062 476.108398438 635.733398438 465.767578125 617.82421875 c 2
 119.87890625 18.7255859375 l 2
 109.5390625 0.81640625 86.6376953125 -5.3203125 68.728515625 5.01953125 c 0
 50.8193359375 15.3603515625 44.6826171875 38.2607421875 55.0224609375 56.169921875 c 2
 400.912109375 655.268554688 l 2
EndSplineSet
Validated: 524321
EndChar

StartChar: colon
Encoding: 58 58 82
Width: 175
Flags: W
HStem: 0 75<53.6979 121.302> 125 75<53.6979 121.302> 250 75<53.6979 121.302>
VStem: 50 75<3.69786 71.3021 128.698 196.302 253.698 321.302>
CounterMasks: 1 e0
LayerCount: 2
Fore
SplineSet
87.5 250 m 0
 66.7890625 250 50 266.7890625 50 287.5 c 0
 50 308.2109375 66.7890625 325 87.5 325 c 0
 108.2109375 325 125 308.2109375 125 287.5 c 0
 125 266.7890625 108.2109375 250 87.5 250 c 0
125 162.5 m 0
 125 141.7890625 108.2109375 125 87.5 125 c 0
 66.7890625 125 50 141.7890625 50 162.5 c 0
 50 183.2109375 66.7890625 200 87.5 200 c 0
 108.2109375 200 125 183.2109375 125 162.5 c 0
125 37.5 m 0
 125 16.7890625 108.2109375 0 87.5 0 c 0
 66.7890625 0 50 16.7890625 50 37.5 c 0
 50 58.2109375 66.7890625 75 87.5 75 c 0
 108.2109375 75 125 58.2109375 125 37.5 c 0
EndSplineSet
Validated: 524289
EndChar

StartChar: semicolon
Encoding: 59 59 83
Width: 175
Flags: W
HStem: 125 75<53.6979 121.302> 250 75<53.6979 121.302>
VStem: 50 75<4.08751 71.3021 128.698 196.302 253.698 321.302>
LayerCount: 2
Fore
SplineSet
125 287.5 m 0
 125 266.7890625 108.2109375 250 87.5 250 c 0
 66.7890625 250 50 266.7890625 50 287.5 c 0
 50 308.2109375 66.7890625 325 87.5 325 c 0
 108.2109375 325 125 308.2109375 125 287.5 c 0
125 162.5 m 0
 125 141.7890625 108.2109375 125 87.5 125 c 0
 66.7890625 125 50 141.7890625 50 162.5 c 0
 50 183.2109375 66.7890625 200 87.5 200 c 0
 108.2109375 200 125 183.2109375 125 162.5 c 0
50 37.5 m 0
 50 58.2109375 66.7890625 75 87.5 75 c 0
 108.2109375 75 125 58.2109375 125 37.5 c 0
 125 27.802734375 121.319335938 18.9658203125 115.279296875 12.30859375 c 0
 95.357421875 -11.0263671875 70.873046875 -30.041015625 43.328125 -43.56640625 c 1
 43.326171875 -43.5615234375 l 1
 41.5869140625 -44.48046875 39.603515625 -45 37.5 -45 c 0
 30.5966796875 -45 25 -39.404296875 25 -32.5 c 0
 25 -27.4208984375 28.029296875 -23.048828125 32.3798828125 -21.0927734375 c 0
 46.2158203125 -14.29296875 59.1826171875 -5.93359375 71.0390625 3.796875 c 1
 58.580078125 9.892578125 50 22.6953125 50 37.5 c 0
EndSplineSet
Validated: 524289
EndChar

StartChar: less
Encoding: 60 60 84
Width: 506
Flags: W
LayerCount: 2
Fore
SplineSet
50 224.98828125 m 0
 50 271.239257812 64.2529296875 316.366210938 90.8173828125 354.225585938 c 0
 117.380859375 392.086914062 154.967773438 420.841796875 198.458984375 436.577148438 c 0
 241.951171875 452.313476562 289.235351562 454.262695312 333.875 442.1640625 c 0
 378.364257812 430.106445312 418.073242188 404.67578125 447.634765625 369.3203125 c 0
 453.25 362.762695312 456.642578125 354.24609375 456.642578125 344.936523438 c 0
 456.642578125 324.224609375 439.8515625 307.434570312 419.140625 307.434570312 c 0
 407.221679688 307.434570312 396.602539062 312.994140625 389.734375 321.661132812 c 0
 370.063476562 345.00390625 343.734375 361.796875 314.2578125 369.786132812 c 0
 284.495117188 377.852539062 252.96875 376.552734375 223.971679688 366.061523438 c 0
 194.974609375 355.5703125 169.915039062 336.3984375 152.203125 311.155273438 c 0
 138.80078125 292.053710938 130.098632812 270.178710938 126.658203125 247.303710938 c 1
 435.163085938 93.0869140625 l 2
 447.873046875 87.0830078125 456.666992188 74.1484375 456.666992188 59.158203125 c 0
 456.666992188 38.4462890625 439.876953125 21.65625 419.165039062 21.65625 c 0
 412.890625 21.65625 406.9765625 23.197265625 401.78125 25.919921875 c 2
 65.5888671875 193.978515625 l 1
 65.7998046875 194.400390625 l 1
 56.23828125 201.196289062 50 212.364257812 50 224.98828125 c 0
EndSplineSet
Validated: 524321
EndChar

StartChar: equal
Encoding: 61 61 85
Width: 475
Flags: W
HStem: 100 75<53.6979 421.302> 275 75<53.6979 421.302>
LayerCount: 2
Fore
SplineSet
50 137.5 m 0
 50 158.2109375 66.7890625 175 87.5 175 c 2
 387.5 175 l 2
 408.2109375 175 425 158.2109375 425 137.5 c 0
 425 116.7890625 408.2109375 100 387.5 100 c 2
 87.5 100 l 2
 66.7890625 100 50 116.7890625 50 137.5 c 0
50 312.5 m 0
 50 333.2109375 66.7890625 350 87.5 350 c 2
 387.5 350 l 2
 408.2109375 350 425 333.2109375 425 312.5 c 0
 425 291.7890625 408.2109375 275 387.5 275 c 2
 87.5 275 l 2
 66.7890625 275 50 291.7890625 50 312.5 c 0
EndSplineSet
Validated: 524289
EndChar

StartChar: greater
Encoding: 62 62 86
Width: 506
Flags: W
LayerCount: 2
Fore
SplineSet
455.997070312 224.98828125 m 0
 455.997070312 212.364257812 449.758789062 201.196289062 440.197265625 194.400390625 c 1
 440.408203125 193.978515625 l 1
 104.215820312 25.919921875 l 2
 99.0205078125 23.197265625 93.10546875 21.65625 86.83203125 21.65625 c 0
 66.1201171875 21.65625 49.330078125 38.4462890625 49.330078125 59.158203125 c 0
 49.330078125 74.1484375 58.1240234375 87.0830078125 70.8349609375 93.0869140625 c 2
 379.338867188 247.303710938 l 1
 375.8984375 270.178710938 367.196289062 292.053710938 353.793945312 311.155273438 c 0
 336.08203125 336.3984375 311.022460938 355.5703125 282.025390625 366.061523438 c 0
 253.028320312 376.552734375 221.501953125 377.852539062 191.739257812 369.786132812 c 0
 162.262695312 361.796875 135.93359375 345.00390625 116.262695312 321.661132812 c 0
 109.39453125 312.994140625 98.775390625 307.434570312 86.8564453125 307.434570312 c 0
 66.14453125 307.434570312 49.3544921875 324.224609375 49.3544921875 344.936523438 c 0
 49.3544921875 354.24609375 52.7470703125 362.762695312 58.3623046875 369.3203125 c 0
 87.923828125 404.67578125 127.6328125 430.106445312 172.122070312 442.1640625 c 0
 216.76171875 454.262695312 264.045898438 452.313476562 307.538085938 436.577148438 c 0
 351.029296875 420.841796875 388.615234375 392.086914062 415.1796875 354.225585938 c 0
 441.745117188 316.366210938 455.997070312 271.239257812 455.997070312 224.98828125 c 0
EndSplineSet
Validated: 524321
EndChar

StartChar: question
Encoding: 63 63 87
Width: 550
Flags: W
HStem: 0 75<241.198 308.802> 225 75<241.198 352.058> 412.5 21G<77.145 97.855>
VStem: 50 74.999<416.198 527.058> 237.5 75<3.69786 71.3021>
LayerCount: 2
Fore
SplineSet
87.9189453125 575.002929688 m 0
 112.642578125 612.00390625 147.783203125 640.842773438 188.896484375 657.873046875 c 0
 230.009765625 674.90234375 275.25 679.358398438 318.89453125 670.676757812 c 0
 362.541015625 661.995117188 402.631835938 640.565429688 434.098632812 609.098632812 c 0
 465.56640625 577.631835938 486.995117188 537.541015625 495.676757812 493.89453125 c 0
 504.358398438 450.249023438 499.90234375 405.008789062 482.873046875 363.896484375 c 0
 465.842773438 322.783203125 437.00390625 287.642578125 400.002929688 262.918945312 c 0
 363.001953125 238.196289062 319.500976562 225 275 225 c 0
 254.290039062 225 237.5 241.7890625 237.5 262.5 c 0
 237.5 283.2109375 254.290039062 300 275 300 c 0
 275.225585938 300 275.450195312 299.998046875 275.674804688 299.994140625 c 0
 305.108398438 300.125976562 333.859375 308.915039062 358.33984375 325.2734375 c 0
 383.0078125 341.755859375 402.235351562 365.18359375 413.588867188 392.594726562 c 0
 424.943359375 420.004882812 427.913085938 450.166015625 422.125 479.264648438 c 0
 416.336914062 508.36328125 402.049804688 535.091796875 381.071289062 556.071289062 c 0
 360.091796875 577.049804688 333.364257812 591.336914062 304.264648438 597.125 c 0
 275.166992188 602.913085938 245.004882812 599.942382812 217.594726562 588.588867188 c 0
 190.18359375 577.235351562 166.756835938 558.0078125 150.2734375 533.33984375 c 0
 133.9140625 508.856445312 125.125 480.103515625 124.994140625 450.66796875 c 2
 124.999023438 450.260742188 l 1
 125 450 l 2
 125 429.2890625 108.209960938 412.5 87.5 412.5 c 0
 66.7900390625 412.5 50 429.2890625 50 450 c 0
 50 494.500976562 63.1953125 538.001953125 87.9189453125 575.002929688 c 0
275 0 m 0
 254.290039062 0 237.5 16.7890625 237.5 37.5 c 0
 237.5 58.2109375 254.290039062 75 275 75 c 0
 295.709960938 75 312.5 58.2109375 312.5 37.5 c 0
 312.5 16.7890625 295.709960938 0 275 0 c 0
EndSplineSet
Validated: 8912929
EndChar

StartChar: at
Encoding: 64 64 88
Width: 775
Flags: W
LayerCount: 2
Fore
SplineSet
522.241210938 -83.9384765625 m 0
 451.114257812 -114.909179688 371.486328125 -120.430664062 296.763671875 -99.5751953125 c 0
 222.041992188 -78.7177734375 156.787109375 -32.755859375 111.981445312 30.576171875 c 0
 67.17578125 93.9072265625 45.5556640625 170.740234375 50.7607421875 248.143554688 c 0
 55.9658203125 325.546875 87.677734375 398.793945312 140.55859375 455.556640625 c 0
 193.44140625 512.319335938 264.26171875 549.129882812 341.103515625 559.794921875 c 0
 417.946289062 570.459960938 496.116210938 554.327148438 562.456054688 514.111328125 c 0
 628.796875 473.89453125 679.2578125 412.052734375 705.344726562 338.9921875 c 0
 731.432617188 265.931640625 731.5546875 186.115234375 705.689453125 112.974609375 c 0
 695.740234375 84.859375 675.033203125 61.8427734375 648.119140625 48.9892578125 c 0
 621.196289062 36.1298828125 590.266601562 34.4921875 562.135742188 44.4365234375 c 0
 541.022460938 51.90234375 522.782226562 65.4326171875 509.55859375 83.1025390625 c 1
 495.728515625 71.255859375 479.923828125 61.240234375 462.357421875 53.58984375 c 0
 367.4140625 12.2490234375 256.93359375 55.701171875 215.591796875 150.643554688 c 0
 174.250976562 245.586914062 217.703125 356.068359375 312.646484375 397.409179688 c 0
 407.588867188 438.750976562 518.0703125 395.297851562 559.411132812 300.35546875 c 0
 579.251953125 254.790039062 579.561523438 205.646484375 564.024414062 162.284179688 c 0
 560.986328125 153.099609375 561.611328125 143.0859375 565.788085938 134.338867188 c 0
 570.076171875 125.36328125 577.752929688 118.45703125 587.131835938 115.140625 c 0
 596.510742188 111.826171875 606.823242188 112.372070312 615.798828125 116.659179688 c 0
 624.775390625 120.946289062 631.680664062 128.624023438 634.99609375 138.001953125 c 0
 655.106445312 194.883789062 655.0078125 256.956054688 634.719726562 313.774414062 c 0
 614.428710938 370.600585938 575.180664062 418.702148438 523.581054688 449.982421875 c 0
 471.981445312 481.260742188 411.180664062 493.809570312 351.413085938 485.514648438 c 0
 291.646484375 477.219726562 236.560546875 448.587890625 195.4296875 404.438476562 c 0
 154.297851562 360.288085938 129.6328125 303.317382812 125.583984375 243.112304688 c 0
 121.536132812 182.908203125 138.3515625 123.147460938 173.201171875 73.8876953125 c 0
 208.05078125 24.62890625 258.806640625 -11.12109375 316.92578125 -27.3427734375 c 0
 374.825195312 -43.50390625 436.508789062 -39.3017578125 491.672851562 -15.453125 c 0
 491.879882812 -15.3583984375 492.088867188 -15.2646484375 492.298828125 -15.173828125 c 0
 511.288085938 -6.9052734375 533.383789062 -15.595703125 541.65234375 -34.583984375 c 0
 549.920898438 -53.5732421875 541.23046875 -75.6689453125 522.241210938 -83.9384765625 c 0
432.407226562 122.37109375 m 0
 489.364257812 147.171875 515.430664062 213.44921875 490.629882812 270.40625 c 0
 465.829101562 327.362304688 399.551757812 353.428710938 342.595703125 328.627929688 c 0
 285.639648438 303.828125 259.572265625 237.549804688 284.373046875 180.59375 c 0
 309.173828125 123.637695312 375.451171875 97.5703125 432.407226562 122.37109375 c 0
EndSplineSet
Validated: 524321
EndChar

StartChar: bracketleft
Encoding: 91 91 89
Width: 400
Flags: W
HStem: -209 75<199.136 346.302> 586 75<199.136 346.302>
VStem: 50 75<-59.864 511.864>
LayerCount: 2
Fore
SplineSet
50 436 m 2
 50 495.673828125 73.705078125 552.903320312 115.901367188 595.098632812 c 0
 158.096679688 637.294921875 215.326171875 661 275 661 c 2
 312.5 661 l 2
 333.2109375 661 350 644.2109375 350 623.5 c 0
 350 602.7890625 333.2109375 586 312.5 586 c 2
 275 586 l 1
 275 586.0078125 l 1
 235.21484375 586.0078125 197.060546875 570.203125 168.928710938 542.071289062 c 0
 140.796875 513.939453125 124.9921875 475.78515625 124.9921875 436 c 1
 125 436 l 1
 125 16 l 1
 124.9921875 16 l 1
 124.9921875 -23.7841796875 140.796875 -61.939453125 168.928710938 -90.0712890625 c 0
 197.060546875 -118.203125 235.21484375 -134.006835938 275 -134.006835938 c 1
 275 -134 l 1
 312.5 -134 l 2
 333.2109375 -134 350 -150.7890625 350 -171.5 c 0
 350 -192.2109375 333.2109375 -209 312.5 -209 c 2
 275 -209 l 2
 215.326171875 -209 158.096679688 -185.294921875 115.901367188 -143.098632812 c 0
 73.705078125 -100.903320312 50 -43.673828125 50 16 c 2
 50 436 l 2
EndSplineSet
Validated: 8912897
EndChar

StartChar: backslash
Encoding: 92 92 90
Width: 521
Flags: W
LayerCount: 2
Fore
SplineSet
120.087890625 655.268554688 m 2
 465.9765625 56.169921875 l 2
 476.317382812 38.2607421875 470.180664062 15.3603515625 452.271484375 5.01953125 c 0
 434.362304688 -5.3203125 411.4609375 0.81640625 401.12109375 18.7255859375 c 2
 55.2314453125 617.82421875 l 2
 44.8916015625 635.733398438 51.02734375 658.633789062 68.9375 668.974609375 c 0
 86.8466796875 679.314453125 109.748046875 673.177734375 120.087890625 655.268554688 c 2
EndSplineSet
Validated: 524321
EndChar

StartChar: bracketright
Encoding: 93 93 91
Width: 400
Flags: W
HStem: -209 75<53.6979 200.864> 586 75<53.6979 200.864>
VStem: 275 75<-59.864 511.864>
LayerCount: 2
Fore
SplineSet
125 661 m 2
 184.673828125 661 241.903320312 637.294921875 284.098632812 595.098632812 c 0
 326.294921875 552.903320312 350 495.673828125 350 436 c 2
 350 16 l 2
 350 -43.673828125 326.294921875 -100.903320312 284.098632812 -143.098632812 c 0
 241.903320312 -185.294921875 184.673828125 -209 125 -209 c 2
 87.5 -209 l 2
 66.7890625 -209 50 -192.2109375 50 -171.5 c 0
 50 -150.7890625 66.7890625 -134 87.5 -134 c 2
 125 -134 l 1
 125 -134.006835938 l 1
 164.78515625 -134.006835938 202.939453125 -118.203125 231.071289062 -90.0712890625 c 0
 259.203125 -61.939453125 275.0078125 -23.7841796875 275.0078125 16 c 1
 275 16 l 1
 275 436 l 1
 275.0078125 436 l 1
 275.0078125 475.784179688 259.203125 513.939453125 231.071289062 542.071289062 c 0
 202.939453125 570.203125 164.78515625 586.006835938 125 586.006835938 c 1
 125 586 l 1
 87.5 586 l 2
 66.7890625 586 50 602.7890625 50 623.5 c 0
 50 644.2109375 66.7890625 661 87.5 661 c 2
 125 661 l 2
EndSplineSet
Validated: 8912897
EndChar

StartChar: asciicircum
Encoding: 94 94 92
Width: 295
Flags: W
HStem: 501.91 222.554
VStem: 51.9102 191.18
LayerCount: 2
Fore
SplineSet
142.365234375 724.463867188 m 0
 145.5546875 725.135742188 148.8984375 725.189453125 152.211914062 724.548828125 c 0
 160.189453125 723.012695312 167.265625 717.625 170.608398438 709.557617188 c 2
 243.08984375 534.579101562 l 2
 248.375 521.821289062 242.31640625 507.194335938 229.556640625 501.91015625 c 0
 216.797851562 496.625 202.171875 502.68359375 196.88671875 515.442382812 c 2
 147.5 634.666992188 l 1
 98.1123046875 515.442382812 l 2
 92.828125 502.68359375 78.201171875 496.625 65.4423828125 501.91015625 c 0
 52.68359375 507.194335938 46.625 521.821289062 51.91015625 534.579101562 c 2
 124.391601562 709.557617188 l 2
 127.673828125 717.482421875 134.559570312 722.821289062 142.365234375 724.463867188 c 0
EndSplineSet
Validated: 524321
EndChar

StartChar: underscore
Encoding: 95 95 93
Width: 635
Flags: W
HStem: -225 50<30.2009 604.799>
LayerCount: 2
Fore
SplineSet
55 -175 m 2
 580 -175 l 2
 593.806640625 -175 605 -186.193359375 605 -200 c 0
 605 -213.806640625 593.806640625 -225 580 -225 c 2
 55 -225 l 2
 41.193359375 -225 30 -213.806640625 30 -200 c 0
 30 -186.193359375 41.193359375 -175 55 -175 c 2
EndSplineSet
Validated: 524289
EndChar

StartChar: quotedbl
Encoding: 34 34 94
Width: 325
Flags: W
HStem: 500 225<53.6979 121.302 203.698 271.302>
VStem: 50 75<503.698 721.302> 200 75<503.698 721.302>
LayerCount: 2
Fore
SplineSet
50 687.5 m 2
 50 708.2109375 66.7890625 725 87.5 725 c 0
 108.2109375 725 125 708.2109375 125 687.5 c 2
 125 537.5 l 2
 125 516.7890625 108.2109375 500 87.5 500 c 0
 66.7890625 500 50 516.7890625 50 537.5 c 2
 50 687.5 l 2
200 687.5 m 2
 200 708.2109375 216.7890625 725 237.5 725 c 0
 258.2109375 725 275 708.2109375 275 687.5 c 2
 275 537.5 l 2
 275 516.7890625 258.2109375 500 237.5 500 c 0
 216.7890625 500 200 516.7890625 200 537.5 c 2
 200 687.5 l 2
EndSplineSet
Validated: 524289
EndChar

StartChar: quotesingle
Encoding: 39 39 95
Width: 175
Flags: W
HStem: 500 225<53.698 121.302>
VStem: 50 75<503.698 721.302>
LayerCount: 2
Fore
SplineSet
87.5 725 m 0
 108.209960938 725 125 708.2109375 125 687.5 c 2
 125 537.5 l 2
 125 516.7890625 108.209960938 500 87.5 500 c 0
 66.7900390625 500 50 516.7890625 50 537.5 c 2
 50 687.5 l 2
 50 708.2109375 66.7900390625 725 87.5 725 c 0
EndSplineSet
Validated: 524289
EndChar

StartChar: grave
Encoding: 96 96 96
Width: 200
Flags: W
HStem: 541.723 129.905
VStem: 53.3545 93.3008
LayerCount: 2
Fore
SplineSet
53.3544921875 637.474609375 m 6
 46.4501953125 649.432617188 50.546875 664.723632812 62.5048828125 671.627929688 c 4
 74.4599609375 678.529296875 89.7509765625 674.432617188 96.6552734375 662.477539062 c 6
 146.655273438 575.873046875 l 6
 153.557617188 563.915039062 149.459960938 548.626953125 137.504882812 541.72265625 c 4
 125.546875 534.818359375 110.256835938 538.915039062 103.354492188 550.873046875 c 6
 53.3544921875 637.474609375 l 6
EndSplineSet
Validated: 33
EndChar

StartChar: braceleft
Encoding: 123 123 97
Width: 535
Flags: W
HStem: -209 74.9932<371.636 481.302> 586.008 74.9922<371.636 481.302>
VStem: 222.5 75<-59.864 100.119 351.881 511.864>
LayerCount: 2
Fore
SplineSet
288.401367188 595.098632812 m 0
 330.596679688 637.294921875 387.827148438 661 447.5 661 c 0
 468.209960938 661 485 644.2109375 485 623.5 c 0
 485 602.7890625 468.209960938 586 447.5 586 c 1
 447.5 586.0078125 l 1
 407.71484375 586.0078125 369.560546875 570.203125 341.428710938 542.071289062 c 0
 313.296875 513.939453125 297.493164062 475.78515625 297.493164062 436 c 1
 297.5 436 l 1
 297.5 423.46484375 296.547851562 410.977539062 294.6640625 398.642578125 c 0
 291.6640625 378.995117188 286.30078125 359.733398438 278.66015625 341.286132812 c 0
 266.221679688 311.2578125 247.991210938 283.973632812 225.008789062 260.991210938 c 0
 211.678710938 247.661132812 196.90234375 235.9296875 180.982421875 226 c 1
 196.90234375 216.0703125 211.678710938 204.338867188 225.008789062 191.008789062 c 0
 247.991210938 168.026367188 266.221679688 140.7421875 278.66015625 110.713867188 c 0
 286.30078125 92.2666015625 291.6640625 73.0048828125 294.6640625 53.357421875 c 0
 296.547851562 41.0224609375 297.5 28.53515625 297.5 16 c 1
 297.493164062 16 l 1
 297.493164062 -23.7841796875 313.296875 -61.939453125 341.428710938 -90.0712890625 c 0
 369.560546875 -118.203125 407.71484375 -134.006835938 447.5 -134.006835938 c 1
 447.5 -134 l 1
 468.209960938 -134 485 -150.7890625 485 -171.5 c 0
 485 -192.2109375 468.209960938 -209 447.5 -209 c 0
 387.827148438 -209 330.596679688 -185.294921875 288.401367188 -143.098632812 c 0
 246.205078125 -100.903320312 222.5 -43.673828125 222.5 16 c 0
 222.5 28.5419921875 221.1328125 41.015625 218.44140625 53.205078125 c 0
 216.271484375 63.03125 213.239257812 72.671875 209.370117188 82.0126953125 c 0
 200.701171875 102.942382812 187.995117188 121.958007812 171.975585938 137.9765625 c 0
 155.958007812 153.995117188 136.942382812 166.701171875 116.012695312 175.370117188 c 0
 106.671875 179.239257812 97.03125 182.271484375 87.205078125 184.44140625 c 0
 72.5224609375 187.68359375 59.546875 197.208007812 53.541015625 210.110351562 c 0
 52.046875 213.266601562 50.9853515625 216.69140625 50.43359375 220.284179688 c 0
 50.1484375 222.1484375 50 224.057617188 50 226 c 0
 50 228.092773438 50.173828125 230.141601562 50.5068359375 232.138671875 c 0
 51.076171875 235.553710938 52.1103515625 238.818359375 53.541015625 241.888671875 c 0
 59.546875 254.791015625 72.5224609375 264.31640625 87.205078125 267.55859375 c 0
 97.03125 269.728515625 106.671875 272.760742188 116.012695312 276.629882812 c 0
 136.942382812 285.298828125 155.958007812 298.004882812 171.975585938 314.0234375 c 0
 187.995117188 330.041992188 200.701171875 349.057617188 209.370117188 369.987304688 c 0
 213.239257812 379.328125 216.271484375 388.96875 218.44140625 398.794921875 c 0
 221.1328125 410.984375 222.5 423.458007812 222.5 436 c 0
 222.5 495.673828125 246.205078125 552.903320312 288.401367188 595.098632812 c 0
EndSplineSet
Validated: 8912897
EndChar

StartChar: bar
Encoding: 124 124 98
Width: 175
Flags: W
HStem: 655 20G<77.145 97.855>
VStem: 50 75<-221.302 671.302>
LayerCount: 2
Fore
SplineSet
87.5 675 m 0
 108.209960938 675 125 658.2109375 125 637.5 c 2
 125 -187.5 l 2
 125 -208.2109375 108.209960938 -225 87.5 -225 c 0
 66.7900390625 -225 50 -208.2109375 50 -187.5 c 2
 50 637.5 l 2
 50 658.2109375 66.7900390625 675 87.5 675 c 0
EndSplineSet
Validated: 524289
EndChar

StartChar: braceright
Encoding: 125 125 99
Width: 535
Flags: W
HStem: -209 74.9932<53.698 163.364> 586 75<53.698 163.364>
VStem: 237.5 75<-59.864 100.119 351.881 511.864>
LayerCount: 2
Fore
SplineSet
50 623.5 m 0
 50 644.2109375 66.7900390625 661 87.5 661 c 0
 147.172851562 661 204.403320312 637.294921875 246.598632812 595.098632812 c 0
 288.794921875 552.903320312 312.5 495.673828125 312.5 436 c 0
 312.5 423.458007812 313.8671875 410.984375 316.55859375 398.794921875 c 0
 318.728515625 388.96875 321.760742188 379.328125 325.629882812 369.987304688 c 0
 334.298828125 349.057617188 347.004882812 330.041992188 363.024414062 314.0234375 c 0
 379.041992188 298.004882812 398.057617188 285.298828125 418.987304688 276.629882812 c 0
 428.328125 272.760742188 437.96875 269.728515625 447.794921875 267.55859375 c 0
 462.477539062 264.31640625 475.453125 254.791015625 481.458984375 241.888671875 c 0
 482.950195312 238.686523438 484.01171875 235.278320312 484.564453125 231.704101562 c 0
 484.850585938 229.844726562 485 227.94140625 485 226 c 0
 485 223.8828125 484.82421875 221.8046875 484.485351562 219.783203125 c 0
 483.915039062 216.372070312 482.883789062 213.120117188 481.458984375 210.110351562 c 0
 475.453125 197.208007812 462.477539062 187.68359375 447.794921875 184.44140625 c 0
 437.96875 182.271484375 428.328125 179.239257812 418.987304688 175.370117188 c 0
 398.057617188 166.701171875 379.041992188 153.995117188 363.024414062 137.9765625 c 0
 347.004882812 121.958007812 334.298828125 102.942382812 325.629882812 82.0126953125 c 0
 321.760742188 72.671875 318.728515625 63.03125 316.55859375 53.205078125 c 0
 313.8671875 41.015625 312.5 28.5419921875 312.5 16 c 0
 312.5 -43.673828125 288.794921875 -100.903320312 246.598632812 -143.098632812 c 0
 204.403320312 -185.294921875 147.172851562 -209 87.5 -209 c 0
 66.7900390625 -209 50 -192.2109375 50 -171.5 c 0
 50 -150.7890625 66.7900390625 -134 87.5 -134 c 1
 87.5 -134.006835938 l 1
 127.28515625 -134.006835938 165.439453125 -118.203125 193.571289062 -90.0712890625 c 0
 221.703125 -61.939453125 237.506835938 -23.7841796875 237.506835938 16 c 1
 237.5 16 l 1
 237.5 28.53515625 238.452148438 41.0224609375 240.3359375 53.357421875 c 0
 243.3359375 73.0048828125 248.69921875 92.2666015625 256.33984375 110.713867188 c 0
 268.778320312 140.7421875 287.008789062 168.026367188 309.991210938 191.008789062 c 0
 323.321289062 204.338867188 338.09765625 216.0703125 354.017578125 226 c 1
 338.09765625 235.9296875 323.321289062 247.661132812 309.991210938 260.991210938 c 0
 287.008789062 283.973632812 268.778320312 311.2578125 256.33984375 341.286132812 c 0
 248.69921875 359.733398438 243.3359375 378.995117188 240.3359375 398.642578125 c 0
 238.452148438 410.977539062 237.5 423.46484375 237.5 436 c 1
 237.506835938 436 l 1
 237.506835938 475.78515625 221.703125 513.939453125 193.571289062 542.071289062 c 0
 165.439453125 570.203125 127.28515625 586.0078125 87.5 586.0078125 c 1
 87.5 586 l 1
 66.7900390625 586 50 602.7890625 50 623.5 c 0
EndSplineSet
Validated: 8912897
EndChar

StartChar: asciitilde
Encoding: 126 126 100
Width: 625
Flags: W
HStem: 190 75<347.909 502.141> 265 75<122.858 277.091>
LayerCount: 2
Fore
SplineSet
200.249023438 340 m 0x40
 249.021484375 339.946289062 296.458007812 324.044921875 335.41015625 294.693359375 c 0
 361.25 275.452148438 392.60546875 265.036132812 424.833984375 265 c 0x80
 457.239257812 264.963867188 488.784179688 275.423828125 514.74609375 294.809570312 c 0
 521.056640625 299.633789062 528.943359375 302.5 537.5 302.5 c 0
 558.2109375 302.5 575 285.7109375 575 265 c 0x40
 575 252.53125 568.9140625 241.484375 559.55078125 234.665039062 c 0
 520.623046875 205.618164062 473.334960938 189.947265625 424.750976562 190 c 0x80
 375.978515625 190.053710938 328.541992188 205.955078125 289.58984375 235.306640625 c 0
 263.75 254.547851562 232.39453125 264.963867188 200.166015625 265 c 0
 167.760742188 265.036132812 136.215820312 254.576171875 110.25390625 235.190429688 c 0
 103.943359375 230.366210938 96.056640625 227.5 87.5 227.5 c 0
 66.7900390625 227.5 50 244.2890625 50 265 c 0
 50 277.46875 56.083984375 288.515625 65.447265625 295.333984375 c 0
 104.375 324.380859375 151.665039062 340.052734375 200.249023438 340 c 0x40
EndSplineSet
Validated: 8912929
EndChar

StartChar: section
Encoding: 167 167 101
Width: 500
Flags: W
HStem: 25 75<181.233 306.907> 350 74.999<193.093 318.767>
VStem: 50 75<155.672 295.307> 89.6025 74.4424<-120.964 -51.5807 453.915 571.744> 335.771 74.4775<-121.744 -3.91465 502.3 571.193> 375 75<155.784 294.328>
LayerCount: 2
Fore
SplineSet
359.469726562 57.5927734375 m 1xc4
 375.13671875 43.310546875 387.9296875 26.0361328125 397.034179688 6.689453125 c 0
 410.1640625 -21.2119140625 415.083007812 -52.2744140625 411.217773438 -82.8671875 c 0
 407.353515625 -113.459960938 394.86328125 -142.322265625 375.208007812 -166.081054688 c 0
 355.551757812 -189.840820312 329.541015625 -207.517578125 300.21484375 -217.046875 c 0
 270.888671875 -226.576171875 239.456054688 -227.563476562 209.586914062 -219.89453125 c 0
 179.71875 -212.225585938 152.651367188 -196.217773438 131.54296875 -173.739257812 c 0
 110.571289062 -151.40625 96.33984375 -123.603515625 90.490234375 -93.5390625 c 0
 89.9072265625 -90.9130859375 89.6025390625 -88.18359375 89.6025390625 -85.3828125 c 0
 89.6025390625 -64.671875 106.391601562 -47.8828125 127.1015625 -47.8828125 c 0
 145.600585938 -47.8828125 160.973632812 -61.27734375 164.044921875 -78.8974609375 c 0xd4
 167.15625 -95.2080078125 174.84375 -110.296875 186.2109375 -122.401367188 c 0
 197.578125 -134.505859375 212.15625 -143.125976562 228.237304688 -147.254882812 c 0
 244.321289062 -151.384765625 261.248046875 -150.852539062 277.041015625 -145.721679688 c 0
 292.83203125 -140.590820312 306.837890625 -131.072265625 317.423828125 -118.278320312 c 0
 328.0078125 -105.483398438 334.734375 -89.94140625 336.814453125 -73.466796875 c 0
 338.896484375 -56.9931640625 336.248046875 -40.2666015625 329.176757812 -25.2421875 c 0
 322.107421875 -10.2177734375 310.908203125 2.4853515625 296.88671875 11.3828125 c 0
 283.079101562 20.14453125 267.096679688 24.865234375 250.75390625 25.0009765625 c 2
 250 25 l 2
 139.54296875 25 50 114.54296875 50 225 c 0
 50 286.291015625 77.5703125 341.143554688 120.986328125 377.831054688 c 0
 127.188476562 383.072265625 133.715820312 387.942382812 140.530273438 392.407226562 c 1
 124.86328125 406.689453125 112.0703125 423.963867188 102.965820312 443.310546875 c 0
 89.8359375 471.211914062 84.9169921875 502.274414062 88.78125 532.8671875 c 0
 92.646484375 563.459960938 105.13671875 592.322265625 124.791992188 616.081054688 c 0
 144.448242188 639.840820312 170.45703125 657.517578125 199.78515625 667.046875 c 0
 229.111328125 676.575195312 260.543945312 677.563476562 290.413085938 669.89453125 c 0
 320.28125 662.2265625 347.348632812 646.217773438 368.45703125 623.739257812 c 0
 389.345703125 601.494140625 403.544921875 573.821289062 409.438476562 543.891601562 c 0
 409.967773438 541.37890625 410.249023438 538.7734375 410.249023438 536.1015625 c 0
 410.249023438 515.391601562 393.458984375 498.6015625 372.749023438 498.6015625 c 0
 354.174804688 498.6015625 338.754882812 512.107421875 335.771484375 529.833007812 c 0xe8
 332.548828125 545.78515625 324.939453125 560.528320312 313.7890625 572.401367188 c 0
 302.421875 584.505859375 287.84375 593.125976562 271.762695312 597.254882812 c 0
 255.678710938 601.384765625 238.751953125 600.852539062 222.958984375 595.721679688 c 0
 207.16796875 590.590820312 193.162109375 581.072265625 182.576171875 568.278320312 c 0
 171.9921875 555.483398438 165.265625 539.94140625 163.185546875 523.466796875 c 0
 161.103515625 506.993164062 163.751953125 490.266601562 170.823242188 475.2421875 c 0
 177.892578125 460.217773438 189.091796875 447.514648438 203.11328125 438.6171875 c 0
 216.920898438 429.85546875 232.903320312 425.138671875 249.24609375 424.999023438 c 2
 250 424.995117188 l 2
 360.45703125 425 450 335.45703125 450 225 c 0
 450 154.953125 413.989257812 93.31640625 359.469726562 57.5927734375 c 1xc4
125 225 m 0xe4
 125 155.963867188 180.963867188 100 250 100 c 0
 319.036132812 100 375 155.963867188 375 225 c 0
 375 294.036132812 319.036132812 350 250 350 c 0
 180.963867188 350 125 294.036132812 125 225 c 0xe4
EndSplineSet
Validated: 524321
EndChar

StartChar: dieresis
Encoding: 168 168 102
Width: 435
Flags: W
HStem: 649.994 75<53.6979 121.302 183.698 251.302 313.698 381.302>
VStem: 50 75<653.698 721.302> 180 75<653.692 721.296> 310 75<653.692 721.296>
CounterMasks: 1 70
LayerCount: 2
Fore
SplineSet
255 687.494140625 m 0
 255 666.783203125 238.2109375 649.994140625 217.5 649.994140625 c 0
 196.7890625 649.994140625 180 666.783203125 180 687.494140625 c 0
 180 708.205078125 196.7890625 724.994140625 217.5 724.994140625 c 0
 238.2109375 724.994140625 255 708.205078125 255 687.494140625 c 0
385 687.494140625 m 0
 385 666.783203125 368.2109375 649.994140625 347.5 649.994140625 c 0
 326.7890625 649.994140625 310 666.783203125 310 687.494140625 c 0
 310 708.205078125 326.7890625 724.994140625 347.5 724.994140625 c 0
 368.2109375 724.994140625 385 708.205078125 385 687.494140625 c 0
125 687.5 m 0
 125 666.7890625 108.2109375 650 87.5 650 c 0
 66.7890625 650 50 666.7890625 50 687.5 c 0
 50 708.2109375 66.7890625 725 87.5 725 c 0
 108.2109375 725 125 708.2109375 125 687.5 c 0
EndSplineSet
Validated: 524289
EndChar

StartChar: Euro
Encoding: 256 8364 103
Width: 684
Flags: W
HStem: 0.206055 74.9463<333.572 542.478> 262.5 50<50.2009 100.925 185.935 489.799> 362.5 50<50.2009 100.928 185.933 537.299> 599.848 74.9463<333.679 541.354>
VStem: 100.925 75.2617<312.5 362.5>
LayerCount: 2
Fore
SplineSet
425.72265625 0.2060546875 m 0
 366.513671875 2.2734375 308.893554688 19.888671875 258.65234375 51.2841796875 c 0
 208.411132812 82.677734375 167.319335938 126.744140625 139.50390625 179.052734375 c 0
 125.44921875 205.48828125 115.034179688 233.557617188 108.438476562 262.5 c 1
 75 262.5 l 2
 61.193359375 262.5 50 273.693359375 50 287.5 c 0
 50 301.306640625 61.193359375 312.5 75 312.5 c 2
 100.924804688 312.5 l 1
 100.01953125 324.703125 99.775390625 336.98046875 100.205078125 349.279296875 c 0
 100.359375 353.6953125 100.600585938 358.102539062 100.927734375 362.5 c 1
 75 362.5 l 2
 61.193359375 362.5 50 373.693359375 50 387.5 c 0
 50 401.306640625 61.193359375 412.5 75 412.5 c 2
 108.440429688 412.5 l 1
 116.787109375 449.122070312 131.22265625 484.241210938 151.284179688 516.34765625 c 0
 182.677734375 566.588867188 226.743164062 607.681640625 279.052734375 635.495117188 c 0
 331.362304688 663.307617188 390.071289062 676.862304688 449.280273438 674.793945312 c 0
 508.436523438 672.728515625 566.010742188 655.139648438 616.22265625 623.79296875 c 0
 627.034179688 617.212890625 634.252929688 605.319335938 634.252929688 591.73828125 c 0
 634.252929688 571.028320312 617.462890625 554.23828125 596.752929688 554.23828125 c 0
 589.08203125 554.23828125 581.951171875 556.540039062 576.010742188 560.4921875 c 0
 537.073242188 584.676757812 492.477539062 598.248046875 446.663085938 599.84765625 c 0
 400.610351562 601.456054688 354.946289062 590.913085938 314.259765625 569.280273438 c 0
 273.57421875 547.647460938 239.298828125 515.685546875 214.879882812 476.608398438 c 0
 202.345703125 456.547851562 192.633789062 434.974609375 185.932617188 412.5 c 1
 512.5 412.5 l 2
 526.305664062 412.5 537.5 401.306640625 537.5 387.5 c 0
 537.5 373.693359375 526.305664062 362.5 512.5 362.5 c 2
 176.18359375 362.5 l 1
 175.680664062 357.241210938 175.336914062 351.959960938 175.151367188 346.661132812 c 0
 174.752929688 335.2265625 175.102539062 323.81640625 176.186523438 312.5 c 1
 465 312.5 l 2
 478.805664062 312.5 490 301.306640625 490 287.5 c 0
 490 273.693359375 478.805664062 262.5 465 262.5 c 2
 185.934570312 262.5 l 1
 190.893554688 245.870117188 197.506835938 229.706054688 205.719726562 214.259765625 c 0
 227.353515625 173.57421875 259.314453125 139.299804688 298.390625 114.880859375 c 0
 337.470703125 90.462890625 382.288085938 76.7607421875 428.33984375 75.15234375 c 0
 474.20703125 73.55078125 519.690429688 84.0029296875 560.25390625 105.461914062 c 0
 565.72265625 108.578125 572.05078125 110.358398438 578.793945312 110.358398438 c 0
 599.50390625 110.358398438 616.293945312 93.568359375 616.293945312 72.8583984375 c 0
 616.293945312 58.26171875 607.954101562 45.6142578125 595.78125 39.41796875 c 0
 543.512695312 11.6640625 484.868164062 -1.8603515625 425.72265625 0.2060546875 c 0
EndSplineSet
Validated: 524321
EndChar

StartChar: approxequal
Encoding: 257 8776 104
Width: 624
Flags: W
HStem: 110 75<347.909 502.141> 185 75<122.865 277.091> 260 75<347.909 502.141> 335 75<122.866 277.091>
LayerCount: 2
Fore
SplineSet
200.249023438 410 m 0x10
 249.021484375 409.946289062 296.458007812 394.044921875 335.41015625 364.693359375 c 0
 361.25 345.452148438 392.60546875 335.036132812 424.833984375 335 c 0x20
 457.239257812 334.963867188 488.784179688 345.423828125 514.74609375 364.809570312 c 0
 521.056640625 369.633789062 528.943359375 372.5 537.5 372.5 c 0
 558.2109375 372.5 575 355.7109375 575 335 c 0x10
 575 322.53125 568.9140625 311.484375 559.55078125 304.665039062 c 0
 520.623046875 275.618164062 473.334960938 259.947265625 424.750976562 260 c 0x20
 375.978515625 260.053710938 328.54296875 275.955078125 289.58984375 305.306640625 c 0
 263.75 324.547851562 232.39453125 334.963867188 200.166015625 335 c 0
 167.760742188 335.036132812 136.215820312 324.576171875 110.25390625 305.190429688 c 0
 103.943359375 300.366210938 96.056640625 297.5 87.5 297.5 c 0
 66.7900390625 297.5 50 314.2890625 50 335 c 0
 50 347.473632812 56.0888671875 358.525390625 65.458984375 365.341796875 c 0
 104.38671875 394.383789062 151.669921875 410.052734375 200.249023438 410 c 0x10
110.25390625 155.190429688 m 0
 103.943359375 150.366210938 96.056640625 147.5 87.5 147.5 c 0
 66.7900390625 147.5 50 164.2890625 50 185 c 0
 50 197.466796875 56.0810546875 208.512695312 65.4423828125 215.331054688 c 0
 65.447265625 215.333984375 65.4521484375 215.337890625 65.4560546875 215.340820312 c 0
 104.384765625 244.383789062 151.669921875 260.052734375 200.249023438 260 c 0x40
 249.021484375 259.946289062 296.458007812 244.044921875 335.41015625 214.693359375 c 0
 361.25 195.452148438 392.60546875 185.036132812 424.833984375 185 c 0x80
 457.241210938 184.963867188 488.784179688 195.424804688 514.74609375 214.810546875 c 0
 521.056640625 219.634765625 528.9453125 222.5 537.5 222.5 c 0
 558.2109375 222.5 575 205.7109375 575 185 c 0x40
 575 172.53125 568.9140625 161.484375 559.55078125 154.665039062 c 0
 520.623046875 125.618164062 473.334960938 109.946289062 424.750976562 110 c 0x80
 375.978515625 110.053710938 328.54296875 125.955078125 289.58984375 155.306640625 c 0
 263.75 174.547851562 232.39453125 184.963867188 200.166015625 185 c 0x40
 167.760742188 185.036132812 136.215820312 174.576171875 110.25390625 155.190429688 c 0
EndSplineSet
Validated: 8912929
EndChar

StartChar: odieresis
Encoding: 246 246 105
Width: 550
Flags: W
HStem: 0 74.9951<197.428 352.572> 375.004 74.9961<197.428 352.572> 549.994 75<113.698 181.302 243.698 311.302 373.698 441.302>
VStem: 50 74.9961<147.427 302.572> 110 75<553.698 621.302> 240 75<553.692 621.296> 370 75<553.692 621.296> 425.004 74.9961<147.427 302.572>
LayerCount: 2
Fore
SplineSet
315 587.494140625 m 4xe4
 315 566.783203125 298.2109375 549.994140625 277.5 549.994140625 c 4
 256.7890625 549.994140625 240 566.783203125 240 587.494140625 c 4
 240 608.205078125 256.7890625 624.994140625 277.5 624.994140625 c 4
 298.2109375 624.994140625 315 608.205078125 315 587.494140625 c 4xe4
445 587.494140625 m 4xe6
 445 566.783203125 428.2109375 549.994140625 407.5 549.994140625 c 4
 386.7890625 549.994140625 370 566.783203125 370 587.494140625 c 4
 370 608.205078125 386.7890625 624.994140625 407.5 624.994140625 c 4
 428.2109375 624.994140625 445 608.205078125 445 587.494140625 c 4xe6
185 587.5 m 4xec
 185 566.7890625 168.2109375 550 147.5 550 c 4
 126.7890625 550 110 566.7890625 110 587.5 c 4
 110 608.2109375 126.7890625 625 147.5 625 c 4
 168.2109375 625 185 608.2109375 185 587.5 c 4xec
500 225 m 0xf5
 500 100.736328125 399.263671875 0 275 0 c 0
 150.736328125 0 50 100.736328125 50 225 c 0
 50 349.263671875 150.736328125 450 275 450 c 0
 399.263671875 450 500 349.263671875 500 225 c 0xf5
124.99609375 225 m 0
 124.99609375 142.155273438 192.155273438 74.9951171875 275 74.9951171875 c 0
 357.844726562 74.9951171875 425.00390625 142.155273438 425.00390625 225 c 0
 425.00390625 307.844726562 357.844726562 375.00390625 275 375.00390625 c 0
 192.155273438 375.00390625 124.99609375 307.844726562 124.99609375 225 c 0
EndSplineSet
Validated: 8912897
EndChar

StartChar: adieresis
Encoding: 228 228 106
Width: 550
Flags: W
HStem: 0 75<197.429 352.345> 0 21G<452.145 472.855> 375 75<197.429 352.571> 549.994 75<113.698 181.302 243.698 311.302 373.698 441.302>
VStem: 50 75<147.429 302.571> 110 75<553.698 621.302> 240 75<553.692 621.296> 370 75<553.692 621.296> 425 75<3.69786 57.292 147.22 302.362>
LayerCount: 2
Fore
SplineSet
315 587.494140625 m 4x32
 315 566.783203125 298.2109375 549.994140625 277.5 549.994140625 c 4
 256.7890625 549.994140625 240 566.783203125 240 587.494140625 c 4
 240 608.205078125 256.7890625 624.994140625 277.5 624.994140625 c 4
 298.2109375 624.994140625 315 608.205078125 315 587.494140625 c 4x32
445 587.494140625 m 4x33
 445 566.783203125 428.2109375 549.994140625 407.5 549.994140625 c 4
 386.7890625 549.994140625 370 566.783203125 370 587.494140625 c 4
 370 608.205078125 386.7890625 624.994140625 407.5 624.994140625 c 4
 428.2109375 624.994140625 445 608.205078125 445 587.494140625 c 4x33
185 587.5 m 4x36
 185 566.7890625 168.2109375 550 147.5 550 c 4
 126.7890625 550 110 566.7890625 110 587.5 c 4
 110 608.2109375 126.7890625 625 147.5 625 c 4
 168.2109375 625 185 608.2109375 185 587.5 c 4x36
425 57.2919921875 m 1x7a80
 385.193359375 21.6640625 332.626953125 0 275 0 c 0xba80
 150.736328125 0 50 100.736328125 50 225 c 0
 50 349.263671875 150.736328125 450 275 450 c 0
 399.263671875 450 500 349.263671875 500 225 c 2
 500 37.5 l 2
 500 16.7890625 483.2109375 0 462.5 0 c 0
 441.7890625 0 425 16.7890625 425 37.5 c 2
 425 57.2919921875 l 1x7a80
425 225 m 0
 425 307.842773438 357.842773438 375 275 375 c 0
 192.157226562 375 125 307.842773438 125 225 c 0
 125 142.157226562 192.157226562 75 275 75 c 0
 357.842773438 75 425 142.157226562 425 225 c 0
EndSplineSet
Validated: 8912897
EndChar

StartChar: udieresis
Encoding: 252 252 107
Width: 550
Flags: W
HStem: 0 75<197.379 351.461> 387 20G<150.5 165.5 384.5 399.5> 550 75<111.745 179.277 241.745 309.277 371.745 439.277>
VStem: 50.2051 74.5462<148.542 302.457> 108 75<554.552 622.255> 238 75<553.745 621.448> 368 75<553.745 621.448> 425.249 74.5462<148.429 301.798>
LayerCount: 2
Fore
SplineSet
193 370 m 0xf5
 193 358 187 347 178 340 c 0
 155 320 138 294 130 265 c 0
 126.528150944 251.980566038 124.751358494 238.584452831 124.751358494 225.220339591 c 0
 124.751358494 207.790226417 127.773792453 190.41454717 134 174 c 0
 145 145 164 120 189 102 c 0
 214 85 244 75 275 75 c 0
 306 75 336 85 361 103 c 0
 387 121 406 146 416 175 c 0
 422.226207547 191.41454717 425.248641506 208.469849058 425.248641506 225.621886774 c 0
 425.248641506 238.772792454 423.471849056 251.980566038 420 265 c 0
 412 294 395 320 372 340 c 0
 363 347 357 357 357 370 c 0
 357 390 374 407 395 407 c 0
 404 407 412 404 418 399 c 1
 454 369 480 329 492 285 c 0
 497.224080405 265.409698481 499.79486758 245.440355073 499.79486758 225.504500047 c 0
 499.79486758 199.646599663 495.469899494 173.845038515 487 149 c 0
 471 106 442 68 405 41 c 0
 367 15 322 0 275 0 c 0
 229 0 184 15 146 41 c 0
 108 68 79 105 63 149 c 0
 54.5301005062 173.280378549 50.2051324198 198.836120607 50.2051324198 224.587006101 c 0
 50.2051324198 244.440355073 52.775919595 264.409698481 58 284 c 0
 70 329 95 368 131 398 c 0
 137 404 146 407 155 407 c 0
 176 407 193 390 193 370 c 0xf5
313 588 m 0
 313 567 296 550 276 550 c 0
 255 550 238 567 238 588 c 0
 238 609 255 625 276 625 c 0
 296 625 313 609 313 588 c 0
443 588 m 0xe6
 443 567 426 550 406 550 c 0
 385 550 368 567 368 588 c 0
 368 609 385 625 406 625 c 0
 426 625 443 609 443 588 c 0xe6
183 588 m 0xec
 183 567 166 551 146 551 c 0
 125 551 108 567 108 588 c 0
 108 609 125 626 146 626 c 0
 166 626 183 609 183 588 c 0xec
EndSplineSet
Validated: 524289
EndChar

StartChar: acute
Encoding: 180 180 108
Width: 200
Flags: W
HStem: 591.754 129.893
VStem: 53.3535 93.2939
LayerCount: 2
Fore
SplineSet
146.647460938 687.499023438 m 2
 96.6513671875 600.904296875 l 2
 89.748046875 588.947265625 74.458984375 584.850585938 62.5029296875 591.75390625 c 0
 50.546875 598.657226562 46.4501953125 613.9453125 53.353515625 625.901367188 c 2
 103.348632812 712.497070312 l 2
 110.251953125 724.453125 125.541015625 728.549804688 137.497070312 721.646484375 c 0
 149.453125 714.744140625 153.549804688 699.455078125 146.647460938 687.499023438 c 2
EndSplineSet
Validated: 524321
EndChar

